<?xml version="1.0" encoding="utf-8"?>
<svg width="1920" height="550" viewBox="0 0 1920 550" fill="none" xmlns="http://www.w3.org/2000/svg">
<g opacity="0.1">
<circle r="5.41137" transform="matrix(0.707107 -0.707107 -0.707107 -0.707107 87.6523 419.181)" fill="#DADADA"/>
<circle r="5.41137" transform="matrix(0.707107 -0.707107 -0.707107 -0.707107 102.959 403.876)" fill="#C0C0C0"/>
<circle r="5.41137" transform="matrix(0.707107 -0.707107 -0.707107 -0.707107 118.264 388.57)" fill="#C0C0C0"/>
<circle r="5.41137" transform="matrix(0.707107 -0.707107 -0.707107 -0.707107 133.57 373.264)" fill="#C0C0C0"/>
<circle r="5.41137" transform="matrix(0.707107 -0.707107 -0.707107 -0.707107 148.875 357.959)" fill="#C0C0C0"/>
<circle r="5.41137" transform="matrix(0.707107 -0.707107 -0.707107 -0.707107 164.182 342.653)" fill="#C0C0C0"/>
<circle r="5.41137" transform="matrix(0.707107 -0.707107 -0.707107 -0.707107 102.959 434.487)" fill="#C0C0C0"/>
<circle r="5.41137" transform="matrix(0.707107 -0.707107 -0.707107 -0.707107 118.264 419.181)" fill="#C0C0C0"/>
<circle r="5.41137" transform="matrix(0.707107 -0.707107 -0.707107 -0.707107 133.57 403.876)" fill="#C0C0C0"/>
<circle r="5.41137" transform="matrix(0.707107 -0.707107 -0.707107 -0.707107 148.875 388.57)" fill="#C0C0C0"/>
<circle r="5.41137" transform="matrix(0.707107 -0.707107 -0.707107 -0.707107 164.182 373.264)" fill="#C0C0C0"/>
<circle r="5.41137" transform="matrix(0.707107 -0.707107 -0.707107 -0.707107 179.486 357.959)" fill="#C0C0C0"/>
<circle r="5.41137" transform="matrix(0.707107 -0.707107 -0.707107 -0.707107 118.264 449.793)" fill="#C0C0C0"/>
<circle r="5.41137" transform="matrix(0.707107 -0.707107 -0.707107 -0.707107 133.57 434.487)" fill="#C0C0C0"/>
<circle r="5.41137" transform="matrix(0.707107 -0.707107 -0.707107 -0.707107 148.875 419.181)" fill="#C0C0C0"/>
<circle r="5.41137" transform="matrix(0.707107 -0.707107 -0.707107 -0.707107 164.182 403.876)" fill="#C0C0C0"/>
<circle r="5.41137" transform="matrix(0.707107 -0.707107 -0.707107 -0.707107 179.486 388.57)" fill="#C0C0C0"/>
<circle r="5.41137" transform="matrix(0.707107 -0.707107 -0.707107 -0.707107 194.793 373.264)" fill="#C0C0C0"/>
<circle r="5.41137" transform="matrix(0.707107 -0.707107 -0.707107 -0.707107 133.57 465.099)" fill="#C0C0C0"/>
<circle r="5.41137" transform="matrix(0.707107 -0.707107 -0.707107 -0.707107 148.875 449.793)" fill="#C0C0C0"/>
<circle r="5.41137" transform="matrix(0.707107 -0.707107 -0.707107 -0.707107 164.182 434.487)" fill="#C0C0C0"/>
<circle r="5.41137" transform="matrix(0.707107 -0.707107 -0.707107 -0.707107 179.486 419.181)" fill="#C0C0C0"/>
<circle r="5.41137" transform="matrix(0.707107 -0.707107 -0.707107 -0.707107 194.793 403.876)" fill="#C0C0C0"/>
<circle r="5.41137" transform="matrix(0.707107 -0.707107 -0.707107 -0.707107 210.098 388.57)" fill="#C0C0C0"/>
<circle r="5.41137" transform="matrix(0.707107 -0.707107 -0.707107 -0.707107 148.875 480.404)" fill="#C0C0C0"/>
<circle r="5.41137" transform="matrix(0.707107 -0.707107 -0.707107 -0.707107 164.182 465.099)" fill="#C0C0C0"/>
<circle r="5.41137" transform="matrix(0.707107 -0.707107 -0.707107 -0.707107 179.486 449.793)" fill="#C0C0C0"/>
<circle r="5.41137" transform="matrix(0.707107 -0.707107 -0.707107 -0.707107 194.793 434.487)" fill="#C0C0C0"/>
<circle r="5.41137" transform="matrix(0.707107 -0.707107 -0.707107 -0.707107 210.098 419.181)" fill="#C0C0C0"/>
<circle r="5.41137" transform="matrix(0.707107 -0.707107 -0.707107 -0.707107 225.404 403.876)" fill="#C0C0C0"/>
<circle r="5.41137" transform="matrix(0.707107 -0.707107 -0.707107 -0.707107 164.182 495.71)" fill="#C0C0C0"/>
<circle r="5.41137" transform="matrix(0.707107 -0.707107 -0.707107 -0.707107 179.486 480.404)" fill="#C0C0C0"/>
<circle r="5.41137" transform="matrix(0.707107 -0.707107 -0.707107 -0.707107 194.793 465.099)" fill="#C0C0C0"/>
<circle r="5.41137" transform="matrix(0.707107 -0.707107 -0.707107 -0.707107 210.098 449.793)" fill="#C0C0C0"/>
<circle r="5.41137" transform="matrix(0.707107 -0.707107 -0.707107 -0.707107 225.404 434.487)" fill="#C0C0C0"/>
<circle r="5.41137" transform="matrix(0.707107 -0.707107 -0.707107 -0.707107 240.709 419.181)" fill="#C0C0C0"/>
</g>
<circle cx="251.5" cy="103.5" r="43" stroke="#FCBD56" stroke-width="11"/>
<path d="M1265.99 77.1588L1239.99 51.1562L1275.51 41.6385L1265.99 77.1588Z" fill="#F23849"/>
<path d="M1730.25 387.25L1712.5 418L1694.75 387.25L1730.25 387.25Z" stroke="#FCBD56" stroke-width="6"/>
<rect x="1617.62" y="177.975" width="53" height="51" transform="rotate(-28.0802 1617.62 177.975)" stroke="#F23849" stroke-width="7"/>
</svg>
