<svg width="1911" height="820" viewBox="0 0 1911 820" fill="none" xmlns="http://www.w3.org/2000/svg">
<path d="M1530.82 740.297L1529.57 737.539L1489.3 755.803L1490.55 758.561L1530.82 740.297Z" fill="#F23849"/>
<rect x="1816.51" y="292.565" width="5.25279" height="76.6908" transform="rotate(124.466 1816.51 292.565)" fill="#F23849"/>
<circle cx="1850.6" cy="594.266" r="48.5" transform="rotate(13.0371 1850.6 594.266)" stroke="#FCBD56" stroke-width="3"/>
<path d="M1570.74 184.839L1547.9 148.228L1591.03 146.75L1570.74 184.839Z" fill="#FCBD56"/>
<g filter="url(#filter0_d)">
<path d="M1668.67 471.671L1644.43 497.624L1634.07 463.662L1668.67 471.671Z" stroke="#F23849" stroke-width="6"/>
</g>
<circle r="4.5" transform="matrix(0.974224 0.225582 0.225582 -0.974224 1685.07 724.397)" fill="#F23849"/>
<path d="M1237.31 370.531L1236.25 373.365L1277.63 388.923L1278.7 386.089L1237.31 370.531Z" fill="#F23849"/>
<rect x="718.702" y="485.111" width="5.25279" height="76.6908" transform="rotate(-10.5345 718.702 485.111)" fill="#F23849"/>
<circle cx="516.701" cy="109.838" r="26.8669" transform="rotate(-121.963 516.701 109.838)" stroke="#FCBD56" stroke-width="3"/>
<path d="M807.805 744.175L802.94 765.186L787.177 750.467L807.805 744.175Z" fill="#FCBD56"/>
<g filter="url(#filter1_d)">
<path d="M949.89 463.004L985.376 461.787L968.687 493.127L949.89 463.004Z" stroke="#F23849" stroke-width="6"/>
</g>
<circle r="4.5" transform="matrix(-0.52937 -0.848391 -0.848391 0.52937 1117 272.701)" fill="#F23849"/>
<rect width="3.02842" height="44.2149" transform="matrix(0.692132 0.721771 0.721771 -0.692132 -33.2217 315.669)" fill="#FCBD56"/>
<rect x="277.279" y="406.219" width="5.25279" height="76.6908" transform="rotate(-133.799 277.279 406.219)" fill="#F23849"/>
<circle cx="189.369" cy="643.483" r="44.5" transform="rotate(76.2009 189.369 643.483)" stroke="#FCBD56" stroke-width="11"/>
<path d="M488.502 326.807L458.975 326.188L473.203 352.069L488.502 326.807Z" fill="#FCBD56"/>
<path d="M167.729 296.493L133.632 286.586L159.26 262.01L167.729 296.493Z" stroke="#FCBD56" stroke-width="6"/>
<defs>
<filter id="filter0_d" x="1614.92" y="457.567" width="65.4872" height="61.0795" filterUnits="userSpaceOnUse" color-interpolation-filters="sRGB">
<feFlood flood-opacity="0" result="BackgroundImageFix"/>
<feColorMatrix in="SourceAlpha" type="matrix" values="0 0 0 0 0 0 0 0 0 0 0 0 0 0 0 0 0 0 127 0"/>
<feOffset dy="4"/>
<feGaussianBlur stdDeviation="3"/>
<feColorMatrix type="matrix" values="0 0 0 0 0.94902 0 0 0 0 0.219608 0 0 0 0 0.286275 0 0 0 0.3 0"/>
<feBlend mode="normal" in2="BackgroundImageFix" result="effect1_dropShadow"/>
<feBlend mode="normal" in="SourceGraphic" in2="effect1_dropShadow" result="shape"/>
</filter>
<filter id="filter1_d" x="938.594" y="450.259" width="68.0531" height="58.8652" filterUnits="userSpaceOnUse" color-interpolation-filters="sRGB">
<feFlood flood-opacity="0" result="BackgroundImageFix"/>
<feColorMatrix in="SourceAlpha" type="matrix" values="0 0 0 0 0 0 0 0 0 0 0 0 0 0 0 0 0 0 127 0"/>
<feOffset dy="4"/>
<feGaussianBlur stdDeviation="3"/>
<feColorMatrix type="matrix" values="0 0 0 0 0.94902 0 0 0 0 0.219608 0 0 0 0 0.286275 0 0 0 0.3 0"/>
<feBlend mode="normal" in2="BackgroundImageFix" result="effect1_dropShadow"/>
<feBlend mode="normal" in="SourceGraphic" in2="effect1_dropShadow" result="shape"/>
</filter>
</defs>
</svg>
