<?xml version="1.0" encoding="utf-8"?>
<svg width="1920" height="554" viewBox="0 0 1920 554" fill="none" xmlns="http://www.w3.org/2000/svg">
<path d="M1178.87 489L1182.1 490.087L1166.22 537.153L1163 536.066L1178.87 489Z" fill="#FCBD56"/>
<path d="M754.107 58.8057L756.73 57.2915L734.623 19.0002L732 20.5144L754.107 58.8057Z" fill="#F23849"/>
<path fill-rule="evenodd" clip-rule="evenodd" d="M461.5 371C475.583 371 487 359.583 487 345.5C487 331.417 475.583 320 461.5 320C447.417 320 436 331.417 436 345.5C436 359.583 447.417 371 461.5 371ZM461.5 382C481.658 382 498 365.658 498 345.5C498 325.342 481.658 309 461.5 309C441.342 309 425 325.342 425 345.5C425 365.658 441.342 382 461.5 382Z" fill="#F23849"/>
<path fill-rule="evenodd" clip-rule="evenodd" d="M1323.5 148.814L1346.45 109.064L1300.55 109.064L1323.5 148.814ZM1323.5 136.814L1336.06 115.064L1310.94 115.064L1323.5 136.814Z" fill="#FCBD56"/>
<path d="M697 429.314C697 426.829 694.985 424.814 692.5 424.814C690.014 424.814 688 426.829 688 429.314C688 431.8 690.014 433.814 692.5 433.814C694.985 433.814 697 431.8 697 429.314Z" fill="#F23849"/>
<path d="M39.2788 391.086L42.2514 386.755L105.48 430.155L102.508 434.486L39.2788 391.086Z" fill="#F23849"/>
<path fill-rule="evenodd" clip-rule="evenodd" d="M8.76769 64.812C-14.3218 59.4656 -37.3737 73.8493 -42.7201 96.9388C-48.0665 120.028 -33.6828 143.08 -10.5933 148.427C12.4963 153.773 35.5481 139.389 40.8945 116.3C46.2409 93.2103 31.8572 70.1584 8.76769 64.812ZM9.44444 61.8893C-15.2593 56.1692 -39.9226 71.5584 -45.6428 96.2621C-51.3629 120.966 -35.9737 145.629 -11.27 151.349C13.4337 157.069 38.0971 141.68 43.8172 116.977C49.5373 92.2729 34.1481 67.6095 9.44444 61.8893Z" fill="#F23849"/>
<path fill-rule="evenodd" clip-rule="evenodd" d="M294.325 97.177L263 130.725L307.716 141.079L294.325 97.177ZM291.618 108.868L274.478 127.224L298.945 132.89L291.618 108.868Z" fill="#FCBD56"/>
<path d="M1583.78 252L1586.13 254.451L1550.35 288.766L1548 286.315L1583.78 252Z" fill="#F23849"/>
<path fill-rule="evenodd" clip-rule="evenodd" d="M1884.86 55.2511C1880.39 37.0564 1862.01 25.9293 1843.82 30.398C1825.62 34.8668 1814.5 53.2392 1818.97 71.4339C1823.44 89.6286 1841.81 100.756 1860 96.287C1878.2 91.8182 1889.32 73.4459 1884.86 55.2511ZM1895.54 52.6274C1889.62 28.5329 1865.29 13.7978 1841.2 19.7155C1817.1 25.6333 1802.37 49.9631 1808.28 74.0576C1814.2 98.1521 1838.53 112.887 1862.63 106.97C1886.72 101.052 1901.46 76.722 1895.54 52.6274Z" fill="#F23849"/>
<path d="M1555.21 460.371L1584.74 460.989L1570.51 435.109L1555.21 460.371Z" fill="#F23849"/>
<path fill-rule="evenodd" clip-rule="evenodd" d="M1842.79 355.735L1798.71 342.929L1809.66 387.503L1842.79 355.735ZM1831.14 358.597L1807.02 351.59L1813.01 375.98L1831.14 358.597Z" fill="#F23849"/>
</svg>
