<?xml version="1.0" encoding="utf-8"?>
<svg width="1920" height="655" viewBox="0 0 1852 655" fill="none" xmlns="http://www.w3.org/2000/svg">
<rect width="3.02842" height="44.2149" transform="matrix(0.866026 -0.5 -0.5 -0.866026 507.484 467.779)" fill="#F23849"/>
<path d="M1637.5 622.5C1637.5 637.412 1625.41 649.5 1610.5 649.5C1595.59 649.5 1583.5 637.412 1583.5 622.5C1583.5 607.588 1595.59 595.5 1610.5 595.5C1625.41 595.5 1637.5 607.588 1637.5 622.5Z" stroke="#FCBD56" stroke-width="11"/>
<path d="M1271.25 159.577L1253.5 190.327L1235.75 159.577L1271.25 159.577Z" stroke="#F23849" stroke-width="6"/>
<circle r="4.5" transform="matrix(1 1.74846e-07 1.74846e-07 -1 622.5 476.827)" fill="#F23849"/>
<circle cx="41.3139" cy="164.508" r="32.8344" transform="rotate(-166.963 41.3139 164.508)" stroke="#F23849" stroke-width="3"/>
<path d="M234.899 419.853L257.743 456.464L214.616 457.942L234.899 419.853Z" fill="#F23849"/>
<path d="M265.186 108.776L289.419 82.8233L299.778 116.786L265.186 108.776Z" stroke="#FCBD56" stroke-width="6"/>
<circle cx="1739.77" cy="204.338" r="49.6225" transform="rotate(-103.799 1739.77 204.338)" stroke="#F23849" stroke-width="11"/>
<path d="M1532.61 104.359L1552.61 104.779L1542.97 87.2524L1532.61 104.359Z" fill="#FCBD56"/>
<path d="M1589.44 375.086L1609.31 380.859L1594.38 395.179L1589.44 375.086Z" stroke="#F23849" stroke-width="6"/>
</svg>
