<?xml version="1.0" encoding="utf-8"?>
<svg width="183" height="38" viewBox="0 0 183 38" fill="none" xmlns="http://www.w3.org/2000/svg">
<path d="M63.3545 31H59.0103V9.29395H74.2075V13.6382H63.3545V17.9824H69.8633V22.3267H63.3545V31Z" fill="white"/>
<path d="M81.792 31H77.4478V9.29395H81.792V31Z" fill="white"/>
<path d="M95.9458 31H91.6167V13.6382H85.0928V9.29395H102.455V13.6382H95.9458V31Z" fill="white"/>
<path d="M123.117 31H118.47L110.1 16.7109V31H105.755V9.29395H110.402L118.773 23.5981V9.29395H123.117V31Z" fill="white"/>
<path d="M143.038 31H128.159V9.29395H143.038V13.6382H132.503V17.9824H139.632V22.3267H132.503V26.6558H143.038V31Z" fill="white"/>
<path d="M145.567 15.8027C145.567 14.9046 145.738 14.062 146.082 13.2749C146.425 12.4878 146.889 11.8016 147.474 11.2163C148.069 10.6209 148.761 10.1517 149.548 9.80859C150.335 9.46549 151.178 9.29395 152.076 9.29395H162.036V13.6382H152.076C151.773 13.6382 151.49 13.6937 151.228 13.8047C150.966 13.9157 150.734 14.0721 150.532 14.2739C150.34 14.4657 150.189 14.6927 150.078 14.9551C149.967 15.2174 149.911 15.5 149.911 15.8027C149.911 16.1055 149.967 16.3931 150.078 16.6655C150.189 16.9279 150.34 17.16 150.532 17.3618C150.734 17.5535 150.966 17.7049 151.228 17.8159C151.49 17.9269 151.773 17.9824 152.076 17.9824H156.42C157.318 17.9824 158.161 18.154 158.948 18.4971C159.745 18.8301 160.436 19.2943 161.021 19.8896C161.617 20.4749 162.081 21.1662 162.414 21.9634C162.757 22.7505 162.929 23.5931 162.929 24.4912C162.929 25.3893 162.757 26.2319 162.414 27.019C162.081 27.8062 161.617 28.4974 161.021 29.0928C160.436 29.6781 159.745 30.1423 158.948 30.4854C158.161 30.8285 157.318 31 156.42 31H146.778V26.6558H156.42C156.723 26.6558 157.005 26.6003 157.268 26.4893C157.53 26.3783 157.757 26.2269 157.949 26.0352C158.151 25.8333 158.307 25.6012 158.418 25.3389C158.529 25.0765 158.584 24.7939 158.584 24.4912C158.584 24.1885 158.529 23.9059 158.418 23.6436C158.307 23.3812 158.151 23.1541 157.949 22.9624C157.757 22.7606 157.53 22.6042 157.268 22.4932C157.005 22.3822 156.723 22.3267 156.42 22.3267H152.076C151.178 22.3267 150.335 22.1551 149.548 21.812C148.761 21.4689 148.069 21.0047 147.474 20.4194C146.889 19.8241 146.425 19.1328 146.082 18.3457C145.738 17.5485 145.567 16.7008 145.567 15.8027Z" fill="white"/>
<path d="M165.518 15.8027C165.518 14.9046 165.69 14.062 166.033 13.2749C166.376 12.4878 166.84 11.8016 167.425 11.2163C168.021 10.6209 168.712 10.1517 169.499 9.80859C170.286 9.46549 171.129 9.29395 172.027 9.29395H181.987V13.6382H172.027C171.724 13.6382 171.442 13.6937 171.179 13.8047C170.917 13.9157 170.685 14.0721 170.483 14.2739C170.291 14.4657 170.14 14.6927 170.029 14.9551C169.918 15.2174 169.862 15.5 169.862 15.8027C169.862 16.1055 169.918 16.3931 170.029 16.6655C170.14 16.9279 170.291 17.16 170.483 17.3618C170.685 17.5535 170.917 17.7049 171.179 17.8159C171.442 17.9269 171.724 17.9824 172.027 17.9824H176.371C177.269 17.9824 178.112 18.154 178.899 18.4971C179.696 18.8301 180.387 19.2943 180.973 19.8896C181.568 20.4749 182.032 21.1662 182.365 21.9634C182.708 22.7505 182.88 23.5931 182.88 24.4912C182.88 25.3893 182.708 26.2319 182.365 27.019C182.032 27.8062 181.568 28.4974 180.973 29.0928C180.387 29.6781 179.696 30.1423 178.899 30.4854C178.112 30.8285 177.269 31 176.371 31H166.729V26.6558H176.371C176.674 26.6558 176.956 26.6003 177.219 26.4893C177.481 26.3783 177.708 26.2269 177.9 26.0352C178.102 25.8333 178.258 25.6012 178.369 25.3389C178.48 25.0765 178.536 24.7939 178.536 24.4912C178.536 24.1885 178.48 23.9059 178.369 23.6436C178.258 23.3812 178.102 23.1541 177.9 22.9624C177.708 22.7606 177.481 22.6042 177.219 22.4932C176.956 22.3822 176.674 22.3267 176.371 22.3267H172.027C171.129 22.3267 170.286 22.1551 169.499 21.812C168.712 21.4689 168.021 21.0047 167.425 20.4194C166.84 19.8241 166.376 19.1328 166.033 18.3457C165.69 17.5485 165.518 16.7008 165.518 15.8027Z" fill="white"/>
<path d="M38.9971 19C38.9971 29.4934 30.4905 38 19.9971 38C9.50366 38 0.99707 29.4934 0.99707 19C0.99707 8.50659 9.50366 0 19.9971 0C30.4905 0 38.9971 8.50659 38.9971 19Z" fill="#F23849"/>
<path d="M18.3037 27H15.3608V12.2959H25.6558V15.2388H18.3037V18.1816H22.7129V21.1245H18.3037V27Z" fill="white"/>
</svg>
