<?xml version="1.0" encoding="utf-8"?>
<svg width="55" height="55" viewBox="0 0 55 55" fill="none" xmlns="http://www.w3.org/2000/svg">
<circle r="2.5" transform="matrix(1 0 0 -1 2.5 2.5)" fill="#DADADA"/>
<circle r="2.5" transform="matrix(1 0 0 -1 12.5 2.5)" fill="#C0C0C0"/>
<circle r="2.5" transform="matrix(1 0 0 -1 22.5 2.5)" fill="#C0C0C0"/>
<circle r="2.5" transform="matrix(1 0 0 -1 32.5 2.5)" fill="#C0C0C0"/>
<circle r="2.5" transform="matrix(1 0 0 -1 42.5 2.5)" fill="#C0C0C0"/>
<circle r="2.5" transform="matrix(1 0 0 -1 52.5 2.5)" fill="#C0C0C0"/>
<circle r="2.5" transform="matrix(1 0 0 -1 2.5 12.5)" fill="#C0C0C0"/>
<circle r="2.5" transform="matrix(1 0 0 -1 12.5 12.5)" fill="#C0C0C0"/>
<circle r="2.5" transform="matrix(1 0 0 -1 22.5 12.5)" fill="#C0C0C0"/>
<circle r="2.5" transform="matrix(1 0 0 -1 32.5 12.5)" fill="#C0C0C0"/>
<circle r="2.5" transform="matrix(1 0 0 -1 42.5 12.5)" fill="#C0C0C0"/>
<circle r="2.5" transform="matrix(1 0 0 -1 52.5 12.5)" fill="#C0C0C0"/>
<circle r="2.5" transform="matrix(1 0 0 -1 2.5 22.5)" fill="#C0C0C0"/>
<circle r="2.5" transform="matrix(1 0 0 -1 12.5 22.5)" fill="#C0C0C0"/>
<circle r="2.5" transform="matrix(1 0 0 -1 22.5 22.5)" fill="#C0C0C0"/>
<circle r="2.5" transform="matrix(1 0 0 -1 32.5 22.5)" fill="#C0C0C0"/>
<circle r="2.5" transform="matrix(1 0 0 -1 42.5 22.5)" fill="#C0C0C0"/>
<circle r="2.5" transform="matrix(1 0 0 -1 52.5 22.5)" fill="#C0C0C0"/>
<circle r="2.5" transform="matrix(1 0 0 -1 2.5 32.5)" fill="#C0C0C0"/>
<circle r="2.5" transform="matrix(1 0 0 -1 12.5 32.5)" fill="#C0C0C0"/>
<circle r="2.5" transform="matrix(1 0 0 -1 22.5 32.5)" fill="#C0C0C0"/>
<circle r="2.5" transform="matrix(1 0 0 -1 32.5 32.5)" fill="#C0C0C0"/>
<circle r="2.5" transform="matrix(1 0 0 -1 42.5 32.5)" fill="#C0C0C0"/>
<circle r="2.5" transform="matrix(1 0 0 -1 52.5 32.5)" fill="#C0C0C0"/>
<circle r="2.5" transform="matrix(1 0 0 -1 2.5 42.5)" fill="#C0C0C0"/>
<circle r="2.5" transform="matrix(1 0 0 -1 12.5 42.5)" fill="#C0C0C0"/>
<circle r="2.5" transform="matrix(1 0 0 -1 22.5 42.5)" fill="#C0C0C0"/>
<circle r="2.5" transform="matrix(1 0 0 -1 32.5 42.5)" fill="#C0C0C0"/>
<circle r="2.5" transform="matrix(1 0 0 -1 42.5 42.5)" fill="#C0C0C0"/>
<circle r="2.5" transform="matrix(1 0 0 -1 52.5 42.5)" fill="#C0C0C0"/>
<circle r="2.5" transform="matrix(1 0 0 -1 2.5 52.5)" fill="#C0C0C0"/>
<circle r="2.5" transform="matrix(1 0 0 -1 12.5 52.5)" fill="#C0C0C0"/>
<circle r="2.5" transform="matrix(1 0 0 -1 22.5 52.5)" fill="#C0C0C0"/>
<circle r="2.5" transform="matrix(1 0 0 -1 32.5 52.5)" fill="#C0C0C0"/>
<circle r="2.5" transform="matrix(1 0 0 -1 42.5 52.5)" fill="#C0C0C0"/>
<circle r="2.5" transform="matrix(1 0 0 -1 52.5 52.5)" fill="#C0C0C0"/>
</svg>
