<?xml version="1.0" encoding="utf-8"?>
<svg width="52" height="48" viewBox="0 0 52 48" fill="none" xmlns="http://www.w3.org/2000/svg">
<g filter="url(#filter0_d)">
<path d="M45.034 16.7595L45.0341 16.7594L40.1329 13.5101V2.64938C40.1329 2.2983 39.8483 2.01367 39.4972 2.01367H12.7561C12.405 2.01367 12.1204 2.2983 12.1204 2.64938V13.5109L7.22 16.7594L7.22009 16.7596C7.0487 16.8734 6.93555 17.068 6.93555 17.2892V36.9757C6.93555 37.3268 7.22017 37.6114 7.57125 37.6114H44.6828C45.0339 37.6114 45.3185 37.3268 45.3185 36.9757V17.2892C45.3185 17.068 45.2054 16.8734 45.034 16.7595ZM12.1204 18.9827L10.1264 17.9249H12.1204V18.9827ZM8.20696 18.346L22.826 26.1008L8.20696 35.7912V18.346ZM26.1268 25.438L42.5735 36.34H9.68018L26.1268 25.438ZM29.4278 26.1009L44.047 18.346V35.7915L29.4278 26.1009ZM40.1329 17.9249H42.1278L40.1329 18.9831V17.9249ZM42.5735 16.6535H40.1329V15.0354L42.5735 16.6535ZM38.8615 3.28508V19.6575L28.2217 25.3014L26.478 24.1455C26.2651 24.0044 25.9884 24.0044 25.7755 24.1455L24.032 25.3012L13.3918 19.6571V3.28508H38.8615ZM12.1204 16.6535H9.68077L12.1204 15.0363V16.6535Z" fill="#F23849"/>
<path d="M26.1263 18.732H31.1911C31.5421 18.732 31.8268 18.4474 31.8268 18.0963C31.8268 17.7452 31.5421 17.4606 31.1911 17.4606H26.1263C23.6841 17.4606 21.6972 15.4737 21.6972 13.0315V12.8439C21.6972 10.4017 23.6841 8.41487 26.1263 8.41487C28.5685 8.41487 30.5554 10.4017 30.5554 12.8439V13.3129C30.5554 13.8416 30.1253 14.2717 29.5965 14.2717C29.0678 14.2717 28.6377 13.8417 28.6377 13.3129V12.4219C28.6377 10.9078 27.4059 9.67585 25.8917 9.67585C24.3776 9.67585 23.1457 10.9077 23.1457 12.4219C23.1457 13.9361 24.3776 15.1679 25.8917 15.1679C26.5841 15.1679 27.2171 14.9098 27.7005 14.4854C28.0942 15.1197 28.7967 15.5431 29.5965 15.5431C30.8262 15.5431 31.8268 14.5426 31.8268 13.3128V12.8439C31.8268 9.7006 29.2695 7.14337 26.1263 7.14337C22.983 7.14337 20.4258 9.7006 20.4258 12.8439V13.0314C20.4258 16.1748 22.983 18.732 26.1263 18.732ZM25.8917 13.8965C25.0786 13.8965 24.4172 13.235 24.4172 12.4219C24.4172 11.6088 25.0787 10.9473 25.8917 10.9473C26.7048 10.9473 27.3663 11.6088 27.3663 12.4219C27.3663 13.235 26.7048 13.8965 25.8917 13.8965Z" fill="#F23849"/>
</g>
<defs>
<filter id="filter0_d" x="0.935547" y="0.0136719" width="50.383" height="47.5978" filterUnits="userSpaceOnUse" color-interpolation-filters="sRGB">
<feFlood flood-opacity="0" result="BackgroundImageFix"/>
<feColorMatrix in="SourceAlpha" type="matrix" values="0 0 0 0 0 0 0 0 0 0 0 0 0 0 0 0 0 0 127 0"/>
<feOffset dy="4"/>
<feGaussianBlur stdDeviation="3"/>
<feColorMatrix type="matrix" values="0 0 0 0 0.94902 0 0 0 0 0.219608 0 0 0 0 0.286275 0 0 0 0.2 0"/>
<feBlend mode="normal" in2="BackgroundImageFix" result="effect1_dropShadow"/>
<feBlend mode="normal" in="SourceGraphic" in2="effect1_dropShadow" result="shape"/>
</filter>
</defs>
</svg>
