<?xml version="1.0" encoding="utf-8"?>
<svg width="56" height="49" viewBox="0 0 56 49" fill="none" xmlns="http://www.w3.org/2000/svg">
<g filter="url(#filter0_d)">
<path d="M46.7809 2.58667H42.6885C42.3325 2.58667 42.0436 2.87557 42.0436 3.23155C42.0436 3.58786 42.3325 3.87676 42.6885 3.87676H46.7809C47.5822 3.87676 48.234 4.52861 48.234 5.32989V15.1744C48.234 15.9757 47.5822 16.6275 46.7809 16.6275H31.6987C31.5276 16.6275 31.3636 16.6956 31.2424 16.8165L27.5275 20.5313V17.2727C27.5275 16.9164 27.239 16.6275 26.8827 16.6275H25.6544C24.8531 16.6275 24.2012 15.9757 24.2012 15.1744V5.32989C24.2012 4.52861 24.8531 3.87676 25.6544 3.87676H40.5383C40.8946 3.87676 41.1835 3.58786 41.1835 3.23155C41.1835 2.87557 40.8946 2.58667 40.5383 2.58667H25.6544C24.1418 2.58667 22.9111 3.81732 22.9111 5.32989V15.1744C22.9111 16.687 24.1418 17.9176 25.6544 17.9176H26.2378V22.0884C26.2378 22.3494 26.3949 22.5845 26.6359 22.6845C26.7156 22.7173 26.7993 22.7336 26.8827 22.7336C27.0504 22.7336 27.2154 22.6678 27.3389 22.5446L31.9656 17.9176H46.7809C48.2934 17.9176 49.5241 16.687 49.5241 15.1744V5.32989C49.5241 3.81732 48.2934 2.58667 46.7809 2.58667Z" fill="#F23849"/>
<path d="M29.3166 10.8603C30.0813 10.337 31.0334 9.68512 31.0334 8.5707C31.0334 8.04204 30.8192 7.59143 30.4144 7.26766C30.0564 6.98109 29.563 6.81671 29.0606 6.81671C28.1328 6.81671 27.1468 7.38721 27.1468 8.44418C27.1468 8.9104 27.3431 9.13721 27.7469 9.13721C28.2025 9.13721 28.4482 8.88417 28.4482 8.64641C28.4482 8.25191 28.6744 8.02544 29.0689 8.02544C29.5334 8.02544 29.6981 8.3419 29.6981 8.61254C29.6981 9.11363 29.1074 9.54731 28.4818 10.0066C27.7758 10.5246 27.0459 11.0605 27.0459 11.7619V12.5788C27.0459 12.8321 27.3912 12.9938 27.629 12.9938H30.6269C30.8434 12.9938 31.0334 12.7172 31.0334 12.4018C31.0334 12.0956 30.8434 11.827 30.6269 11.827H28.4313V11.7619C28.4313 11.4663 28.8417 11.1857 29.3166 10.8603Z" fill="#F23849"/>
<path d="M34.6023 12.9935C35.0609 12.9935 35.2698 12.7787 35.2698 12.5788V11.6968H35.6211C35.8306 11.6968 36.0362 11.3913 36.0362 11.0798C36.0362 10.6558 35.821 10.4628 35.6211 10.4628H35.2698V9.88403C35.2698 9.69674 35.0951 9.47758 34.6023 9.47758C34.1095 9.47758 33.9349 9.69641 33.9349 9.88403V10.4628H33.2388L34.7215 7.48849C34.7441 7.43635 34.7647 7.38056 34.7647 7.32411C34.7647 7.18664 34.6767 7.0548 34.5166 6.95286C34.3861 6.87017 34.2218 6.81671 34.0972 6.81671C33.8522 6.81671 33.6546 6.93825 33.5404 7.15941L31.5951 10.9735C31.5353 11.0831 31.5264 11.1821 31.5264 11.2312C31.5264 11.5098 31.707 11.6968 31.9753 11.6968H33.9349V12.5784C33.9349 12.7787 34.1437 12.9935 34.6023 12.9935Z" fill="#F23849"/>
<path d="M39.6366 6.68803L36.6812 12.7589C36.6536 12.814 36.6377 12.8738 36.6377 12.9236C36.6377 13.1444 36.8316 13.3809 37.1202 13.3809C37.2895 13.3809 37.4493 13.2915 37.5087 13.1644L40.4728 7.09316C40.5016 7.03538 40.5076 6.97162 40.5076 6.92845C40.5076 6.65483 40.2453 6.47119 39.9999 6.47119C39.8339 6.47119 39.7014 6.55022 39.6366 6.68803Z" fill="#F23849"/>
<path d="M41.8945 8.95191C42.2611 8.95191 42.5706 8.76197 42.5706 8.53683V7.98327H44.0563V8.55907L41.9862 12.1441C41.9446 12.2191 41.9261 12.2882 41.9261 12.3682C41.9261 12.7664 42.371 13.044 42.7705 13.044C42.9604 13.044 43.085 12.9846 43.1504 12.8614L45.1209 9.08906C45.1843 8.97018 45.3915 8.56007 45.3915 8.28412V7.23146C45.3915 7.05049 45.1086 6.81671 44.8081 6.81671H41.8188C41.5246 6.81671 41.2354 7.02226 41.2354 7.23146V8.53683C41.2354 8.76562 41.5312 8.95191 41.8945 8.95191Z" fill="#F23849"/>
<path d="M32.6735 24.981C32.3381 24.6456 31.8918 24.461 31.4172 24.461C30.9427 24.461 30.4964 24.6456 30.161 24.981L26.2184 28.9237C24.6484 28.1031 23.2826 27.3208 21.7564 26.0337C21.4841 25.8042 21.0773 25.8387 20.8475 26.111C20.6181 26.3833 20.6526 26.7901 20.9249 27.0199C22.6875 28.5059 24.2217 29.3447 26.0441 30.2868C26.2934 30.4156 26.5976 30.3685 26.7962 30.1699L28.9174 28.049L35.9104 35.042C33.6517 36.9809 30.4529 37.656 26.8211 36.9421C22.7367 36.1388 18.4145 33.6241 14.6508 29.8604C10.8872 26.0968 8.37208 21.7742 7.56881 17.6898C6.85487 14.0577 7.52996 10.8588 9.46857 8.60046L16.4626 15.5941L14.3407 17.7157C14.1421 17.9143 14.0949 18.2188 14.2241 18.4682C15.5085 20.9517 16.5449 22.7741 19.141 25.3705C19.3931 25.6222 19.8015 25.6222 20.0532 25.3705C20.3053 25.1185 20.3053 24.7101 20.0532 24.4583C17.7258 22.1309 16.7505 20.519 15.5872 18.2938L19.5302 14.3505C19.8659 14.0152 20.0506 13.5689 20.0506 13.0943C20.0506 12.6198 19.8659 12.1735 19.5302 11.8381L13.207 5.51488C12.8716 5.17916 12.4253 4.9942 11.9508 4.9942C11.4763 4.9942 11.03 5.17916 10.6946 5.51455L8.99471 7.21441C6.4079 9.80121 5.45188 13.61 6.30297 17.9385C7.15505 22.2717 9.79566 26.8296 13.7386 30.7726C17.6813 34.7152 22.2392 37.3559 26.5724 38.2076C27.6038 38.4105 28.6053 38.5108 29.5683 38.5104C32.6462 38.5104 35.326 37.4864 37.2965 35.5159L38.996 33.8163C39.3317 33.4806 39.5164 33.0347 39.5164 32.5601C39.5164 32.0856 39.3317 31.6393 38.996 31.3039L32.6735 24.981ZM11.6068 6.42674C11.6984 6.33509 11.8206 6.28428 11.9508 6.28428C12.0809 6.28428 12.2031 6.33476 12.2948 6.42674L18.6184 12.7503C18.71 12.842 18.7608 12.9642 18.7608 13.0943C18.7608 13.2245 18.71 13.3467 18.6184 13.4383L17.3748 14.6819L10.3632 7.67033L11.6068 6.42674ZM38.0842 32.9042L36.8402 34.1477L29.8296 27.1368L31.0732 25.8932C31.1649 25.8012 31.2874 25.7508 31.4172 25.7508C31.5471 25.7508 31.6693 25.8012 31.7613 25.8932L38.0842 32.2158C38.2738 32.4057 38.2738 32.7145 38.0842 32.9042Z" fill="#F23849"/>
</g>
<defs>
<filter id="filter0_d" x="0" y="0.58667" width="55.5241" height="47.9238" filterUnits="userSpaceOnUse" color-interpolation-filters="sRGB">
<feFlood flood-opacity="0" result="BackgroundImageFix"/>
<feColorMatrix in="SourceAlpha" type="matrix" values="0 0 0 0 0 0 0 0 0 0 0 0 0 0 0 0 0 0 127 0"/>
<feOffset dy="4"/>
<feGaussianBlur stdDeviation="3"/>
<feColorMatrix type="matrix" values="0 0 0 0 0.94902 0 0 0 0 0.219608 0 0 0 0 0.286275 0 0 0 0.2 0"/>
<feBlend mode="normal" in2="BackgroundImageFix" result="effect1_dropShadow"/>
<feBlend mode="normal" in="SourceGraphic" in2="effect1_dropShadow" result="shape"/>
</filter>
</defs>
</svg>
