<?xml version="1.0" encoding="utf-8"?>
<svg width="49" height="49" viewBox="0 0 49 49" fill="none" xmlns="http://www.w3.org/2000/svg">
<g filter="url(#filter0_d)">
<path d="M28.5745 20.7147C28.1873 20.7147 27.873 21.029 27.873 21.4161C27.873 21.8033 28.1873 22.1175 28.5745 22.1175C28.9616 22.1175 29.2759 21.8033 29.2759 21.4161C29.2759 21.029 28.9616 20.7147 28.5745 20.7147Z" fill="#F23849"/>
<path d="M13.5763 28.4151L6.56217 37.2529C6.39477 37.4636 6.36298 37.7516 6.47998 37.9938C6.59697 38.2362 6.84246 38.3902 7.11152 38.3902H41.6209C41.8899 38.3902 42.1354 38.2362 42.2524 37.9938C42.3697 37.7516 42.3376 37.4636 42.1702 37.2529L35.1561 28.4151C35.0233 28.2474 34.8208 28.1496 34.6068 28.1496H28.4626L33.7081 19.9223C34.9386 18.0776 35.5888 15.9262 35.5888 13.7006C35.5888 7.51256 30.5545 2.47803 24.3662 2.47803C18.1779 2.47803 13.1436 7.51256 13.1436 13.7006C13.1436 15.9262 13.7938 18.0773 15.0243 19.9223L20.2698 28.1496H14.1256C13.9116 28.1496 13.7094 28.2474 13.5763 28.4151ZM10.9575 33.9713H15.1986L12.805 36.9874H8.56366L10.9575 33.9713ZM21.1644 29.5525L23.0872 32.5685H18.1028L20.4967 29.5525H21.1644ZM27.5683 29.5525H28.236L30.6296 32.5685H25.6455L27.5683 29.5525ZM31.7431 33.9713L34.1366 36.9874H14.5958L16.9896 33.9713H31.7431ZM35.9277 36.9874L33.5339 33.9713H37.7752L40.1688 36.9874H35.9277ZM36.6617 32.5685H32.4206L30.0268 29.5525H34.2681L36.6617 32.5685ZM16.1953 19.1497C15.1166 17.5348 14.5465 15.6506 14.5465 13.7006C14.5465 8.28603 18.9517 3.88085 24.3662 3.88085C29.7808 3.88085 34.1859 8.28603 34.1859 13.7006C34.1859 15.6506 33.6158 17.5348 32.5374 19.1497C32.5343 19.1538 32.5319 19.1579 32.5291 19.162C32.0686 19.8845 24.721 31.409 24.3662 31.9652C23.4738 30.5654 17.1121 20.5873 16.2033 19.162C16.2008 19.1579 16.1981 19.1538 16.1953 19.1497ZM18.7056 29.5525L16.312 32.5685H12.0707L14.4645 29.5525H18.7056Z" fill="#F23849"/>
<path d="M24.3666 20.7148C28.2173 20.7148 31.3807 17.5965 31.3807 13.7007C31.3807 9.83307 28.2343 6.68658 24.3666 6.68658C20.499 6.68658 17.3525 9.83307 17.3525 13.7007C17.3525 17.5976 20.5171 20.7148 24.3666 20.7148ZM24.3666 8.0894C27.4608 8.0894 29.9779 10.6065 29.9779 13.7007C29.9779 16.8236 27.4405 19.312 24.3666 19.312C21.2919 19.312 18.7554 16.8236 18.7554 13.7007C18.7554 10.6065 21.2725 8.0894 24.3666 8.0894Z" fill="#F23849"/>
<path d="M27.3211 23.1083C26.9896 22.9082 26.5583 23.0151 26.3583 23.3469L23.7659 27.648C23.5658 27.9798 23.6727 28.4108 24.0045 28.6108C24.3377 28.8116 24.7681 28.7026 24.9673 28.3721L27.5598 24.0711C27.7598 23.7393 27.6529 23.3083 27.3211 23.1083Z" fill="#F23849"/>
</g>
<defs>
<filter id="filter0_d" x="0.410156" y="0.478027" width="47.9122" height="47.9122" filterUnits="userSpaceOnUse" color-interpolation-filters="sRGB">
<feFlood flood-opacity="0" result="BackgroundImageFix"/>
<feColorMatrix in="SourceAlpha" type="matrix" values="0 0 0 0 0 0 0 0 0 0 0 0 0 0 0 0 0 0 127 0"/>
<feOffset dy="4"/>
<feGaussianBlur stdDeviation="3"/>
<feColorMatrix type="matrix" values="0 0 0 0 0.94902 0 0 0 0 0.219608 0 0 0 0 0.286275 0 0 0 0.2 0"/>
<feBlend mode="normal" in2="BackgroundImageFix" result="effect1_dropShadow"/>
<feBlend mode="normal" in="SourceGraphic" in2="effect1_dropShadow" result="shape"/>
</filter>
</defs>
</svg>
