<?xml version="1.0" encoding="utf-8"?>
<svg width="112" height="70" viewBox="0 0 112 70" fill="none" xmlns="http://www.w3.org/2000/svg">
<path d="M4.35791 70H0.0136719V48.2939H15.2109V52.6382H4.35791V56.9824H10.8667V61.3267H4.35791V70Z" fill="white"/>
<path d="M22.7954 70H18.4512V48.2939H22.7954V70Z" fill="white"/>
<path d="M36.9492 70H32.6201V52.6382H26.0962V48.2939H43.458V52.6382H36.9492V70Z" fill="white"/>
<path d="M68.0562 70H63.7271V54.5C63.7271 54.1973 63.6665 53.9147 63.5454 53.6523C63.4344 53.39 63.278 53.1629 63.0762 52.9712C62.8844 52.7694 62.6574 52.613 62.395 52.502C62.1326 52.391 61.8501 52.3354 61.5474 52.3354C61.2446 52.3354 60.9621 52.391 60.6997 52.502C60.4373 52.613 60.2052 52.7694 60.0034 52.9712C59.8117 53.1629 59.6603 53.39 59.5493 53.6523C59.4383 53.9147 59.3828 54.1973 59.3828 54.5V70H55.0386V54.5C55.0386 54.1973 54.9831 53.9147 54.8721 53.6523C54.7611 53.39 54.6047 53.1629 54.4028 52.9712C54.2111 52.7694 53.984 52.613 53.7217 52.502C53.4593 52.391 53.1768 52.3354 52.874 52.3354C52.5713 52.3354 52.2887 52.391 52.0264 52.502C51.764 52.613 51.5319 52.7694 51.3301 52.9712C51.1383 53.1629 50.987 53.39 50.876 53.6523C50.765 53.9147 50.7095 54.1973 50.7095 54.5V70H46.3652V54.5C46.3652 53.6019 46.5317 52.7593 46.8647 51.9722C47.2078 51.175 47.672 50.4837 48.2573 49.8984C48.8527 49.3031 49.5439 48.8389 50.3311 48.5059C51.1283 48.1628 51.9759 47.9912 52.874 47.9912C53.6813 47.9912 54.4583 48.1375 55.2051 48.4302C55.9518 48.7127 56.6229 49.1265 57.2183 49.6714C57.8136 49.1265 58.4797 48.7127 59.2163 48.4302C59.9631 48.1375 60.7401 47.9912 61.5474 47.9912C62.4455 47.9912 63.2881 48.1628 64.0752 48.5059C64.8724 48.8389 65.5636 49.3031 66.1489 49.8984C66.7443 50.4837 67.2085 51.175 67.5415 51.9722C67.8846 52.7593 68.0562 53.6019 68.0562 54.5V70Z" fill="white"/>
<path d="M85.7217 61.3267V56.9824C85.7217 56.387 85.6056 55.827 85.3735 55.3022C85.1515 54.7674 84.8438 54.3032 84.4502 53.9097C84.0566 53.5161 83.5924 53.2083 83.0576 52.9863C82.5329 52.7542 81.9728 52.6382 81.3774 52.6382C80.7821 52.6382 80.217 52.7542 79.6821 52.9863C79.1574 53.2083 78.6982 53.5161 78.3047 53.9097C77.9111 54.3032 77.5983 54.7674 77.3662 55.3022C77.1442 55.827 77.0332 56.387 77.0332 56.9824V61.3267H85.7217ZM90.0659 70H85.7217V65.6558H77.0332V70H72.7041V56.9824C72.7041 55.7816 72.9312 54.6564 73.3853 53.6069C73.8394 52.5474 74.4549 51.624 75.2319 50.8369C76.019 50.0498 76.9373 49.4292 77.9868 48.9751C79.0464 48.521 80.1766 48.2939 81.3774 48.2939C82.5783 48.2939 83.7035 48.521 84.7529 48.9751C85.8125 49.4292 86.7358 50.0498 87.5229 50.8369C88.3101 51.624 88.9307 52.5474 89.3848 53.6069C89.8389 54.6564 90.0659 55.7816 90.0659 56.9824V70Z" fill="white"/>
<path d="M111.697 70H106.43L102.252 62.9917L98.0591 70H92.8218L99.4819 59.147L92.8218 48.2939H98.0591L102.252 55.3022L106.43 48.2939H111.697L105.037 59.147L111.697 70Z" fill="white"/>
<path d="M74 19C74 29.4934 65.4934 38 55 38C44.5066 38 36 29.4934 36 19C36 8.50656 44.5066 -3.05176e-05 55 -3.05176e-05C65.4934 -3.05176e-05 74 8.50656 74 19Z" fill="#F23849"/>
<path d="M53.3062 26H50.3633V11.2959H60.6582V14.2387H53.3062V17.1816H57.7153V20.1245H53.3062V26Z" fill="white"/>
</svg>
