<?xml version="1.0" encoding="utf-8"?>
<svg width="159" height="38" viewBox="0 0 159 38" fill="none" xmlns="http://www.w3.org/2000/svg">
<path d="M62.3574 31H58.0132V9.29395H73.2104V13.6382H62.3574V17.9824H68.8662V22.3267H62.3574V31Z" fill="white"/>
<path d="M80.8857 10.3838C80.8857 10.7673 80.8101 11.1255 80.6587 11.4585C80.5174 11.7915 80.3206 12.0841 80.0684 12.3364C79.8161 12.5786 79.5184 12.7754 79.1753 12.9268C78.8423 13.068 78.484 13.1387 78.1006 13.1387C77.7171 13.1387 77.3538 13.068 77.0107 12.9268C76.6777 12.7754 76.3851 12.5786 76.1328 12.3364C75.8906 12.0841 75.6938 11.7915 75.5425 11.4585C75.4012 11.1255 75.3306 10.7673 75.3306 10.3838C75.3306 10.0104 75.4012 9.65723 75.5425 9.32422C75.6938 8.98112 75.8906 8.68848 76.1328 8.44629C76.3851 8.19401 76.6777 7.99723 77.0107 7.85596C77.3538 7.70459 77.7171 7.62891 78.1006 7.62891C78.484 7.62891 78.8423 7.70459 79.1753 7.85596C79.5184 7.99723 79.8161 8.19401 80.0684 8.44629C80.3206 8.68848 80.5174 8.98112 80.6587 9.32422C80.8101 9.65723 80.8857 10.0104 80.8857 10.3838ZM80.1743 31H76.0117V14.7886H80.1743V31Z" fill="white"/>
<path d="M92.4663 31C91.4673 31 90.5288 30.8133 89.6509 30.4399C88.7729 30.0565 88.001 29.5368 87.335 28.8809C86.679 28.2148 86.1593 27.4429 85.7759 26.5649C85.4025 25.687 85.2158 24.7485 85.2158 23.7495V18.936H83.2026V14.8188H85.2158V8.34033H89.333V14.8188H95.5996V18.936H89.333V23.7495C89.333 24.1834 89.4137 24.5921 89.5752 24.9756C89.7367 25.349 89.9587 25.6769 90.2412 25.9595C90.5238 26.242 90.8568 26.4691 91.2402 26.6406C91.6237 26.8021 92.0324 26.8828 92.4663 26.8828H95.5996V31H92.4663Z" fill="white"/>
<path d="M119.547 31H115.43V20.707C115.43 20.4245 115.374 20.1571 115.263 19.9048C115.162 19.6525 115.016 19.4305 114.824 19.2388C114.632 19.047 114.41 18.9007 114.158 18.7998C113.906 18.6888 113.639 18.6333 113.356 18.6333C113.073 18.6333 112.806 18.6888 112.554 18.7998C112.312 18.9007 112.095 19.047 111.903 19.2388C111.721 19.4305 111.575 19.6525 111.464 19.9048C111.363 20.1571 111.312 20.4245 111.312 20.707V31H107.18V20.707C107.18 20.4245 107.125 20.1571 107.014 19.9048C106.913 19.6525 106.766 19.4305 106.575 19.2388C106.383 19.047 106.161 18.9007 105.909 18.7998C105.656 18.6888 105.389 18.6333 105.106 18.6333C104.824 18.6333 104.556 18.6888 104.304 18.7998C104.062 18.9007 103.845 19.047 103.653 19.2388C103.472 19.4305 103.325 19.6525 103.214 19.9048C103.113 20.1571 103.063 20.4245 103.063 20.707V31H98.9307V14.7886H99.9297L101.05 16.0298C101.625 15.5454 102.256 15.172 102.942 14.9097C103.638 14.6372 104.36 14.501 105.106 14.501C105.863 14.501 106.6 14.6423 107.316 14.9248C108.043 15.2074 108.679 15.6968 109.224 16.3931C109.476 16.05 109.764 15.7573 110.086 15.5151C110.409 15.2729 110.747 15.0762 111.101 14.9248C111.464 14.7734 111.837 14.6675 112.221 14.6069C112.604 14.5363 112.983 14.501 113.356 14.501C114.214 14.501 115.016 14.6624 115.763 14.9854C116.52 15.3083 117.175 15.7523 117.73 16.3174C118.296 16.8724 118.74 17.5283 119.062 18.2852C119.385 19.042 119.547 19.8493 119.547 20.707V31Z" fill="white"/>
<path d="M139.271 31H138.272L136.667 28.7749C136.274 29.1281 135.855 29.4611 135.411 29.7739C134.977 30.0767 134.518 30.3441 134.034 30.5762C133.549 30.7982 133.05 30.9748 132.535 31.106C132.031 31.2371 131.516 31.3027 130.991 31.3027C129.851 31.3027 128.776 31.111 127.767 30.7275C126.768 30.3441 125.89 29.7891 125.133 29.0625C124.387 28.3258 123.796 27.4277 123.362 26.3682C122.928 25.3086 122.711 24.1027 122.711 22.7505C122.711 21.4891 122.928 20.3337 123.362 19.2842C123.796 18.2246 124.387 17.3164 125.133 16.5596C125.89 15.8027 126.768 15.2174 127.767 14.8037C128.776 14.3799 129.851 14.168 130.991 14.168C131.516 14.168 132.036 14.2336 132.55 14.3647C133.065 14.4959 133.564 14.6776 134.049 14.9097C134.533 15.1418 134.992 15.4142 135.426 15.7271C135.87 16.0399 136.284 16.3779 136.667 16.7412L138.272 14.8188H139.271V31ZM135.108 22.7505C135.108 22.1854 134.997 21.6405 134.775 21.1157C134.563 20.5809 134.271 20.1117 133.897 19.708C133.524 19.2943 133.085 18.9663 132.581 18.7241C132.086 18.4718 131.556 18.3457 130.991 18.3457C130.426 18.3457 129.891 18.4416 129.387 18.6333C128.892 18.825 128.458 19.1076 128.085 19.481C127.722 19.8543 127.434 20.3185 127.222 20.8735C127.01 21.4185 126.904 22.0441 126.904 22.7505C126.904 23.4569 127.01 24.0876 127.222 24.6426C127.434 25.1875 127.722 25.6466 128.085 26.02C128.458 26.3934 128.892 26.6759 129.387 26.8677C129.891 27.0594 130.426 27.1553 130.991 27.1553C131.556 27.1553 132.086 27.0342 132.581 26.792C133.085 26.5397 133.524 26.2118 133.897 25.8081C134.271 25.3944 134.563 24.9251 134.775 24.4004C134.997 23.8656 135.108 23.3156 135.108 22.7505Z" fill="white"/>
<path d="M158.359 31H153.304L150.08 26.0352L146.825 31H141.77L147.688 22.6899L141.77 14.6978H146.825L150.08 19.3447L153.304 14.6978H158.359L152.426 22.6899L158.359 31Z" fill="white"/>
<path d="M38 19C38 29.4934 29.4934 38 19 38C8.50659 38 0 29.4934 0 19C0 8.50659 8.50659 0 19 0C29.4934 0 38 8.50659 38 19Z" fill="#F23849"/>
<path d="M17.3066 27H14.3638V12.2959H24.6587V15.2388H17.3066V18.1816H21.7158V21.1245H17.3066V27Z" fill="white"/>
</svg>
