<?xml version="1.0" encoding="utf-8"?>
<svg width="126" height="147" viewBox="0 0 126 147" fill="none" xmlns="http://www.w3.org/2000/svg">
<path d="M76.8748 56.0564C76.8748 56.0123 76.8748 56.0123 76.8748 56.0564C76.8303 55.2625 76.7858 53.763 76.7858 53.763C76.7414 52.4398 76.608 48.8233 76.608 48.8233C76.7414 47.3679 77.0526 47.5002 76.1634 46.7945C75.3186 46.0888 75.0963 45.736 74.3849 45.1626C73.718 44.6334 73.5401 44.1924 73.629 43.4426C73.6735 42.6487 73.8958 40.7963 73.8958 40.7963C73.8958 40.7963 74.3404 42.2518 74.4738 42.8692C74.5627 43.3985 75.0518 44.1482 75.0518 44.1482C75.4075 43.9718 75.2741 42.7369 75.2741 42.7369C75.6743 39.0763 74.2515 37.709 73.718 37.4003C73.1844 37.0916 71.1392 35.7243 70.161 35.4597C69.1828 35.1951 67.3599 35.3274 66.115 35.2833C64.87 35.2392 62.1578 35.7243 62.1578 35.7243C61.6688 35.8126 59.5791 35.6361 58.2897 35.4597C57.2226 35.3274 56.3333 35.2833 54.9105 35.1951C53.5322 35.1069 53.5767 34.8864 53.3099 34.7541C53.0431 34.6217 52.9098 33.872 52.7764 33.3868C52.643 32.9017 52.2873 32.1078 52.2873 32.1078C52.8208 31.8432 52.9987 31.2698 52.9987 31.2698C55.6219 31.2698 55.533 28.7118 55.533 28.7118C53.799 28.3589 53.1321 29.4615 52.8208 29.6821C52.5096 29.9026 52.1094 30.2995 52.1094 30.2995C52.3762 30.079 52.9542 28.9764 53.3988 28.3589C53.8879 27.7415 55.7998 27.0358 56.8669 26.7271C57.934 26.4184 57.1781 25.4481 57.1781 25.4481C57.1781 25.1834 57.0892 24.5219 57.0892 24.5219C57.7561 24.4337 57.6672 24.169 57.6672 24.169C57.4004 24.3013 57.0447 24.2572 57.0447 24.2572C57.0003 23.0223 56.689 22.1843 56.3333 21.8315C56.0221 21.4787 55.9332 21.6992 55.9332 21.6992C56.2889 22.0961 56.4667 23.0223 56.5112 23.3752C56.5112 23.728 56.6446 24.3455 56.5556 24.3455C56.4667 24.3455 56.2444 24.3013 56.2444 24.0367C56.2444 23.7721 56.111 23.0664 56.111 22.7577C56.111 22.449 55.6219 21.5228 55.6219 21.5228C55.4885 21.3023 55.5775 20.9935 55.4441 21.2141C55.3107 21.4787 55.5775 22.1843 55.6664 22.8459C55.7553 23.5516 55.9332 24.8747 55.8442 25.5804C55.7109 26.286 55.3107 26.4184 54.955 26.5507C54.5993 26.7271 53.3099 27.4769 53.221 27.6092C53.1321 27.6974 52.9542 27.6533 52.9542 27.6533C52.7319 26.3742 52.3762 24.6542 52.1094 24.4778C51.8871 24.3013 51.9761 24.6542 51.9761 24.6542C52.2873 26.0214 52.4207 28.0502 52.4207 28.0502C52.1984 28.8882 51.4425 29.6821 51.4425 29.6821C51.4425 29.6821 51.398 29.7262 51.1313 29.5498C50.8645 29.3733 50.6867 29.5498 50.5533 29.5498C50.4199 29.5498 50.2865 29.4615 50.0642 29.5056C49.8419 29.5056 49.664 29.4174 49.664 29.4174C49.3973 29.3292 49.086 29.638 49.086 29.638C49.086 29.638 48.7303 28.8 48.5969 28.4913C48.4636 28.1825 48.4191 26.6389 48.4636 26.1096C48.508 25.5363 48.5525 25.1834 48.4191 25.0952C48.2857 25.007 48.1968 25.7127 48.0634 26.1096C47.93 26.5507 47.9745 28.1825 47.9745 28.1825C47.9745 28.1825 47.8856 28.1384 47.7522 28.0943C47.5743 28.0502 46.4628 27.2563 46.4628 27.2563C46.0626 27.0799 45.7514 26.9035 45.5291 26.4625C45.3068 26.0214 45.4401 24.7424 45.4401 24.7424C45.618 24.0367 45.7514 22.9341 45.9292 22.0961C46.1071 21.2582 46.196 21.2141 46.0626 21.1258C45.9292 21.0376 45.9737 21.1699 45.7958 21.6551C45.618 22.1402 45.04 24.1249 44.9955 24.3896C44.9511 24.6542 44.8177 24.6542 44.5954 24.4778C44.3731 24.3013 44.4175 24.1249 44.3286 23.9485C44.1952 23.728 44.1952 23.9926 44.1952 23.9926C44.0618 24.566 44.462 24.8747 44.6398 24.9629C44.8621 25.0511 44.9511 25.6686 44.9066 26.1096C44.9066 26.5066 44.5064 26.4625 44.2841 26.1537C44.0618 25.845 43.9729 25.2716 43.9284 25.007C43.9284 24.7424 43.884 24.5219 44.0618 23.9926C44.2397 23.4634 44.1063 23.5075 44.1063 23.5075C44.0174 23.3752 43.884 23.5957 43.884 23.5957C43.9729 22.6254 44.1507 21.8315 44.462 21.3464C44.7732 20.8612 44.5064 20.9935 44.5064 20.9935C43.4394 21.6551 43.4394 24.566 43.4394 24.566C43.4394 24.566 43.5283 24.4337 43.1281 25.3157C42.7724 26.2419 43.217 26.5066 43.9284 26.9476C44.6398 27.3886 45.8403 27.7415 46.8629 28.403C47.8856 29.0205 48.2412 29.8144 48.2412 29.8144H48.1079L47.5743 29.4615C46.9074 28.8 45.9737 28.7118 45.2623 28.6677C44.5064 28.6236 45.0844 29.5498 45.0844 29.5498C45.7069 31.6668 47.5743 31.2698 47.5743 31.2698C47.7077 31.6668 48.2412 31.9314 48.2412 31.9314C48.1968 32.1078 48.3302 32.637 48.4191 32.9458C48.508 33.2545 48.3746 33.6514 48.3746 33.6514C48.0189 35.5038 48.2857 36.4741 48.2857 36.4741C48.2857 38.4588 49.4417 39.385 49.7085 39.6496C49.9753 39.9142 50.8645 40.9286 50.9534 41.1492C51.0424 41.3256 51.1313 41.8548 51.398 41.9871C51.6648 42.1195 52.1984 42.781 52.1984 42.781C52.3317 43.9277 53.7101 44.5893 53.7101 44.5893C53.7101 44.5893 53.8435 46.6181 53.7101 48.0735C53.5322 49.5731 53.5767 49.97 53.7101 50.6757C53.8435 51.3813 53.7545 52.4398 53.7545 53.3219C53.7545 53.9394 53.6211 54.9097 53.5322 55.483L53.1765 56.2328C53.1765 56.2328 53.799 56.2769 53.9768 56.2769C53.9768 56.2769 54.6438 56.2328 54.7327 56.2328C54.8216 56.2328 54.9995 56.1887 54.9995 56.1005C54.9995 56.0123 54.955 55.9241 54.9105 55.8359C54.9105 55.7918 54.9105 55.7477 54.8661 55.6595C54.7772 55.2625 54.7327 53.9835 54.7327 53.9835C54.7327 53.4542 54.6882 52.7045 54.8216 51.4696C54.9105 50.2346 55.3996 49.0438 55.3996 49.0438C55.3996 49.0438 55.4886 49.7495 55.4886 50.0141C55.4886 50.2787 55.4885 51.7342 55.6219 53.0573C55.7109 53.9835 55.533 54.7333 55.4441 55.3066L55.1773 56.1005C55.1773 56.1005 55.6219 56.1446 55.8442 56.1887C55.8442 56.1887 56.5112 56.1446 56.6001 56.1446C56.689 56.1446 56.8669 56.1005 56.8669 56.0123C56.8669 55.9241 56.8224 55.8359 56.7779 55.7477C56.7779 55.3066 56.6001 54.3363 56.5556 53.8512C56.4667 53.1455 56.3333 51.4696 56.9113 49.2643C57.5338 47.1032 57.7117 44.8098 57.7117 44.8098C57.7117 44.8098 58.4675 44.7657 59.001 44.5893C59.5346 44.4129 61.7577 44.8098 63.1805 44.898C64.5588 44.9421 66.1594 44.1041 66.1594 44.1041C66.1594 44.1041 67.8934 47.015 68.6493 48.2499C69.3607 49.4849 68.6048 50.4552 68.2936 51.2931C68.0713 51.9547 67.271 53.763 66.6485 54.9097L65.3146 56.1446C65.3146 56.1446 66.2483 56.4533 67.0931 56.4092H67.2265C67.3154 56.4092 67.4044 56.4092 67.4488 56.3651L67.9379 56.2769L67.8934 55.8359C67.9379 55.6595 67.9824 55.4389 68.0713 55.1302C68.2936 54.3804 70.161 50.8521 70.7835 50.0141C71.4059 49.1761 71.9395 48.8674 71.4504 48.1617C70.9613 47.4561 70.3389 45.5155 70.3389 45.5155C70.3389 45.5155 72.3841 47.0591 73.4512 47.9412C74.5183 48.8233 75.0518 49.5731 75.4075 50.8521C75.8077 52.087 75.3186 54.5568 75.1852 55.5712L74.2515 56.6297C74.2515 56.6297 74.1626 56.8503 74.3849 56.8503C74.6072 56.8944 76.0745 56.8944 76.2523 56.8944C76.3857 56.8944 76.6525 56.8062 76.7858 56.718L76.9637 56.6739L76.8748 56.0564ZM56.5556 24.3896L56.6001 24.6542L56.3333 24.3455L56.5556 24.3896ZM56.3333 24.9188L56.689 25.6686C56.689 25.6686 56.5112 25.8009 56.4223 25.8009C56.2889 25.845 56.3333 24.9188 56.3333 24.9188Z" fill="#B8B8B6"/>
<path d="M0 109.202V37.1799L62.2023 0.396938L62.9137 0L125.783 37.1799V109.158L63.4473 146.999L0 109.202ZM2.80111 38.7676V107.658L63.4917 143.824L123.026 107.658V38.7676L62.9137 3.21961L2.80111 38.7676ZM62.2023 2.77857L62.9137 1.58775L62.2023 2.77857Z" fill="#B8B8B6"/>
<path d="M10.7158 104.924L111.867 40.3555L113.379 42.6489L12.2275 107.217L10.7158 104.924Z" fill="#B8B8B6"/>
<path d="M10.7158 42.6489L12.2275 40.3555L113.379 104.924L111.867 107.217L10.7158 42.6489Z" fill="#B8B8B6"/>
<path d="M80.6533 72.5072L90.435 63.3777L90.7017 63.113H105.863L115.867 72.5072L98.4826 89.9725L80.6533 72.5072ZM83.41 72.5072L98.4826 87.2821L113.111 72.5072L105.107 64.9654H91.4576L83.41 72.5072Z" fill="#B8B8B6"/>
<path d="M82.0312 73.4775V71.5369H114.489V73.4775H82.0312Z" fill="#B8B8B6"/>
<path d="M90.3018 72.4632L94.9258 63.6864L96.6598 64.5685L92.4359 72.5514L98.3938 85.7385L104.041 72.5955L100.217 64.4362L101.995 63.6423L106.13 72.5514L98.4383 90.5459L90.3018 72.4632Z" fill="#B8B8B6"/>
<path d="M21.3862 84.7684C19.1631 80.9754 15.9618 79.961 12.5382 76.3886C10.7598 74.5362 10.0039 72.3751 10.0039 70.3463C10.0039 67.9205 11.071 65.7153 12.805 64.304C14.0055 63.3778 15.3393 62.9368 16.7177 62.9368C19.1186 62.9368 21.3417 64.304 22.5866 66.5533C23.8316 64.4804 26.0102 63.2014 28.2778 63.2014C29.745 63.2014 31.2123 63.7306 32.4127 64.7891C34.0134 66.2005 34.9915 68.3175 34.9915 70.6109C34.9915 72.7279 34.1468 74.9772 32.1904 76.8296C28.6335 80.2256 25.3878 81.0636 23.0313 84.7684L22.1865 86.0915L21.3862 84.7684ZM22.231 84.2832L23.0757 83.7981L22.231 84.2832ZM14.0499 65.8035C12.805 66.8179 11.9602 68.4939 11.9602 70.3463C11.9602 71.8899 12.5382 73.5659 13.961 75.0654C16.6287 77.9763 19.7411 79.123 22.2754 82.5631C24.9431 79.2553 28.0999 78.1968 30.8566 75.4624C32.4572 73.9187 33.0352 72.1987 33.0352 70.6109C33.0352 68.8467 32.2794 67.259 31.1233 66.2446C30.2341 65.4948 29.2559 65.142 28.2333 65.142C26.0991 65.142 23.876 66.8179 23.4314 69.7288L21.5196 69.6847C21.1639 66.6856 18.8963 64.8774 16.6732 64.8774C15.784 64.8333 14.8947 65.142 14.0499 65.8035Z" fill="#B8B8B6"/>
<path fill-rule="evenodd" clip-rule="evenodd" d="M56.5556 106.644C56.4666 105.409 56.3777 103.733 57.0002 102.586C54.7771 101.352 49.6195 98.2202 48.3746 98.4848C46.8629 98.8376 46.6405 98.9258 46.0625 100.778C45.4845 102.586 44.4619 113.789 48.6858 114.23C51.7981 114.583 55.0439 112.069 57.3114 110.128C56.8223 109.555 56.5556 108.805 56.5556 107.967C56.6 107.614 56.6 107.129 56.5556 106.644ZM77.2749 100.822C76.6969 99.014 76.4746 98.8817 74.9628 98.5289C73.8068 98.2643 69.2717 100.999 66.8263 102.366C67.76 103.645 68.2046 106.291 67.76 108.232C67.5377 109.202 67.0486 109.952 66.4261 110.525C68.7382 112.378 71.6727 114.583 74.6516 114.274C78.92 113.833 77.8529 102.631 77.2749 100.822Z" fill="#B8B8B6"/>
<path fill-rule="evenodd" clip-rule="evenodd" d="M59.8019 102.763C59.8019 102.763 63.8479 102.101 64.8706 103.116C65.8932 104.13 66.6046 109.07 64.0703 109.864C61.3581 110.702 58.7793 110.084 58.7793 108.056C58.7793 105.938 58.0679 103.072 59.8019 102.763Z" fill="#B8B8B6"/>
</svg>
