<?xml version="1.0" encoding="utf-8"?>
<svg width="194" height="147" viewBox="0 0 194 147" fill="none" xmlns="http://www.w3.org/2000/svg">
<path d="M179.712 128.667L176.095 126.733C167.265 121.855 135.309 114.203 134.973 114.118L131.272 113.193L134.384 111.007L143.635 104.616L149.605 83.5076L150.11 81.8257L151.792 82.3303C156.669 83.7599 188.626 97.2993 190.055 97.888L193.587 99.4017L190.139 101L173.993 108.652L178.618 124.715L179.712 128.667Z" fill="#B8B8B6" fill-opacity="0.12"/>
<path d="M151.373 84.0122L145.234 105.709L135.479 112.437C135.479 112.437 167.855 120.173 177.022 125.219L171.976 107.811L189.468 99.4858C189.384 99.4858 156.166 85.4418 151.373 84.0122Z" fill="#B8B8B6" fill-opacity="0.12"/>
<path d="M13.8758 128.668L17.4919 126.733C26.322 121.856 58.2784 114.203 58.6147 114.119L62.315 113.194L59.2034 111.007L49.9529 104.616L43.9821 83.5081L43.4775 81.8262L41.7956 82.3307C36.918 83.7604 4.96165 97.2998 3.53202 97.8885L0 99.4022L3.44793 101L19.5943 108.653L14.969 124.715L13.8758 128.668Z" fill="#B8B8B6" fill-opacity="0.12"/>
<path d="M42.2164 84.0122L48.3554 105.709L58.1105 112.437C58.1105 112.437 25.7336 120.173 16.5672 125.219L21.6129 107.811L4.20508 99.4858C4.20508 99.4858 37.3388 85.4418 42.2164 84.0122Z" fill="#B8B8B6" fill-opacity="0.12"/>
<path d="M156.092 45.8149V46.4212V100.442C155.522 105.738 152.504 110.084 149.54 113.15C148.061 114.68 146.615 115.871 145.541 116.677C145.004 117.08 144.562 117.386 144.256 117.589C144.103 117.691 143.985 117.767 143.906 117.817C143.867 117.842 143.837 117.86 143.818 117.872L143.798 117.884L143.794 117.887L143.794 117.887L143.794 117.887L143.794 117.887L143.785 117.892L110.503 138.399C103.805 142.104 97.206 141.929 92.2429 140.81C89.7582 140.25 87.695 139.455 86.2554 138.802C85.5363 138.475 84.9749 138.185 84.5967 137.978C84.4077 137.875 84.2646 137.793 84.1707 137.738C84.1237 137.71 84.089 137.689 84.0671 137.676L84.0437 137.661L84.0397 137.659L84.0393 137.659L84.0391 137.659L84.0389 137.658L84.029 137.652L84.0181 137.646L49.9593 117.463L49.9548 117.46C45.5045 114.854 42.8025 111.056 41.2084 107.878C40.4126 106.291 39.8986 104.87 39.5845 103.85C39.4276 103.34 39.321 102.931 39.2543 102.654C39.221 102.515 39.1976 102.41 39.183 102.34C39.1822 102.337 39.1814 102.333 39.1807 102.329V44.5867C39.1814 44.5831 39.1822 44.5794 39.183 44.5756C39.1976 44.5064 39.221 44.4006 39.2543 44.262C39.321 43.9846 39.4276 43.5762 39.5845 43.0664C39.8986 42.0458 40.4126 40.6247 41.2084 39.0381C42.8025 35.8602 45.5045 32.0618 49.9548 29.4558L49.9577 29.4541L84.0165 9.35522L84.0282 9.34832L84.0389 9.34163L84.0391 9.34147L84.0393 9.34139L84.0397 9.34111L84.0437 9.33863L84.0671 9.32433C84.089 9.31098 84.1237 9.29012 84.1707 9.2625C84.2646 9.20725 84.4077 9.12501 84.5967 9.02174C84.9749 8.81514 85.5363 8.52479 86.2554 8.19828C87.695 7.54461 89.7582 6.74985 92.2429 6.18979C97.2064 5.07097 103.806 4.89622 110.504 8.60144L143.872 29.0253L143.878 29.029L143.878 29.0291L143.878 29.0293L143.878 29.0294L143.882 29.0317L143.902 29.0442C143.921 29.0558 143.951 29.0741 143.99 29.099C144.069 29.1488 144.187 29.2249 144.34 29.3266C144.646 29.5302 145.088 29.8361 145.625 30.2389C146.7 31.0454 148.145 32.2355 149.624 33.766C152.464 36.704 155.354 40.8167 156.092 45.8149Z" stroke="#B8B8B6" stroke-width="2"/>
<path d="M35.1522 111.764L34.7317 110.166L26.8267 82.1621L26.4062 80.5643L27.92 80.0597C49.3644 72.9956 72.5748 69.4636 96.9626 69.4636C136.656 69.4636 166.089 79.1346 166.426 79.2187L167.939 79.7233L167.519 81.3211L159.614 109.325L159.193 110.923L157.596 110.502C140.692 106.382 121.939 104.363 101.924 104.363C65.5108 104.363 37.0864 111.343 36.75 111.427L35.1522 111.764Z" fill="#EDEDED"/>
<path d="M28.4248 81.6573L36.3298 109.661C36.3298 109.661 98.0561 94.3557 158.016 108.82L165.921 80.8163C165.837 80.8163 98.897 58.5309 28.4248 81.6573Z" fill="#B8B8B6"/>
<path d="M51.1304 113.866C51.0463 113.446 51.2145 113.025 51.635 112.941C51.635 112.941 53.1487 112.521 56.008 111.932C56.4284 111.848 56.7648 112.1 56.8489 112.521C56.933 112.941 56.6807 113.278 56.2602 113.362C53.401 113.95 52.0555 114.371 52.0555 114.371C51.9714 114.371 51.8873 114.371 51.8032 114.371C51.5509 114.455 51.2986 114.203 51.1304 113.866ZM141.029 113.782C140.524 113.698 140.104 113.614 139.599 113.53C139.179 113.446 138.926 113.11 139.01 112.689C139.095 112.269 139.431 112.016 139.851 112.1C140.356 112.184 140.776 112.269 141.281 112.353C141.702 112.437 141.954 112.773 141.87 113.194C141.786 113.53 141.533 113.782 141.113 113.782C141.113 113.866 141.113 113.866 141.029 113.782ZM135.31 112.941C133.797 112.689 132.367 112.521 130.937 112.353C130.517 112.269 130.265 111.932 130.349 111.512C130.433 111.091 130.769 110.839 131.19 110.839C132.619 111.007 134.133 111.259 135.563 111.428C135.983 111.512 136.235 111.848 136.151 112.269C136.067 112.605 135.815 112.857 135.394 112.857C135.394 112.941 135.31 112.941 135.31 112.941ZM59.7923 111.932C59.7082 111.512 59.9605 111.175 60.3809 111.091C61.7265 110.839 63.1561 110.671 64.7539 110.418C65.1744 110.334 65.5108 110.671 65.5949 111.007C65.679 111.428 65.3426 111.764 65.0062 111.848C63.4084 112.1 61.9788 112.269 60.6332 112.521C60.5491 112.521 60.5491 112.521 60.5491 112.521C60.1286 112.605 59.8764 112.353 59.7923 111.932ZM126.564 111.848C125.051 111.68 123.621 111.512 122.191 111.343C121.771 111.343 121.519 110.923 121.519 110.503C121.603 110.082 121.939 109.83 122.36 109.83C123.789 109.998 125.303 110.166 126.732 110.334C127.153 110.418 127.405 110.755 127.405 111.175C127.321 111.512 126.985 111.848 126.564 111.848ZM68.5382 110.671C68.5382 110.25 68.7905 109.914 69.211 109.83C70.6406 109.662 72.0702 109.493 73.6681 109.409C74.0885 109.409 74.4249 109.662 74.4249 110.082C74.4249 110.503 74.1726 110.839 73.7522 110.923C72.2384 111.091 70.7247 111.259 69.3792 111.343H69.2951C68.8746 111.343 68.6223 111.007 68.5382 110.671ZM117.734 110.923C116.221 110.755 114.791 110.671 113.361 110.587C112.941 110.587 112.688 110.166 112.688 109.83C112.688 109.409 113.109 109.157 113.445 109.157C114.875 109.241 116.389 109.409 117.902 109.493C118.323 109.493 118.575 109.914 118.575 110.334C118.491 110.671 118.239 110.923 117.734 110.923C117.818 110.923 117.818 110.923 117.734 110.923ZM77.3683 109.83C77.3683 109.409 77.6206 109.073 78.041 109.073C79.4707 108.989 80.9844 108.905 82.4981 108.821C82.9186 108.821 83.255 109.157 83.255 109.493C83.255 109.914 82.9186 110.25 82.5822 110.25C81.0685 110.334 79.6389 110.418 78.2092 110.503C78.2092 110.503 78.2092 110.503 78.1251 110.503C77.7047 110.503 77.3683 110.166 77.3683 109.83ZM108.988 110.334C107.475 110.25 106.045 110.166 104.615 110.166C104.195 110.166 103.858 109.83 103.943 109.409C103.943 108.989 104.279 108.652 104.699 108.737C106.129 108.821 107.643 108.821 109.156 108.989C109.577 108.989 109.829 109.325 109.829 109.746C109.745 109.998 109.409 110.334 108.988 110.334ZM86.1983 109.325C86.1983 108.905 86.5347 108.568 86.8711 108.568C88.3007 108.484 89.8144 108.484 91.3282 108.484C91.7487 108.484 92.085 108.821 92.085 109.241C92.085 109.662 91.7487 109.998 91.3282 109.998C89.8144 109.998 88.3848 110.082 86.9552 110.082C86.5347 110.082 86.1983 109.746 86.1983 109.325ZM100.158 109.998C98.6445 109.998 97.2149 109.914 95.7852 109.914C95.3648 109.914 95.0284 109.577 95.0284 109.157C95.0284 108.737 95.3648 108.4 95.7852 108.4C97.2149 108.4 98.7286 108.4 100.242 108.484C100.663 108.484 100.999 108.821 100.999 109.241C100.915 109.662 100.579 109.998 100.158 109.998Z" fill="#E0E2D2"/>
<path d="M58.1098 57.4378C58.362 55.5877 58.5302 53.1489 58.5302 50.3737C58.5302 47.5986 58.362 45.328 58.1098 43.4779C57.8575 41.7119 57.5211 40.3663 56.9324 39.6095C55.9233 38.0957 53.9891 38.0117 51.1298 39.3572C48.2706 40.7027 46.4204 42.6369 45.4113 44.7393C44.9067 45.7485 44.4862 47.094 44.234 48.6918C43.9817 50.2896 43.8135 52.1397 43.8135 54.3262C43.8135 56.3445 43.8976 58.1105 44.1499 59.4561C44.4021 60.8016 44.7385 61.8948 45.2431 62.6517C46.2523 64.2495 48.1865 65.0905 51.0457 64.9223C52.3071 64.8382 53.064 64.67 53.4845 64.2495C54.4095 65.4269 55.4187 66.6883 56.3437 67.9497C57.3529 66.8565 58.2779 65.8474 59.2871 64.67C57.8575 62.7358 57.0165 61.7267 56.9324 61.6426C57.5211 60.6334 57.8575 59.2879 58.1098 57.4378ZM52.9799 58.8674C52.6435 60.1288 52.0549 60.7175 51.2139 60.8857C50.3729 60.9698 49.7843 60.4652 49.4479 59.372C49.1115 58.2787 48.9433 56.0922 48.9433 52.7284C48.9433 51.0465 49.0274 49.5328 49.0274 48.3554C49.1115 47.1781 49.2797 46.253 49.4479 45.5803C49.7843 44.4029 50.2889 43.562 51.2139 43.2256C52.139 42.8892 52.6435 43.2256 52.9799 44.2347C53.1481 44.7393 53.2322 45.6644 53.3163 46.8417C53.4004 48.019 53.4845 49.6169 53.4845 51.467C53.4004 55.1672 53.2322 57.606 52.9799 58.8674ZM70.8082 43.2256C70.8082 46.8417 70.8082 50.4578 70.8082 54.0739C70.8082 55.9241 70.64 57.2696 70.3877 57.9423C70.1354 58.6992 69.6309 59.0356 68.874 59.1197C68.1172 59.2038 67.6126 58.8674 67.3603 58.2787C67.0239 57.606 66.8557 56.3445 66.8557 54.4103C66.8557 50.9624 66.8557 47.4304 66.8557 43.9825C66.8557 40.5345 66.8557 37.0025 66.8557 33.5546C65.1738 34.0592 63.576 34.5637 61.9782 35.2365C61.9782 38.348 61.9782 41.4596 61.9782 44.5711C61.9782 47.6827 61.9782 50.7942 61.9782 53.9058C61.9782 57.7742 62.5668 60.4652 63.6601 61.9789C64.6692 63.4086 66.4352 64.0813 68.874 63.9972C71.2287 63.9131 72.9947 62.9881 74.0879 61.138C75.1812 59.2879 75.7699 56.3445 75.7699 52.2238C75.7699 48.6918 75.7699 45.1598 75.7699 41.7119C75.7699 38.1798 75.7699 34.6478 75.7699 31.1999C74.0879 31.6204 72.4901 32.0409 70.8082 32.3772C70.8082 35.9934 70.8082 39.6095 70.8082 43.2256ZM89.5616 29.0975C87.4592 29.3498 85.3568 29.518 83.3385 29.7703C82.4134 35.4888 81.5725 41.1232 80.7315 46.6735C79.8906 52.2238 78.9655 57.6901 78.1245 63.1563C79.8065 63.1563 81.4884 63.0722 83.1703 63.0722C83.4226 60.9698 83.759 58.8674 84.0953 56.765C85.6932 56.6809 87.2069 56.6809 88.8047 56.5968C89.1411 58.6992 89.3934 60.8016 89.7298 62.904C91.4117 62.904 93.0936 62.904 94.7755 62.904C93.9345 57.2696 93.0095 51.6352 92.1685 46.0008C91.3276 40.3663 90.4025 34.7319 89.5616 29.0975ZM84.5999 50.626C84.9363 48.1872 85.1886 45.7485 85.525 43.3097C85.8614 40.8709 86.1136 38.348 86.45 35.9093C86.7023 38.348 87.0387 40.7868 87.291 43.2256C87.5433 45.6644 87.8797 48.1031 88.1319 50.5419C86.9546 50.4578 85.7773 50.5419 84.5999 50.626ZM102.176 42.721C102.176 38.1798 102.176 33.6387 102.176 29.0134C100.494 28.9293 98.8962 28.9293 97.2143 28.8452C97.2143 34.4796 97.2143 40.1981 97.2143 45.8326C97.2143 51.467 97.2143 57.1855 97.2143 62.8199C101.167 62.8199 105.119 62.904 109.072 62.904C109.072 60.7175 109.072 58.6151 109.072 56.4286C106.717 56.3445 104.447 56.2604 102.092 56.2604C102.176 51.8875 102.176 47.2622 102.176 42.721ZM112.015 46.6735C112.015 52.1397 112.015 57.606 112.015 63.1563C113.697 63.1563 115.295 63.2404 116.893 63.2404C116.893 57.8582 116.893 52.5602 116.893 47.1781C116.893 41.796 116.893 36.4979 116.893 31.1158C115.295 30.7794 113.613 30.5271 112.015 30.1907C112.015 35.657 112.015 41.1232 112.015 46.6735ZM119.5 38.0117C120.929 38.2639 122.359 38.6003 123.873 38.9367C123.873 43.0574 123.873 47.094 123.873 51.2147C123.873 55.3354 123.873 59.372 123.873 63.4927C125.47 63.5768 127.152 63.6609 128.75 63.6609C128.75 59.7925 128.75 55.84 128.75 51.9715C128.75 48.1031 128.75 44.1506 128.75 40.2822C130.18 40.7027 131.609 41.1232 133.123 41.6278C133.123 39.7777 133.123 37.9276 133.123 36.0775C128.582 34.3955 124.041 32.9659 119.5 31.7886C119.5 33.8069 119.5 35.9093 119.5 38.0117ZM144.644 41.2073C144.224 42.4687 143.803 43.8143 143.383 45.0757C142.962 46.4212 142.542 47.8509 142.121 49.1964C142.121 49.1964 142.121 49.1964 142.037 49.1964C141.617 47.5145 141.28 45.8326 140.86 44.0665C140.439 42.3005 140.103 40.5345 139.683 38.7685C137.833 37.9276 136.067 37.1707 134.216 36.4138C135.141 39.5254 135.982 42.5528 136.907 45.4962C137.833 48.4395 138.673 51.2988 139.599 54.0739C139.599 55.7559 139.599 57.3537 139.599 59.0356C139.599 60.7175 139.599 62.3153 139.599 63.9972C141.196 64.0813 142.878 64.1654 144.56 64.2495C144.56 62.7358 144.56 61.2221 144.56 59.7084C144.56 58.1946 144.56 56.6809 144.56 55.1672C145.401 53.0648 146.326 51.0465 147.251 49.1123C148.092 47.2622 149.017 45.4962 149.942 43.8143C148.26 43.0574 146.41 42.1323 144.644 41.2073Z" fill="white"/>
<path d="M52.9799 92.0855L45.7477 93.3469L46.1682 95.7016L47.0932 95.5334L47.766 99.2336L43.0566 100.075L42.3839 96.3744L43.3089 96.2062L41.7111 86.9556L40.786 87.1238L40.1133 83.5077L51.0457 81.5735C52.8117 81.2371 53.905 82.2463 54.3255 84.601L54.9982 88.6376C55.3346 90.6558 54.6618 91.8332 52.9799 92.0855ZM51.3821 86.1988C51.298 85.6101 50.8775 85.4419 50.2048 85.526L44.5704 86.5352L45.159 89.899L50.8775 88.8898C51.5503 88.8057 51.8026 88.3853 51.6344 87.7966L51.3821 86.1988ZM68.3695 89.899L70.64 92.3378L71.6492 92.2537L71.9856 95.8698L66.2671 96.4585L65.8466 92.8423L66.7716 92.7582L64.6692 90.4877L61.6418 90.824L61.8941 93.1787L62.8191 93.0946L63.2396 96.8789L58.4462 97.3835L58.0257 93.5992L59.0348 93.5151L58.0257 84.1805L57.1006 84.2646L56.6801 80.5644L67.6967 79.387C69.4627 79.2188 70.4718 80.3121 70.7241 82.6668L71.1446 86.7874C71.3128 88.8057 70.5559 89.899 68.6217 90.0672L68.3695 89.899ZM67.8649 83.9282C67.7808 83.3395 67.4444 83.0872 66.7716 83.1713L61.0531 83.76L61.3895 87.2079L67.1921 86.6193C67.7808 86.5352 68.1172 86.1988 68.0331 85.6101L67.8649 83.9282ZM85.1045 84.3487L84.9363 81.8258L78.1246 82.1622L78.2928 85.3578L83.9272 85.1055L84.0954 88.8057L78.4609 89.058L78.6291 91.4968L85.3568 91.1604L85.2727 88.8898L88.3001 88.7216L88.6365 94.6924L74.9289 95.4493L74.7607 91.7491L75.7699 91.665L75.2653 82.2463L74.2562 82.3304L74.088 78.6302L87.7956 77.8733L88.132 84.0964L85.1045 84.3487ZM103.101 94.9447V91.2445H103.942V84.8532L100.074 94.9447H98.3916L94.4391 84.5169V91.4968H95.3642V94.9447H90.6548V91.5809H91.4958V82.2463H90.823V78.0415H95.2801L99.3167 88.7216L103.353 77.9574H107.726V82.1622H106.885V91.0763H107.726V94.8606H103.101V94.9447ZM110.249 95.1129L110.417 91.3286L111.511 91.4127L112.015 81.994L110.922 81.9099L111.09 78.2097L116.136 78.462L115.968 82.2463L114.959 82.1622L114.454 91.4968L115.463 91.5809L115.295 95.3652L110.249 95.1129ZM131.946 83.9282L130.937 93.5151C130.684 95.7857 129.843 96.7948 128.414 96.6266L121.097 95.8698C119.668 95.7016 119.079 94.5243 119.331 92.2537L120.341 82.4986L119.416 82.4145L119.836 78.7142L124.714 79.2188L124.293 82.919L123.284 82.8349L122.359 91.1604C122.275 91.8332 122.527 92.1696 123.032 92.1696L127.236 92.59C127.741 92.6741 128.077 92.4219 128.162 91.8332L129.087 83.3395L127.993 83.2554L128.414 79.4711L133.544 79.9757L133.123 83.8441L131.946 83.9282ZM145.99 99.0654L146.494 95.4493L147.335 95.5334L148.26 89.1421L143.046 98.6449L141.365 98.3927L138.926 87.5443L138.001 94.4402L138.926 94.6083L138.421 98.0563L133.712 97.3835L134.216 94.0197L135.057 94.1038L136.319 84.8532L135.73 84.7691L136.319 80.5644L140.692 81.2371L143.215 92.4219L148.681 82.3304L153.054 82.919L152.465 87.1238L151.624 87.0397L150.363 95.8698L151.204 95.9539L150.699 99.6541L145.99 99.0654Z" fill="white"/>
<path d="M76.8625 115.212C76.3579 115.212 75.8534 115.296 75.4329 115.464C75.0965 115.548 74.8442 115.8 74.5919 116.052C74.3396 116.305 74.1715 116.641 74.0033 116.978C73.8351 117.398 73.751 117.987 73.751 118.659C73.751 119.669 74.0033 120.51 74.5919 121.098C75.1806 121.687 75.9375 121.939 76.8625 121.939C77.7876 121.939 78.5444 121.687 79.1331 121.014C79.7218 120.425 79.9741 119.585 79.9741 118.575C79.9741 117.482 79.7218 116.725 79.1331 116.052C78.5444 115.464 77.7876 115.212 76.8625 115.212ZM78.124 120.257C77.7876 120.678 77.3671 120.846 76.8625 120.846C76.3579 120.846 75.9375 120.678 75.6011 120.257C75.2647 119.921 75.0965 119.332 75.0965 118.575C75.0965 117.819 75.2647 117.23 75.6011 116.893C75.9375 116.557 76.3579 116.305 76.9466 116.305C77.4512 116.305 77.9558 116.473 78.2921 116.893C78.6285 117.23 78.7967 117.819 78.7967 118.575C78.6285 119.332 78.4603 119.837 78.124 120.257ZM85.8608 119.5C85.6926 119.332 85.4403 119.164 85.188 118.996C85.7767 118.912 86.1972 118.744 86.4494 118.407C86.7017 118.071 86.8699 117.65 86.8699 117.23C86.8699 116.809 86.7858 116.473 86.6176 116.221C86.4494 115.968 86.1971 115.716 85.8608 115.632C85.5244 115.548 85.0198 115.464 84.347 115.464H81.5719V121.939H82.9174V119.248H83.1697C83.5061 119.248 83.6743 119.248 83.8425 119.332C84.0107 119.416 84.0948 119.5 84.2629 119.585C84.347 119.753 84.5993 120.005 84.9357 120.51L85.8608 121.939H87.4586L86.7017 120.678C86.2812 120.005 86.029 119.669 85.8608 119.5ZM83.8425 118.071H82.8333V116.389H83.8425C84.347 116.389 84.6834 116.389 84.7675 116.389C85.0198 116.389 85.1039 116.473 85.2721 116.641C85.3562 116.809 85.4403 116.978 85.4403 117.146C85.4403 117.314 85.3562 117.482 85.2721 117.65C85.188 117.819 85.0198 117.903 84.9357 117.903C84.8516 118.071 84.4311 118.071 83.8425 118.071ZM88.5518 121.855H89.8974V115.38H88.5518V121.855ZM94.6908 119.416H96.2045V120.257C96.0364 120.425 95.7841 120.51 95.5318 120.678C95.2795 120.762 94.9431 120.846 94.6908 120.846C94.1021 120.846 93.6817 120.678 93.3453 120.257C93.0089 119.837 92.8407 119.332 92.8407 118.491C92.8407 117.734 93.0089 117.23 93.3453 116.893C93.6817 116.557 94.1021 116.305 94.6908 116.305C95.1113 116.305 95.3636 116.389 95.6159 116.557C95.8682 116.725 96.0364 116.978 96.1205 117.314L97.3819 117.062C97.2137 116.473 96.9614 115.968 96.5409 115.632C96.1205 115.296 95.4477 115.127 94.6067 115.127C94.0181 115.127 93.4294 115.212 93.093 115.464C92.5043 115.716 92.0839 116.137 91.8316 116.641C91.5793 117.146 91.4111 117.734 91.4111 118.407C91.4111 118.996 91.4952 119.585 91.8316 120.173C92.0839 120.678 92.5043 121.098 92.9248 121.435C93.4294 121.687 94.0181 121.855 94.6908 121.855C95.1954 121.855 95.7841 121.771 96.2886 121.519C96.7932 121.351 97.2137 121.098 97.466 120.846V118.239H94.6067V119.416H94.6908ZM99.1479 121.855H100.493V115.38H99.1479V121.855ZM106.212 119.669L103.521 115.296H102.259V121.771H103.521V117.566L106.128 121.771H107.473V115.296H106.296V119.669H106.212ZM111.174 115.296L108.651 121.771H109.996L110.501 120.257H113.108L113.696 121.771H115.126L112.519 115.296H111.174ZM110.921 119.248L111.846 116.809L112.771 119.248H110.921ZM117.733 120.678V115.296H116.388V121.771H121.013V120.678H117.733V120.678Z" fill="white"/>
</svg>
