<?xml version="1.0" encoding="utf-8"?>
<svg width="148" height="147" viewBox="0 0 148 147" fill="none" xmlns="http://www.w3.org/2000/svg">
<path fill-rule="evenodd" clip-rule="evenodd" d="M65.5639 2.65912L65.9794 2.49292L66.3118 2.24363L66.6441 1.99434L66.9765 1.82814L67.392 1.66195L67.7244 1.49575L68.1399 1.32956L68.4723 1.16336L68.8878 0.997169L69.3033 0.830975L69.7188 0.747877L70.2173 0.581682L70.6328 0.498585L71.0483 0.33239L71.5469 0.249292L71.9624 0.166195L72.461 0.0830975H72.9596L73.4581 0H73.9567H74.4553H75.037L75.5356 0.0830975H76.0342L76.4497 0.249292L76.9482 0.33239L77.4468 0.581682L77.8623 0.66478L78.3609 0.830975L78.7764 1.08027L79.1088 1.24646L79.5243 1.49575L79.8566 1.74505L80.189 1.91124L80.6045 2.16053L80.9369 2.40983L81.2693 2.57602L81.6017 2.82531L81.851 3.07461L82.1834 3.3239L82.5158 3.49009L82.7651 3.73939L83.0974 3.90558L83.4298 4.15487L83.7622 4.40417L84.0115 4.57036L84.427 4.73655L84.6763 4.98585L85.0087 5.23514L85.3411 5.40133L85.6735 5.65063L85.9228 5.73372L86.089 5.81682L86.2552 5.89992L86.5044 6.06611L86.6706 6.14921H86.8368L87.003 6.23231L87.1692 6.31541L87.2523 6.3985H87.4185H87.5847L87.6678 6.4816H87.834L87.9171 6.5647H88.0833H88.1664L88.3326 6.6478H88.4157H88.5819H88.665H88.8312H88.9974H89.1636H89.3298L89.579 6.5647H89.7452H89.9114L90.1607 6.4816L90.41 6.3985H90.6593H90.9086L91.1579 6.31541L91.4903 6.23231L91.8227 6.14921H92.072L92.4044 6.06611L92.7367 5.98302L93.0691 5.89992H93.4015L93.7339 5.81682L94.1494 5.73372L94.3987 5.65063H94.8142H95.1466L95.5621 5.56753L95.9776 5.48443H96.3099H96.7254H97.1409L97.5564 5.40133H97.9719H98.3874H98.8029H99.3014L99.7169 5.48443H100.132L100.548 5.56753L101.046 5.65063H101.462L101.961 5.81682L102.376 5.89992L102.875 6.06611L103.373 6.14921L103.872 6.3985L104.37 6.5647L104.786 6.73089L105.201 6.98019L105.617 7.22948L106.032 7.47877L106.448 7.81116L106.78 8.06045L107.113 8.30975L107.445 8.64213L107.777 8.97452L108.027 9.22382L108.359 9.6393L108.608 9.8886L108.858 10.221L109.024 10.5534L109.273 10.8858L109.522 11.2182L109.689 11.5505L109.855 11.7998L110.021 12.2153L110.187 12.4646L110.437 12.797L110.603 13.1294L110.769 13.3787L110.935 13.7111L111.184 14.0435L111.351 14.2928L111.434 14.6252L111.683 14.9575L111.849 15.2068L112.098 15.5392L112.265 15.7885L112.431 16.1209L112.597 16.3702L112.846 16.6195L113.013 16.8688L113.179 17.1181L113.345 17.2843L113.511 17.4505L113.677 17.6167L113.76 17.7829L114.01 17.866L114.093 18.0321L114.259 18.1152L114.425 18.1983L114.508 18.2814L114.674 18.3645L114.841 18.5307H115.007L115.173 18.6969H115.339L115.589 18.78L115.838 18.9462H116.004L116.253 19.0293L116.503 19.1955H116.752L117.084 19.2786L117.417 19.4448H117.666L118.081 19.611L118.414 19.6941L118.829 19.7772L119.245 19.8603L119.494 19.9434H119.743L120.076 20.1096H120.325L120.657 20.1927L120.907 20.2758L121.156 20.3589L121.488 20.442L121.821 20.6082H122.07L122.403 20.7744L122.735 20.8575L123.067 20.9406L123.317 21.0237L123.649 21.1899L123.981 21.356L124.231 21.5222L124.563 21.6053L124.895 21.7715L125.228 21.9377L125.56 22.1039L125.81 22.2701L126.142 22.4363L126.557 22.6856L126.807 22.9349L127.139 23.1842L127.471 23.3504L127.721 23.5997L128.053 23.849L128.386 24.0983L128.635 24.3476L128.967 24.6799L129.3 25.0123L129.715 25.5109L130.048 25.8433L130.297 26.3419L130.546 26.7574L130.795 27.1729L131.045 27.5884L131.211 28.0869L131.46 28.5024L131.543 29.001L131.626 29.4165L131.793 29.832L131.876 30.2475L131.959 30.663L132.042 31.0784L132.125 31.577V31.9094L132.208 32.3249L132.291 32.7404V33.1559L132.374 33.4883V33.8207V34.3192L132.457 34.6516L132.54 34.984V35.3995L132.624 35.7319V36.1474L132.707 36.5629L132.79 36.8953V37.3108L132.873 37.6431L133.039 38.1417L133.122 38.5572L133.288 38.8896V39.222L133.455 39.4713L133.538 39.7206L133.704 39.8868L133.787 40.1361L133.953 40.3023L134.119 40.4685L134.285 40.7178L134.452 40.967L134.784 41.2163L135.033 41.4656L135.366 41.798L135.781 42.0473L136.031 42.2135L136.28 42.4628L136.529 42.629L136.778 42.8783L137.028 43.0445L137.277 43.2107L137.609 43.46L137.859 43.6262L138.191 43.8755L138.44 44.1247L138.773 44.374L139.022 44.6233L139.354 44.8726L139.604 45.1219L139.936 45.3712L140.268 45.7036L140.518 45.9529L140.767 46.2022L141.099 46.5346L141.432 46.867L141.681 47.1994L141.93 47.6148L142.263 47.9472L142.512 48.2796L142.761 48.6951L143.094 49.0275L143.343 49.443L143.509 49.9416L143.759 50.3571L144.008 50.7725L144.174 51.2711L144.423 51.7697L144.59 52.2683L144.673 52.7669L144.839 53.3486L144.922 53.8472L145.005 54.3457V54.8443V55.3429V55.8415V56.3401L144.922 56.8387V57.2541L144.756 57.6696L144.673 58.0851L144.59 58.5006L144.506 58.9992L144.34 59.3316L144.257 59.7471L144.091 60.1626L144.008 60.578L143.842 60.9104L143.759 61.3259L143.592 61.6583L143.509 61.9907L143.343 62.4062L143.26 62.7386L143.094 63.1541V63.4865L142.928 63.9019L142.845 64.3174L142.761 64.6498L142.595 65.0653V65.4808L142.512 65.647V65.8963L142.429 66.0625V66.3118L142.346 66.478V66.7273V66.8104V66.9765V67.1427V67.2258V67.392V67.5582V67.6413L142.429 67.8075V67.8906L142.512 68.0568V68.1399L142.595 68.3061V68.3892V68.5554L142.678 68.7216L142.761 68.8878L142.845 69.054V69.2202L142.928 69.3864L143.094 69.5526V69.8019L143.26 69.9681L143.343 70.2173L143.509 70.4666L143.592 70.7159L143.759 70.9652L143.842 71.2145L144.174 71.7962L144.257 72.0455L144.506 72.2948L144.59 72.6272L144.756 72.9596L144.922 73.2089L145.088 73.5412L145.171 73.8736L145.421 74.1229L145.504 74.5384L145.67 74.8708L145.836 75.2032L146.002 75.5356L146.085 75.868L146.252 76.2004L146.335 76.6158L146.501 76.9482L146.584 77.3637L146.75 77.7792L146.833 78.1947L146.916 78.6102L146.999 79.0257L147.082 79.5243L147.166 79.9397V80.3552L147.249 80.7707V81.2693V81.6848V82.1834V82.682V83.1805L147.166 83.6791L146.999 84.0946V84.5932L146.833 85.0918L146.667 85.5073L146.501 86.0059L146.335 86.4214L146.085 86.7537L145.919 87.1692L145.67 87.5847L145.421 87.834L145.254 88.2495L145.005 88.5819L144.756 88.8312L144.506 89.1636L144.257 89.496L144.008 89.7452L143.759 90.0776L143.592 90.3269L143.343 90.5762L143.094 90.9086L142.845 91.1579L142.595 91.3241L142.346 91.6565L142.097 91.9058L141.847 92.1551L141.598 92.4044L141.349 92.7368L141.099 92.986L140.85 93.2353L140.684 93.4846L140.518 93.7339L140.268 93.9832L140.102 94.1494L139.936 94.3987L139.853 94.648L139.687 94.8142L139.521 95.0635L139.438 95.2297L139.354 95.3959L139.271 95.5621L139.188 95.7283L139.105 95.8945V95.9776L139.022 96.1437L138.939 96.3099V96.4761L138.856 96.6423V96.7254V96.9747V97.1409L138.773 97.3071V97.4733V97.6395L138.69 97.8888V98.055V98.3043V98.6367V98.886V99.2184V99.4676L138.773 99.8V100.216V100.465L138.856 101.13V101.379V101.711V102.044V102.376L138.939 102.708V103.041V103.373V103.706V104.121V104.453V104.869V105.201L138.856 105.534V105.949V106.365L138.773 106.78L138.69 107.196L138.607 107.528V107.944L138.523 108.359L138.44 108.775L138.274 109.19L138.191 109.606L138.025 110.021L137.859 110.437L137.692 110.852L137.526 111.267L137.36 111.683L137.111 112.098L136.861 112.514L136.612 113.013L136.28 113.428L136.114 113.76L135.781 114.176L135.449 114.425L135.116 114.841L134.784 115.09L134.452 115.339L134.119 115.589L133.704 115.838L133.371 116.087L133.122 116.336L132.707 116.503L132.374 116.752L132.042 116.918L131.626 117.001L131.294 117.167L130.962 117.417L130.629 117.5L130.297 117.666L130.048 117.832L129.632 117.915L129.3 118.081L129.05 118.165L128.635 118.331L128.386 118.497L128.053 118.58L127.721 118.746L127.471 118.912L127.056 119.079L126.807 119.162L126.474 119.328L126.142 119.494L125.893 119.66L125.643 119.827L125.394 119.993L125.145 120.159L124.979 120.325L124.812 120.408L124.646 120.574L124.397 120.741L124.314 120.907L124.231 120.99L124.064 121.156L123.981 121.322L123.815 121.405L123.732 121.655L123.566 121.821L123.483 121.987L123.317 122.153L123.234 122.319L123.067 122.569V122.818L122.901 123.067L122.818 123.317L122.652 123.649L122.486 123.981L122.319 124.231L122.236 124.646L122.07 124.895L121.904 125.311L121.821 125.726L121.655 126.142L121.572 126.391L121.405 126.641L121.322 126.89L121.156 127.139V127.471L120.99 127.638L120.907 127.887L120.741 128.219L120.657 128.469L120.491 128.801L120.408 129.05L120.242 129.3L120.076 129.549L119.91 129.881L119.743 130.131L119.577 130.463L119.411 130.712L119.245 130.962L119.079 131.294L118.829 131.543L118.58 131.876L118.414 132.125L118.165 132.374L117.915 132.624L117.749 132.956L117.5 133.205L117.251 133.455L117.001 133.787L116.669 133.953L116.42 134.202L116.087 134.452L115.838 134.784L115.422 135.033L115.09 135.283L114.674 135.532L114.259 135.698L113.927 135.947L113.511 136.114L113.096 136.28L112.68 136.363L112.348 136.529L111.932 136.612L111.517 136.695L111.184 136.778L110.769 136.862H110.437L110.021 136.945H109.689L109.273 137.028H108.941H108.608H108.276H107.944H107.611H107.279H106.946H106.614H106.282H105.949L105.617 136.945H105.368H104.952H104.62H104.37H103.955L103.623 137.028H103.29H102.958H102.625H102.293L102.127 137.111H101.877L101.628 137.194H101.379H101.13L100.963 137.277L100.797 137.36L100.631 137.443H100.465L100.216 137.526L100.132 137.609L99.9662 137.692L99.8 137.776L99.5507 137.942H99.4676L99.3014 138.108L99.0522 138.191L98.8029 138.357L98.6367 138.523L98.4705 138.69L98.2212 138.856L97.9719 139.105L97.7226 139.354L97.4733 139.521L97.224 139.77L96.9747 140.019L96.8085 140.269L96.6423 140.435L96.393 140.684L96.2268 140.933L95.9776 141.099L95.7283 141.349L95.479 141.598L95.2297 141.847L94.9804 142.097L94.7311 142.346L94.4818 142.512L94.1494 142.761L93.9832 143.011L93.6508 143.26L93.4015 143.509L93.0691 143.759L92.8198 143.925L92.4875 144.174L92.1551 144.34L91.8227 144.59L91.4903 144.756L91.1579 145.005L90.7424 145.171L90.41 145.337L89.9945 145.587L89.6621 145.753L89.2467 145.919L88.8312 146.085L88.4157 146.252L88.0002 146.335L87.5847 146.501L87.0861 146.667L86.5044 146.75L86.0059 146.833L85.5904 146.916L85.0087 146.999H84.5101L84.0115 146.916H83.596L83.0974 146.833L82.682 146.75L82.1834 146.667L81.851 146.501L81.3524 146.418L80.9369 146.335L80.6045 146.085L80.189 146.002L79.8566 145.836L79.5243 145.67L79.1088 145.504L78.7764 145.337L78.3609 145.171L78.1116 145.088L77.6961 144.922L77.4468 144.673L77.1144 144.59L76.6989 144.423L76.4497 144.174L76.0342 144.091L75.7849 143.925L75.3694 143.759L75.037 143.675L74.7046 143.509L74.3722 143.343L74.1229 143.26L73.8736 143.177L73.6243 143.094L73.375 143.011H73.1258L72.9596 142.928L72.7934 142.845H72.5441H72.3779H72.2117L72.0455 142.761H71.8793H71.7962H71.63H71.4638H71.3807H71.2145H71.0483L70.8821 142.845H70.7159H70.5497H70.4666L70.2173 142.928L69.968 143.011H69.8019L69.5526 143.094L69.3033 143.177L69.054 143.26L68.8047 143.343L68.5554 143.509H68.3061L67.9737 143.675L67.1427 144.008L66.8103 144.091L66.478 144.174L66.2287 144.34L65.8963 144.423L65.5639 144.59L65.3146 144.673L64.8991 144.756L64.6498 144.922L64.2343 145.005L63.9019 145.088L63.5695 145.171L63.2372 145.337H62.8217L62.4893 145.504L62.0738 145.587H61.6583L61.3259 145.67L60.9104 145.753L60.4118 145.836H60.0795H59.664H59.2485H58.7499H58.3344H57.8358H57.4203L56.9218 145.753L56.5063 145.67L56.0077 145.587L55.5091 145.504L55.0936 145.337L54.595 145.254L54.1795 145.088L53.6809 144.922L53.2655 144.673L52.85 144.423L52.5176 144.257L52.1021 144.008L51.7697 143.759L51.3542 143.509L51.1049 143.26L50.7725 142.928L50.4402 142.678L50.1909 142.346L49.9416 142.097L49.6923 141.847L49.443 141.515L49.1937 141.266L48.9444 140.933L48.6951 140.684L48.4458 140.435L48.2796 140.185L48.0303 139.853L47.781 139.604L47.6148 139.354L47.3655 139.105L47.1163 138.856L46.867 138.607L46.7008 138.357L46.4515 138.025L46.2022 137.776L45.9529 137.526L45.7036 137.36L45.5374 137.111L45.2881 136.945L45.1219 136.778L44.9557 136.612L44.7895 136.529L44.6233 136.363L44.374 136.28L44.2909 136.114L44.1247 136.031L43.9586 135.947L43.8755 135.864L43.7093 135.781H43.5431L43.46 135.698L43.2938 135.615L43.1276 135.532H42.9614L42.7952 135.449L42.629 135.366H42.4628H42.2135L42.0473 135.283H41.798L41.5487 135.2L41.2994 135.116H40.967H40.6347H40.3854H40.053L39.7206 135.033H39.4713H39.1389L38.8065 134.95H38.5572H38.2248L37.8093 134.867H37.56H37.1446H36.8953H36.4798L36.2305 134.784L35.815 134.701H35.4826L35.0671 134.618H34.7347L34.3192 134.535L33.9869 134.452L33.6545 134.369L33.1559 134.202H32.8235L32.4911 134.036L31.9925 133.953L31.6601 133.787L31.3277 133.621L30.9123 133.455L30.4968 133.288L30.0813 133.122L29.6658 132.873L29.2503 132.707L28.9179 132.457L28.5024 132.208L28.0869 131.959L27.6714 131.626L27.3391 131.377L26.9236 131.045L26.6743 130.712L26.3419 130.463L26.0095 130.048L25.7602 129.798L25.5109 129.383L25.2616 129.05L25.0954 128.718L24.9292 128.386L24.763 127.97L24.5968 127.638L24.3476 127.305L24.2645 126.973L24.0983 126.557L24.0152 126.308L23.849 125.893L23.7659 125.56L23.6828 125.228L23.5997 124.895L23.4335 124.563V124.231L23.2673 123.981L23.1011 123.234L23.018 122.984L22.9349 122.652L22.8518 122.319L22.6856 121.987V121.655L22.5194 121.405L22.4363 121.073L22.3532 120.741L22.187 120.408L22.1039 120.242L22.0208 119.993L21.9377 119.743L21.8546 119.494L21.7715 119.245L21.6884 119.079L21.5222 118.912V118.746L21.356 118.58V118.414L21.1898 118.331L21.1068 118.165L21.0237 118.081L20.9406 117.915L20.8575 117.832L20.6913 117.666L20.6082 117.583L20.442 117.417L20.3589 117.334L20.1927 117.167L20.1096 117.084L19.9434 116.918L19.6941 116.835L19.5279 116.752L19.3617 116.586L19.1124 116.503L18.9462 116.336L18.6138 116.17L18.3645 116.004L18.0321 115.838L17.866 115.672L17.5336 115.589L17.2012 115.339L16.8688 115.256L16.6195 115.09L16.3702 114.924L15.9547 114.758L15.7054 114.591L15.373 114.425L15.0406 114.176L14.7913 114.01L14.3759 113.844L14.1266 113.677L13.7111 113.428L13.3787 113.262L13.0463 113.013L12.7139 112.763L12.3815 112.514L12.0491 112.265L11.7167 111.932L11.3843 111.6L11.052 111.351L10.7196 111.018L10.3872 110.686L10.0548 110.353L9.7224 110.021L9.47311 109.606L9.14072 109.273L8.80833 108.858L8.55904 108.442L8.30974 107.944L8.06045 107.528L7.81116 107.113L7.56187 106.697L7.39567 106.199L7.31258 105.783L7.14638 105.284L7.06328 104.869L6.98019 104.37L6.89709 103.955V103.456L6.81399 103.041V102.708V102.293L6.89709 101.794V101.462V101.047V100.714L6.98019 100.299L7.06328 99.9662V99.5507L7.14638 99.2184V98.8029L7.22948 98.5536L7.31258 98.1381L7.39567 97.8057V97.3902V97.1409L7.47877 96.7254L7.56187 96.393V96.0607V95.7283L7.64496 95.3128V95.0635V94.7311L7.72806 94.3987V94.1494V93.9001V93.6508L7.64496 93.4846V93.2353V92.986V92.8199L7.56187 92.6537V92.5706V92.3213L7.47877 92.2382V92.072L7.39567 91.9058V91.7396L7.31258 91.5734L7.22948 91.4072L7.14638 91.3241V91.1579L6.98019 90.9086L6.89709 90.8255L6.81399 90.6593L6.6478 90.41L6.4816 90.2438L6.3985 89.9945L6.23231 89.7452L6.06611 89.496L5.89992 89.2467L5.65063 89.0805L5.48443 88.7481L5.23514 88.5819L5.06894 88.3326L4.90275 88.0833L4.73655 87.834L4.48726 87.5847L4.32107 87.2523L4.07177 87.003L3.90558 86.7537L3.65629 86.5044L3.49009 86.1721L3.2408 85.9228L3.07461 85.5904L2.90841 85.3411L2.65912 85.0087L2.49292 84.6763L2.24363 84.3439L2.07744 84.0115L1.91124 83.6791L1.74505 83.3467L1.57885 83.0144L1.32956 82.5989L1.24646 82.2665L1.08027 81.7679L0.914072 81.4355L0.747877 81.02L0.581682 80.6876L0.498585 80.189L0.415487 79.7736L0.33239 79.275L0.249292 78.8595L0.166195 78.444L0.0830974 77.9454L0 77.3637V76.9482V76.3666L0.0830974 75.868L0.166195 75.3694V74.8708L0.33239 74.3722L0.415487 73.9567L0.581682 73.4581L0.747877 73.0427L0.830974 72.7103L1.08027 72.2948L1.24646 71.8793L1.49575 71.5469L1.66195 71.1314L1.82814 70.799L1.99434 70.3835L2.24363 70.1343L2.49292 69.7188L2.65912 69.4695L2.90841 69.1371L3.3239 68.4723L3.49009 68.1399L3.65629 67.8075L3.90558 67.5582L4.07177 67.1427L4.32107 66.8934L4.48726 66.5611L4.65346 66.2287L4.81965 65.8963L4.98585 65.5639L5.15204 65.3146L5.23514 65.0653L5.40133 64.816L5.48443 64.6498V64.4836L5.56753 64.3174L5.65063 64.1512L5.73372 63.9019V63.8188L5.81682 63.6526V63.4865L5.89992 63.4034V63.2372V63.071L5.98302 62.9879V62.8217V62.7386V62.4893V62.4062V62.24V62.0738L5.89992 61.9076V61.7414V61.5752L5.81682 61.3259L5.73372 61.0766V60.9104V60.6611L5.65063 60.4118L5.56753 60.0795L5.48443 59.8302V59.4978L5.31824 59.2485L5.23514 58.9161V58.5837L5.15204 58.3344L5.06894 57.9189L4.98585 57.5865L4.90275 57.3372L4.81965 56.9218V56.6725L4.73655 56.257L4.57036 55.9246V55.5922L4.48726 55.2598L4.40416 54.8443V54.4288L4.32107 54.0964V53.681V53.2655L4.23797 52.9331V52.5176V52.1021V51.6866V51.2711L4.32107 50.8556V50.3571V49.9416L4.40416 49.443L4.57036 49.0275V48.612L4.73655 48.1134L4.81965 47.6979L4.98585 47.1994L5.06894 46.7839L5.23514 46.3684L5.48443 45.9529L5.73372 45.5374L5.89992 45.1219L6.14921 44.7895L6.3985 44.374L6.6478 44.1247L6.89709 43.7093L7.14638 43.46L7.47877 43.1276L7.72806 42.8783L8.06045 42.5459L8.30974 42.2966L8.64213 42.0473L8.97452 41.8811L9.22382 41.6318L9.47311 41.4656L9.8055 41.2163L10.1379 41.0501L10.3872 40.8008L10.6365 40.6347L10.9689 40.4685L11.2182 40.3023L11.5505 40.1361L11.7998 39.8868L12.0491 39.7206L12.3815 39.5544L12.6308 39.3882L12.9632 39.222L13.2125 38.9727L13.4618 38.7234L13.7111 38.5572L13.9604 38.391L14.2097 38.3079L14.3759 38.0586L14.5421 37.9755L14.7913 37.8093L14.8744 37.6431L15.0406 37.56L15.1237 37.3939H15.2068L15.2899 37.2277V37.1446L15.373 37.0615L15.4561 36.9784V36.8953L15.5392 36.8122V36.7291L15.6223 36.646L15.7054 36.5629V36.3967V36.2305L15.7885 36.1474L15.8716 35.9812L15.9547 35.7319V35.4826V35.2333L16.0378 34.984L16.1209 34.8178L16.204 34.4854V34.1531V33.8207L16.2871 33.4883L16.3702 33.1559L16.4533 32.9066V32.5742V32.3249L16.5364 31.9925L16.6195 31.7432V31.3277L16.7026 31.0784L16.7857 30.7461L16.8688 30.4137V30.1644L16.9519 29.7489L17.1181 29.4165V29.0841L17.2843 28.7517L17.3674 28.4193L17.5336 28.0869L17.6167 27.7546L17.7829 27.4222L17.866 27.0898L18.0321 26.6743L18.1983 26.425L18.3645 26.0095L18.5307 25.6771L18.78 25.3447L18.9462 25.0123L19.1955 24.5968L19.3617 24.3476L19.611 23.9321L19.8603 23.5997L20.1096 23.2673L20.3589 22.9349L20.6913 22.6025L21.0237 22.2701L21.356 22.0208L21.6053 21.6884L22.0208 21.4391L22.3532 21.1068L22.6856 20.9406L23.1011 20.6913L23.4335 20.5251L23.7659 20.3589L24.0983 20.1096L24.5137 20.0265L24.8461 19.8603L25.2616 19.6941H25.594L25.9264 19.5279L26.2588 19.4448L26.6743 19.3617L26.9236 19.2786L27.3391 19.1955L27.5884 19.1124L27.9207 19.0293L28.2531 18.9462H28.5855L29.2503 18.8631L29.5827 18.6969H29.9151H30.1644L30.5799 18.5307H30.9123L31.1615 18.4476L31.4939 18.3645L31.8263 18.2814H32.0756L32.3249 18.1983L32.5742 18.1152L32.8235 18.0321L32.9897 17.949L33.1559 17.866L33.4052 17.7829H33.4883L33.6545 17.6998L33.8207 17.6167H33.9038L33.9869 17.5336L34.153 17.4505V17.3674H34.3192V17.2843L34.4854 17.2012L34.5685 17.1181L34.6516 17.035L34.7347 16.8688L34.8178 16.7857L34.984 16.6195L35.0671 16.4533L35.2333 16.2871L35.3164 16.1209L35.4826 15.9547L35.6488 15.7054L35.815 15.4561L35.9812 15.2068L36.2305 14.8744L36.3136 14.6252L36.4798 14.3759L36.7291 14.1266L36.8122 13.8773L36.9784 13.628L37.1446 13.2956L37.3939 13.0463L37.56 12.7139L37.7262 12.4646L37.8924 12.2153L38.0586 11.8829L38.3079 11.5505L38.5572 11.3013L38.7234 11.052L38.9727 10.7196L39.222 10.3872L39.4713 10.1379L39.7206 9.8886L39.8868 9.55621L40.2192 9.22382L40.4685 8.97452L40.8008 8.72523L41.1332 8.39284L41.4656 8.06045L41.798 7.81116L42.1304 7.56187L42.4628 7.31258L42.7952 7.06328L43.2107 6.81399L43.6262 6.5647L43.9586 6.31541L44.4571 6.14921L44.8726 5.89992L45.4543 5.65063L45.9529 5.48443L46.4515 5.31824L46.9501 5.23514L47.3655 5.15204L47.8641 5.06894L48.3627 4.98585H48.8613H49.2768H49.7754L50.1909 5.06894H50.6894L51.1049 5.15204L51.5204 5.23514H51.9359L52.2683 5.40133L52.7669 5.48443H53.0993L53.4317 5.65063H53.8471L54.2626 5.73372L54.595 5.89992H55.0105L55.3429 5.98302L55.7584 6.14921H56.0908L56.5063 6.23231L56.9218 6.31541L57.2541 6.3985H57.6696H58.002L58.4175 6.4816H58.7499H58.9992H59.2485H59.4978L59.5809 6.3985H59.7471H59.9133L59.9964 6.31541L60.2456 6.23231L60.4118 6.14921L60.6611 5.98302L60.9104 5.89992L61.2428 5.65063L61.5752 5.40133L61.9907 5.15204L62.24 4.98585L62.4893 4.81965L62.7386 4.57036L62.9879 4.40417L63.2372 4.23797L63.4864 4.07178L63.8188 3.82248L64.0681 3.57319L64.4005 3.407L64.6498 3.2408L64.9822 3.07461L65.3146 2.82531L65.5639 2.65912Z" fill="#B8B8B6" fill-opacity="0.1"/>
<path fill-rule="evenodd" clip-rule="evenodd" d="M129.466 73.5412L137.527 66.8103L128.22 61.9076L134.784 53.6809L124.646 50.7725L129.3 41.2994L118.747 40.7177L121.406 30.4967L111.018 31.9925L111.434 21.5222L101.628 25.1785L99.7172 14.7913L90.8258 20.4419L86.9202 10.7195L79.4414 18.0321L73.5415 9.30688L67.7247 18.0321L60.2459 10.7195L56.3403 20.4419L47.4489 14.7913L45.7039 25.1785L35.8153 21.5222L36.2307 31.9925L25.8436 30.4967L28.5027 40.7177L18.0324 41.3825L22.6859 50.8556L12.4649 53.5978L19.0296 61.8245L9.72266 66.7272L17.7831 73.4581L9.72266 80.1059L19.0296 85.0087L12.4649 93.2353L22.6028 96.1437L17.9493 105.534L28.4196 106.199L25.7605 116.42L36.1476 114.924L35.8153 125.477L45.7039 121.821L47.532 132.208L56.4234 126.557L60.329 136.363L67.8078 128.967L73.6246 137.692L79.5245 128.967L87.0033 136.363L90.9089 126.557L99.8003 132.208L101.628 121.821L111.351 125.477L110.935 115.007L121.323 116.503L118.663 106.282L129.134 105.617L124.48 96.2268L134.618 93.3184L128.053 85.0918L137.36 80.189L129.466 73.5412ZM73.6246 124.314C45.5377 124.314 22.6859 101.462 22.6859 73.375C22.6859 45.205 45.5377 22.4363 73.6246 22.4363C101.795 22.4363 124.563 45.2881 124.563 73.375C124.563 101.462 101.795 124.314 73.6246 124.314Z" fill="#B8B8B6"/>
<path d="M121.654 73.3749C121.571 86.6705 116.253 98.5534 107.611 107.279C98.8856 116.004 86.8365 121.322 73.624 121.322V119.162C86.3379 119.162 97.7222 114.01 106.115 105.7C114.342 97.3901 119.494 85.9226 119.494 73.2918C119.494 60.5779 114.342 49.1935 106.115 40.8007C97.8053 32.574 86.3379 27.422 73.624 27.422V25.2615C86.9196 25.2615 98.8856 30.5797 107.611 39.3049C116.253 48.1133 121.571 60.1624 121.654 73.3749ZM73.624 121.322C60.4115 121.322 48.4455 115.921 39.7202 107.279C30.995 98.5534 25.6768 86.6705 25.6768 73.3749C25.6768 60.0793 31.0781 48.1133 39.7202 39.388C48.4455 30.7459 60.4115 25.4277 73.624 25.4277V27.5882C60.9932 27.5882 49.5257 32.7402 41.216 40.9669C32.9062 49.2766 27.7542 60.7441 27.7542 73.458C27.7542 86.0888 32.9062 97.5563 41.216 105.866C49.5257 114.176 60.9932 119.328 73.624 119.328V121.322Z" fill="#B8B8B6"/>
<path d="M68.8882 106.697C68.8882 106.614 68.9713 106.614 68.9713 106.531C68.9713 106.365 68.9713 106.365 68.8882 106.282V106.199C68.8051 106.116 68.722 106.116 68.6389 106.032C68.6389 106.032 68.4727 106.032 68.2234 105.949C67.9741 105.949 67.6417 105.866 67.3924 105.783C67.1431 105.7 66.8107 105.617 66.5614 105.534C66.229 105.451 66.146 105.368 66.146 105.368C66.0629 105.368 65.8967 105.368 65.8136 105.368C65.7305 105.451 65.7305 105.451 65.7305 105.617C65.7305 105.7 65.7305 105.783 65.7305 105.866C65.8136 105.949 65.8136 105.949 65.9798 105.949C65.9798 105.949 66.0629 105.949 66.146 106.032C66.3121 106.032 66.3952 106.032 66.4783 106.032C66.6445 106.116 66.7276 106.199 66.8107 106.282C66.8107 106.365 66.8107 106.448 66.8107 106.614L65.8967 110.27C65.8967 110.437 65.8136 110.603 65.7305 110.686C65.6474 110.769 65.5643 110.769 65.3981 110.686C65.315 110.686 65.2319 110.686 65.0657 110.603C64.8995 110.52 64.8995 110.52 64.8995 110.52C64.8164 110.437 64.7333 110.437 64.6502 110.52C64.5671 110.603 64.5671 110.686 64.484 110.686C64.484 110.852 64.484 110.852 64.5671 110.935C64.6502 111.018 64.6502 111.101 64.8164 111.101C64.8164 111.184 64.8995 111.184 65.2319 111.268C65.5643 111.268 65.8136 111.351 66.146 111.434C66.3952 111.517 66.6445 111.6 66.9769 111.6C67.2262 111.683 67.3093 111.766 67.3093 111.766C67.4755 111.766 67.5586 111.766 67.6417 111.683C67.7248 111.683 67.8079 111.6 67.8079 111.517C67.891 111.434 67.891 111.351 67.8079 111.268C67.7248 111.184 67.6417 111.184 67.5586 111.184C67.5586 111.184 67.4755 111.184 67.3924 111.184C67.3093 111.101 67.1431 111.101 67.06 111.101C66.9769 111.018 66.8107 110.935 66.8107 110.935C66.7276 110.769 66.7276 110.686 66.8107 110.52L67.7248 106.863C67.8079 106.697 67.891 106.531 67.891 106.448C68.0572 106.365 68.0572 106.365 68.3065 106.448C68.3896 106.448 68.3896 106.531 68.5558 106.531C68.722 106.614 68.722 106.614 68.722 106.614C68.6389 106.78 68.6389 106.78 68.8882 106.697ZM72.3783 108.608C72.3783 108.692 72.3783 108.775 72.4614 108.775C72.5445 108.858 72.6276 108.858 72.6276 108.941C72.7937 108.941 72.7937 108.858 72.8768 108.775C72.9599 108.775 72.9599 108.608 72.9599 108.525C72.9599 108.525 72.9599 108.442 73.043 108.442C73.043 108.11 73.043 107.777 73.043 107.445C73.043 107.279 73.1261 107.113 73.1261 107.03C73.2092 106.863 73.2092 106.863 73.2092 106.863C73.2092 106.78 73.2092 106.697 73.1261 106.697C73.043 106.614 72.9599 106.614 72.8768 106.531C72.7937 106.531 72.7107 106.614 72.7107 106.697C72.6276 106.697 72.6276 106.863 72.6276 106.863V106.947C72.4614 106.78 72.2121 106.614 71.9628 106.614C71.7966 106.531 71.5473 106.448 71.298 106.448C70.7163 106.365 70.3008 106.531 69.8853 106.78C69.4698 107.113 69.3037 107.445 69.2206 107.944C69.2206 108.193 69.2206 108.442 69.3037 108.608C69.4699 108.775 69.5529 108.941 69.7191 109.19C69.8853 109.356 70.3008 109.523 70.9656 109.689H71.0487C71.7135 109.855 72.0459 110.104 72.129 110.27C72.2952 110.437 72.2952 110.686 72.2952 110.935C72.2121 111.268 72.129 111.6 71.8797 111.766C71.6304 111.849 71.298 112.015 70.8825 111.932C70.467 111.849 70.1346 111.766 69.8853 111.517C69.636 111.268 69.4698 110.852 69.5529 110.52V110.27C69.5529 110.104 69.5529 109.938 69.4698 109.855C69.4698 109.772 69.3037 109.689 69.3037 109.689C69.1375 109.689 69.1375 109.772 69.0544 109.855C68.9713 109.938 68.8882 109.938 68.8882 110.187C68.8882 110.187 68.8882 110.354 68.8882 110.52C68.8882 110.769 68.8882 111.018 68.8051 111.184C68.8051 111.351 68.8051 111.517 68.722 111.683C68.722 111.849 68.6389 112.015 68.6389 112.015C68.6389 112.099 68.6389 112.182 68.722 112.265V112.348C68.8051 112.431 68.8051 112.431 68.9713 112.514C69.0544 112.514 69.1375 112.431 69.2206 112.431C69.3037 112.348 69.3037 112.265 69.3037 112.099C69.3037 112.099 69.3037 112.099 69.3037 112.015V111.932C69.4699 112.099 69.7191 112.265 69.9684 112.348C70.1346 112.431 70.467 112.514 70.7994 112.514C71.3811 112.597 71.8797 112.431 72.2952 112.099C72.7107 111.766 72.9599 111.434 72.9599 110.769C73.043 110.52 72.9599 110.354 72.8768 110.187C72.7937 110.021 72.7107 109.772 72.5445 109.606C72.3783 109.439 71.9628 109.273 71.3811 109.107C71.298 109.107 71.2149 109.024 71.2149 109.024C70.6332 108.858 70.3008 108.608 70.0515 108.525C69.9684 108.359 69.8853 108.11 69.8853 107.861C69.9684 107.528 70.0515 107.279 70.3008 107.196C70.467 107.03 70.7163 106.947 71.1318 106.947C71.4642 107.03 71.7966 107.113 71.9628 107.279C72.2121 107.445 72.3783 107.694 72.3783 107.944C72.3783 108.11 72.3783 108.193 72.3783 108.359C72.2952 108.359 72.2952 108.525 72.3783 108.608ZM63.8192 108.525C63.7361 108.442 63.653 108.442 63.5699 108.525C63.4868 108.608 63.4037 108.692 63.4037 108.775C63.4037 108.775 63.3206 108.941 63.3206 109.107C63.2375 109.273 63.2375 109.356 63.1544 109.523C63.0713 109.772 62.9882 109.938 62.8221 110.021C62.6559 110.104 62.4066 110.104 62.1573 109.938L61.2432 109.606C61.077 109.523 60.9108 109.523 60.9108 109.356C60.8277 109.273 60.8277 109.107 60.9939 108.858L62.1573 105.451C62.2404 105.285 62.2404 105.118 62.3235 105.118C62.4897 105.035 62.5728 105.035 62.739 105.118C62.739 105.118 62.8221 105.201 62.9051 105.285C62.9882 105.285 63.0713 105.368 63.0713 105.368C63.1544 105.451 63.2375 105.451 63.3206 105.368C63.4037 105.285 63.4868 105.285 63.4868 105.201C63.4868 105.118 63.4868 105.035 63.4037 104.952C63.3206 104.786 63.2375 104.786 63.0713 104.703C62.9883 104.703 62.8221 104.62 62.4897 104.537C62.2404 104.454 61.9911 104.454 61.8249 104.37C61.6587 104.287 61.4094 104.204 61.1601 104.121C60.9108 103.955 60.7446 103.955 60.7446 103.955C60.5784 103.872 60.4953 103.872 60.4122 103.872C60.3291 103.955 60.3291 103.955 60.3291 104.121C60.246 104.204 60.246 104.287 60.3291 104.37C60.3291 104.454 60.4122 104.537 60.4953 104.537C60.4953 104.537 60.5784 104.62 60.6615 104.62C60.8277 104.62 60.9108 104.703 60.9939 104.703C61.077 104.786 61.2432 104.869 61.2432 104.952C61.3263 105.035 61.3263 105.201 61.2432 105.368L59.9967 108.941C59.9967 109.107 59.8305 109.19 59.8305 109.273C59.7474 109.356 59.5813 109.356 59.4151 109.273C59.332 109.19 59.332 109.19 59.1658 109.107C59.0827 109.024 58.9996 109.024 58.9996 109.024C58.9165 108.941 58.8334 108.941 58.7503 109.024C58.6672 109.024 58.6672 109.024 58.5841 109.107C58.5841 109.107 58.501 109.19 58.501 109.273C58.4179 109.439 58.4179 109.439 58.501 109.523C58.501 109.606 58.5841 109.606 58.5841 109.606C58.6672 109.689 58.7503 109.689 58.7503 109.689C58.7503 109.689 58.8334 109.689 58.9165 109.689L58.9996 109.772C59.332 109.855 59.6643 109.855 59.9136 110.021L61.908 110.686C62.1573 110.769 62.4066 110.852 62.6559 111.018C62.739 111.018 62.739 111.101 62.739 111.101C62.9052 111.101 62.9882 111.101 63.1544 111.101C63.2375 111.018 63.2375 110.935 63.3206 110.769C63.3206 110.686 63.4037 110.603 63.4037 110.437C63.4868 110.27 63.5699 110.104 63.5699 110.104C63.653 109.938 63.653 109.772 63.7361 109.523C63.8192 109.356 63.9023 109.19 63.9023 109.19C63.9023 109.107 63.9023 109.024 63.9023 108.858C64.0685 108.608 63.9854 108.525 63.8192 108.525ZM58.0024 105.368C58.2517 105.534 58.5841 105.534 58.7503 105.368C58.8334 105.368 58.8334 105.368 58.8334 105.368C58.9165 105.285 59.0827 105.285 59.1658 105.201C59.332 105.035 59.332 104.952 59.4982 104.786C59.6643 104.37 59.7474 103.872 59.5813 103.54C59.4982 103.373 59.4151 103.207 59.1658 103.124C59.0827 102.958 58.9996 102.875 58.8334 102.792C58.7503 102.709 58.5841 102.625 58.501 102.542C58.4179 102.459 58.0855 102.376 57.7531 102.127C57.4207 102.044 57.0883 101.878 56.9221 101.794C56.839 101.711 56.6728 101.628 56.5066 101.545C56.5066 101.545 56.4236 101.462 56.3405 101.462C56.0912 101.296 56.0081 101.213 56.0081 101.213C55.8419 101.13 55.7588 101.047 55.6757 101.13C55.5926 101.13 55.5095 101.213 55.5095 101.296C55.4264 101.379 55.4264 101.462 55.4264 101.462C55.5095 101.545 55.5095 101.545 55.5926 101.628C55.6757 101.628 55.7588 101.711 55.8419 101.711C55.925 101.794 56.0081 101.794 56.0912 101.794C56.2574 101.878 56.2574 101.961 56.3405 102.127C56.3405 102.21 56.2574 102.376 56.2574 102.542L54.5954 105.7C54.5123 105.949 54.3461 106.032 54.263 106.116C54.1799 106.199 54.0137 106.116 53.8475 106.032C53.7644 105.949 53.7644 105.949 53.6813 105.949C53.5982 105.866 53.5151 105.783 53.5151 105.783C53.3489 105.7 53.3489 105.7 53.2658 105.7C53.1827 105.7 53.0997 105.783 53.0997 105.783C53.0166 105.866 53.0166 105.949 53.0997 106.032V106.116C53.1828 106.199 53.2658 106.199 53.2658 106.282C53.2658 106.282 53.432 106.365 53.6813 106.448C53.9306 106.614 54.0968 106.697 54.3461 106.863C54.5123 106.947 54.7616 107.113 55.094 107.279C55.4264 107.445 55.5926 107.611 55.7588 107.694C56.0912 107.861 56.3405 107.944 56.5897 108.027C56.9221 108.11 57.1714 108.193 57.5038 108.11C58.0024 108.027 58.3348 107.694 58.5841 107.279C58.7503 106.863 58.8334 106.531 58.7503 106.199C58.501 105.949 58.3348 105.7 58.0024 105.368ZM56.4236 103.706L56.839 102.958C56.9221 102.792 57.0052 102.709 57.1714 102.709C57.3376 102.625 57.5869 102.792 57.8362 102.958C58.3348 103.207 58.6672 103.456 58.7503 103.623C58.9165 103.872 58.9165 104.121 58.7503 104.37C58.6672 104.537 58.501 104.786 58.3348 104.786C58.1686 104.952 57.9193 104.952 57.67 104.869C57.5038 104.786 57.4207 104.786 57.2545 104.703C57.0883 104.537 56.9221 104.537 56.6728 104.37C56.5897 104.287 56.5067 104.204 56.3405 104.204L56.2574 104.121C56.1743 103.955 56.1743 103.955 56.1743 103.872L56.4236 103.706ZM57.7531 106.947C57.5869 107.279 57.3376 107.528 57.0052 107.611C56.839 107.611 56.6728 107.611 56.4236 107.611C56.2574 107.528 56.0081 107.445 55.8419 107.362C55.4264 107.113 55.1771 106.947 55.0109 106.78C54.9278 106.614 54.9278 106.448 55.094 106.282L55.6757 105.118C55.7588 104.952 55.925 104.786 56.0912 104.786C56.1743 104.786 56.2574 104.869 56.5066 104.952C56.5897 105.035 56.6728 105.035 56.839 105.118C57.4207 105.451 57.67 105.783 57.9193 105.949C58.0024 106.199 57.9193 106.614 57.7531 106.947ZM41.2998 91.6566C41.466 91.5735 41.6322 91.4904 41.7153 91.4904C41.7984 91.4073 41.8815 91.3242 41.8815 91.3242C41.9646 91.158 41.9646 91.158 41.8815 91.0749C41.7984 90.9918 41.7153 90.9918 41.7153 90.9087C41.5491 90.9087 41.5491 90.9087 41.3829 90.9918C41.2998 90.9918 41.2167 91.0749 41.1336 91.0749C41.0505 91.2411 40.8843 91.2411 40.7181 91.3242C40.4688 91.4904 40.3026 91.4904 40.0534 91.4904C39.9703 91.4073 39.8041 91.2411 39.6379 90.9087L39.0562 89.6623C38.9731 89.4961 38.9731 89.3299 38.9731 89.2468C39.0562 89.0806 39.1393 89.0806 39.3886 88.9144L40.635 88.2496C40.7181 88.1665 40.8012 88.1665 40.8843 88.1665C40.9674 88.2496 41.0505 88.3327 41.1336 88.4158C41.2998 88.8313 41.3829 89.0806 41.3829 89.1637C41.3829 89.2468 41.2167 89.413 40.9674 89.4961C40.9674 89.5791 40.8843 89.5792 40.8843 89.5792C40.8012 89.6623 40.7181 89.6623 40.7181 89.6623C40.5519 89.7453 40.5519 89.7453 40.5519 89.8284C40.5519 89.9115 40.5519 89.9946 40.5519 89.9946C40.635 90.0777 40.7181 90.0777 40.8012 90.0777C40.8843 90.0777 40.9674 90.0777 41.2167 89.9946C41.2998 89.9946 41.3829 89.9115 41.5491 89.8284C41.7153 89.7453 41.9646 89.5791 42.0477 89.4961C42.1308 89.413 42.3801 89.3299 42.6294 89.2468C42.7125 89.1637 42.7956 89.1637 42.8787 89.0806C42.9618 89.0806 42.9618 89.0806 42.9618 88.9975C43.128 88.9144 43.2111 88.8313 43.2942 88.8313C43.3773 88.6651 43.3773 88.6651 43.3773 88.582C43.2942 88.4989 43.2111 88.4158 43.2111 88.4158C43.128 88.4158 43.0449 88.4158 42.9618 88.4989H42.8787C42.7956 88.582 42.7125 88.582 42.7125 88.6651C42.6294 88.7482 42.6294 88.7482 42.5463 88.7482C42.3801 88.8313 42.1308 88.9144 42.1308 88.8313C41.9646 88.7482 41.7984 88.4989 41.7153 88.1665C41.6322 88.0003 41.6322 88.0003 41.6322 87.9172C41.7153 87.751 41.7153 87.751 41.8815 87.6679L42.7956 87.2524C42.8787 87.1693 42.9618 87.1693 43.0449 87.1693C43.128 87.1693 43.128 87.1693 43.2111 87.1693C43.2942 87.1693 43.3773 87.2524 43.5434 87.5017L44.1251 88.582C44.2913 88.9144 44.2913 89.1637 44.2913 89.2468C44.2082 89.413 44.1251 89.5792 43.7927 89.6623C43.7096 89.7453 43.6265 89.8284 43.4603 89.8284C43.2942 89.9115 43.2111 89.9115 43.128 89.9946C43.0449 89.9946 43.0449 89.9946 43.0449 90.0777C42.9618 90.1608 42.9618 90.1608 42.9618 90.1608C42.8787 90.327 42.8787 90.327 42.9618 90.4101C42.9618 90.4932 42.9618 90.4932 43.0449 90.5763C43.0449 90.5763 43.128 90.5763 43.128 90.6594C43.2111 90.6594 43.2942 90.6594 43.3773 90.5763C43.4603 90.4932 43.5434 90.4101 43.7096 90.4101C43.8758 90.2439 44.1251 90.1608 44.2913 90.0777C44.3744 89.9946 44.4575 89.9946 44.6237 89.9115C44.7068 89.8284 44.873 89.7453 44.9561 89.7453C45.1223 89.6622 45.1223 89.5791 45.2054 89.4961C45.2054 89.3299 45.2054 89.2468 45.1223 89.1637C45.1223 89.0806 45.1223 89.0806 45.1223 89.0806C44.9561 88.8313 44.7899 88.582 44.7068 88.3327L43.8758 86.6707L43.6265 86.2553C43.5434 86.0891 43.4603 85.8398 43.3773 85.5905C43.2942 85.3412 43.2111 85.175 43.128 85.0919C43.128 85.0088 43.0449 85.0088 43.0449 84.9257C42.9618 84.8426 42.9618 84.8426 42.8787 84.8426C42.7956 84.7595 42.7125 84.7595 42.6294 84.8426C42.5463 84.9257 42.4632 84.9257 42.4632 85.0088C42.4632 85.0919 42.4632 85.175 42.5463 85.2581C42.5463 85.3412 42.6294 85.3412 42.7125 85.4243C42.7956 85.5074 42.7956 85.5905 42.8787 85.5905C42.9618 85.7567 42.9618 85.9229 42.9618 86.006C42.8787 86.1722 42.8787 86.2553 42.6294 86.3384L39.3886 88.0003C39.2224 88.0834 38.9731 88.1665 38.9731 88.0834C38.89 88.0834 38.8069 88.0003 38.6407 87.751C38.6407 87.6679 38.5576 87.5848 38.5576 87.5848C38.4745 87.5017 38.4745 87.4186 38.3914 87.4186C38.3914 87.2524 38.3083 87.2524 38.2252 87.2524C38.1421 87.2524 38.1421 87.2524 38.059 87.2524C37.8928 87.3355 37.8928 87.3355 37.8928 87.5017C37.8097 87.5848 37.8928 87.5848 37.9759 87.751C37.9759 87.751 37.9759 87.8341 38.059 87.9172C38.2252 88.1665 38.3914 88.4989 38.5576 88.7482L39.721 90.9087C39.8041 91.158 39.9703 91.4073 40.0534 91.6566C40.0534 91.7397 40.1365 91.7397 40.1365 91.7397C40.2195 91.9059 40.3026 91.9059 40.3857 91.989C40.4688 91.989 40.5519 91.989 40.7181 91.9059C40.8012 91.8228 40.8843 91.7397 41.0505 91.7397C41.2167 91.6566 41.2998 91.6566 41.3829 91.5735C40.9674 91.8228 41.1336 91.7397 41.2998 91.6566ZM44.873 95.7284C44.9561 95.5622 45.0392 95.396 45.0392 95.1467C45.1223 94.8974 44.9561 94.4819 44.7068 93.9002C44.6237 93.8171 44.5406 93.734 44.5406 93.734C44.2913 93.1523 44.2082 92.82 44.2082 92.5707C44.2082 92.4045 44.2913 92.1552 44.6237 91.989C44.873 91.8228 45.1223 91.7397 45.3716 91.8228C45.5378 91.9059 45.704 91.989 45.7871 92.0721C45.8702 92.1552 45.9533 92.1552 46.0364 92.3214C46.2026 92.6538 46.3688 92.903 46.3688 93.1523C46.3688 93.4016 46.2857 93.6509 46.1195 93.8171C46.0364 93.9002 45.9533 93.9833 45.7871 94.0664L45.704 94.1495C45.6209 94.3157 45.4547 94.3157 45.3716 94.3988C45.3716 94.4819 45.2885 94.4819 45.2885 94.565C45.2885 94.6481 45.3716 94.7312 45.3716 94.7312C45.4547 94.8143 45.5378 94.8974 45.6209 94.8974H45.704C45.704 94.8143 45.7871 94.8143 45.8702 94.7312C45.8702 94.7312 45.9533 94.7312 45.9533 94.6481C46.2857 94.4819 46.535 94.2326 46.7842 93.9833C46.8673 93.9002 47.0335 93.8171 47.1997 93.8171C47.2828 93.734 47.3659 93.6509 47.3659 93.6509C47.449 93.5678 47.5321 93.5678 47.5321 93.4847C47.5321 93.4016 47.449 93.3185 47.3659 93.3185C47.3659 93.2354 47.2828 93.1523 47.1997 93.1523C47.1166 93.1523 47.0335 93.1523 46.9504 93.2354L46.8673 93.3185C46.9504 93.0692 46.8673 92.82 46.7842 92.6538C46.7011 92.4045 46.6181 92.1552 46.4519 91.989C46.2026 91.6566 45.9533 91.4073 45.704 91.3242C45.6209 91.2411 45.4547 91.2411 45.2885 91.2411C44.873 91.0749 44.4575 91.2411 44.042 91.4904C43.7927 91.6566 43.7096 91.8228 43.5434 91.989C43.4603 92.2383 43.4603 92.4045 43.4603 92.6538C43.4603 92.9031 43.5434 93.3185 43.8758 93.9002L43.9589 93.9833C44.2082 94.6481 44.3744 94.9805 44.2913 95.2298C44.2913 95.396 44.1251 95.5622 43.8758 95.8115C43.5434 95.9777 43.2942 96.0608 43.0449 95.9777C42.9618 95.9777 42.8787 95.9777 42.7956 95.8946C42.6294 95.7284 42.3801 95.5622 42.2139 95.396C41.9646 94.9805 41.7984 94.6481 41.8815 94.3157C41.9646 93.9833 42.1308 93.6509 42.4632 93.4847L42.7125 93.3185C42.7125 93.2354 42.7125 93.2354 42.7956 93.2354C42.8787 93.1523 42.8787 93.0692 42.9618 92.9861C42.9618 92.9031 42.9618 92.82 42.8787 92.7369C42.7956 92.6538 42.7956 92.6538 42.7956 92.6538C42.7125 92.6538 42.7125 92.6538 42.6294 92.6538C42.5463 92.6538 42.4632 92.6538 42.297 92.7369C42.297 92.7369 42.2139 92.82 42.0477 92.9031C41.8815 93.0692 41.7153 93.2354 41.466 93.3185C41.3829 93.4016 41.2167 93.4847 41.0505 93.5678C40.8843 93.6509 40.8012 93.734 40.7181 93.734C40.635 93.8171 40.635 93.9002 40.635 93.9833C40.5519 94.0664 40.635 94.1495 40.635 94.2326C40.7181 94.3157 40.8012 94.3157 40.8843 94.3157C40.9674 94.3157 40.9674 94.3157 41.1336 94.2326C41.1336 94.1495 41.1336 94.1495 41.2167 94.1495C41.2167 94.1495 41.2167 94.0664 41.2998 94.0664C41.2998 94.3157 41.2998 94.565 41.3829 94.8143C41.466 95.1467 41.5491 95.396 41.7984 95.6453C42.1308 96.0608 42.4632 96.31 42.8787 96.4762C42.9618 96.5593 42.9618 96.5593 43.0449 96.5593C43.5434 96.7255 43.9589 96.5593 44.4575 96.227C44.6237 96.0608 44.7899 95.8946 44.873 95.7284ZM46.4519 100.299C46.3688 100.216 46.2857 100.216 46.2857 100.216C46.1195 100.049 46.0364 99.8832 46.0364 99.8001C46.0364 99.717 46.2026 99.5508 46.2857 99.4677L48.9448 97.0579C49.111 96.8917 49.2772 96.8086 49.3603 96.8086C49.4434 96.8086 49.5265 96.8917 49.7758 97.0579C50.025 97.3072 50.1912 97.5565 50.1912 97.7227C50.1912 97.8889 50.1081 98.0551 49.8589 98.2213C49.7758 98.3875 49.6927 98.3875 49.5265 98.5537C49.3603 98.6368 49.3603 98.7199 49.2772 98.7199C49.1941 98.803 49.111 98.8861 49.111 98.9692C49.111 99.0523 49.111 99.1354 49.1941 99.2185C49.2772 99.3016 49.3603 99.3016 49.4434 99.3016C49.5265 99.3016 49.6096 99.2185 49.6927 99.2185C49.6927 99.2185 49.8589 99.0523 49.9419 98.9692C50.1081 98.803 50.1912 98.6368 50.3574 98.5537C50.4405 98.4706 50.5236 98.4706 50.6898 98.3044C50.7729 98.2213 50.856 98.2213 50.9391 98.1382C51.0222 98.1382 51.0222 98.0551 51.0222 98.0551C51.1053 97.972 51.1053 97.8889 51.1053 97.8058C51.1053 97.7227 51.0222 97.6396 51.0222 97.5565C51.0222 97.4734 50.9391 97.4734 50.9391 97.4734C50.9391 97.3903 50.9391 97.3903 50.856 97.3072C50.4405 96.9748 50.1912 96.6424 49.7758 96.227L49.2772 95.6453C48.8617 95.3129 48.6124 94.9805 48.28 94.565C48.1969 94.4819 48.1969 94.4819 48.1969 94.4819C48.0307 94.3157 47.9476 94.3157 47.8645 94.3157C47.7814 94.3157 47.6152 94.3988 47.449 94.3988C47.449 94.4819 47.2828 94.4819 47.2828 94.6481C47.1997 94.7312 47.1166 94.8974 47.0335 94.9805C46.9504 95.0636 46.7011 95.1467 46.6181 95.396C46.4519 95.5622 46.2857 95.5622 46.2857 95.5622C46.2026 95.6453 46.1195 95.7284 46.1195 95.8115C46.0364 95.9777 46.1195 95.9777 46.2026 96.0608C46.2857 96.1438 46.3688 96.1438 46.4519 96.1438C46.535 96.0608 46.6181 96.0608 46.7011 96.0608C46.7842 95.9777 46.8673 95.8946 46.8673 95.8115C46.9504 95.6453 47.1166 95.5622 47.1997 95.4791C47.3659 95.3129 47.6152 95.1467 47.7814 95.2298C47.9476 95.2298 48.1969 95.3129 48.4462 95.6453C48.6124 95.8115 48.6955 95.9777 48.6955 96.0608C48.6955 96.1438 48.6124 96.31 48.3631 96.4762L45.7871 98.8861V98.9692C45.6209 99.0523 45.4547 99.1354 45.3716 99.1354C45.2885 99.1354 45.1223 99.0523 44.9561 98.8861C44.873 98.8861 44.873 98.803 44.873 98.7199C44.7899 98.6368 44.7899 98.5537 44.7068 98.5537C44.6237 98.4706 44.5406 98.4706 44.5406 98.4706C44.3744 98.4706 44.3744 98.5537 44.2913 98.5537C44.2082 98.6368 44.1251 98.6368 44.1251 98.803C44.1251 98.8861 44.2082 98.9692 44.2913 99.0523C44.3744 99.1354 44.5406 99.3016 44.7899 99.4677C44.9561 99.717 45.2054 99.8832 45.2885 99.9663C45.3716 100.133 45.6209 100.382 45.7871 100.631L45.8702 100.714C46.0364 100.88 46.1195 101.047 46.2026 101.13C46.2857 101.213 46.3688 101.296 46.4519 101.296C46.535 101.379 46.6181 101.296 46.7011 101.213C46.7842 101.13 46.7842 101.047 46.7842 100.964C46.7842 100.88 46.7011 100.797 46.7011 100.714C46.6181 100.382 46.535 100.382 46.4519 100.299ZM52.518 105.285C52.4349 105.285 52.4349 105.285 52.3518 105.201H52.2687C52.1025 105.035 52.1025 104.952 52.0194 104.869C52.0194 104.703 52.0194 104.62 52.1856 104.37L52.9335 102.127L53.5982 100.133C53.6813 99.8832 53.6813 99.717 53.6813 99.6339C53.5982 99.4678 53.5982 99.3847 53.432 99.3016C53.3489 99.1354 53.2658 99.1354 53.0997 99.1354C53.0166 99.1354 53.0166 99.1354 52.8504 99.2185C52.7673 99.2185 52.7673 99.3016 52.6011 99.3847L50.9391 100.382L48.7786 101.711C48.6124 101.794 48.3631 101.878 48.28 101.878C48.1138 101.878 48.0307 101.794 47.8645 101.711C47.8645 101.711 47.8645 101.711 47.7814 101.628C47.6983 101.545 47.6983 101.545 47.6152 101.462C47.5321 101.379 47.5321 101.379 47.449 101.379C47.3659 101.462 47.2828 101.462 47.2828 101.545C47.1997 101.628 47.1997 101.711 47.1997 101.794C47.1997 101.878 47.2828 101.961 47.2828 102.044C47.2828 102.044 47.449 102.127 47.6983 102.376C48.0307 102.542 48.28 102.709 48.5293 102.958C48.6124 103.041 48.7786 103.207 48.9448 103.373C49.111 103.54 49.111 103.623 49.1941 103.623C49.2772 103.706 49.3603 103.789 49.4434 103.789C49.5265 103.706 49.6096 103.706 49.6096 103.623C49.6927 103.54 49.6927 103.456 49.6927 103.456C49.6927 103.29 49.6096 103.29 49.6096 103.207C49.5265 103.124 49.4434 103.124 49.4434 103.124C49.3603 103.041 49.3603 102.958 49.2772 102.958C49.1941 102.875 49.1941 102.792 49.1941 102.792C49.1941 102.709 49.1941 102.625 49.1941 102.625C49.2772 102.542 49.2772 102.542 49.2772 102.459C49.3603 102.376 49.4434 102.376 49.4434 102.376L50.1081 102.044C50.1912 101.961 50.2743 101.961 50.2743 101.961C50.3574 101.878 50.4405 101.961 50.4405 101.961L51.0222 102.459L51.7701 103.124C51.8532 103.124 51.8532 103.207 51.8532 103.29C51.9363 103.373 51.8532 103.456 51.8532 103.54L51.5208 103.872C51.5208 103.955 51.4377 103.955 51.4377 104.038C51.3546 104.121 51.3546 104.121 51.3546 104.204C51.2715 104.287 51.1884 104.37 51.1884 104.37C51.1053 104.37 51.0222 104.37 51.0222 104.287H50.9391C50.856 104.204 50.856 104.121 50.7729 104.121C50.7729 103.872 50.6898 103.872 50.6898 103.872C50.6067 103.789 50.6067 103.789 50.4405 103.789C50.3574 103.789 50.2743 103.872 50.2743 103.872C50.1912 104.038 50.1912 104.038 50.1912 104.121C50.1912 104.204 50.1912 104.287 50.2743 104.37C50.2743 104.37 50.4405 104.454 50.5236 104.537C50.6898 104.703 50.856 104.703 50.9391 104.869C51.2715 105.118 51.6039 105.368 51.8532 105.7C51.9363 105.783 52.0194 105.783 52.0194 105.783C52.1025 105.866 52.1856 105.866 52.2687 105.866C52.4349 105.866 52.4349 105.866 52.518 105.783C52.6011 105.7 52.6011 105.7 52.6011 105.534C52.6842 105.451 52.6011 105.451 52.518 105.285ZM51.8532 102.127L50.9391 101.462C50.856 101.379 50.7729 101.296 50.7729 101.296C50.7729 101.213 50.7729 101.213 50.856 101.213C50.856 101.213 50.9391 101.213 50.9391 101.13H51.0222L52.9335 99.9663H53.0166L52.9335 100.133L52.1856 102.044C52.1856 102.127 52.1856 102.127 52.1025 102.127V102.21C52.0194 102.21 52.0194 102.21 52.0194 102.21C51.9363 102.21 51.9363 102.21 51.8532 102.127ZM90.7428 103.041C90.4935 102.958 90.1611 102.875 89.9118 102.875C89.4963 102.875 88.9978 102.958 88.4992 103.29C88.4161 103.373 88.1668 103.456 87.8344 103.706C87.502 103.872 87.2527 103.955 87.0865 104.038C86.9203 104.121 86.8372 104.204 86.671 104.204C86.5879 104.204 86.5879 104.204 86.5879 104.204C86.5048 104.204 86.4217 104.287 86.2555 104.287C86.0893 104.37 86.0062 104.37 86.0062 104.454C85.84 104.537 85.7569 104.537 85.7569 104.62C85.6739 104.703 85.7569 104.786 85.7569 104.869C85.84 104.952 85.84 105.035 85.9231 105.035C86.0062 105.118 86.0893 105.118 86.1724 105.035H86.2555C86.3386 104.952 86.3386 104.952 86.3386 104.869C86.5048 104.786 86.5048 104.786 86.5879 104.703C86.7541 104.62 86.8372 104.62 87.0034 104.62C87.0865 104.703 87.1696 104.786 87.2527 104.952L88.8316 108.359C88.9147 108.525 88.9147 108.692 88.9147 108.775C88.9147 108.941 88.8316 108.941 88.6654 109.024C88.5823 109.107 88.4992 109.107 88.4161 109.107C88.333 109.19 88.2499 109.19 88.2499 109.273C88.1668 109.273 88.0837 109.356 88.0837 109.439C88.0006 109.523 88.0006 109.606 88.0837 109.689C88.1668 109.772 88.2499 109.772 88.2499 109.772C88.333 109.772 88.4161 109.772 88.5823 109.689C88.6654 109.606 88.8316 109.523 89.0808 109.439C89.247 109.356 89.4963 109.19 89.6625 109.107C89.7456 109.024 89.8287 109.024 89.9949 108.941C90.078 108.858 90.1611 108.775 90.3273 108.775C90.6597 108.608 90.909 108.525 91.0752 108.442C91.9062 108.11 92.4047 107.528 92.654 106.78C92.8202 106.116 92.7371 105.368 92.4047 104.537C91.9062 103.872 91.4076 103.29 90.7428 103.041ZM91.9062 106.947C91.8231 107.445 91.3245 107.861 90.7428 108.11C90.4104 108.276 90.1611 108.359 89.9949 108.359H89.9118C89.8287 108.359 89.6625 108.193 89.4963 107.944L88.0837 104.952L88.0006 104.786C87.9175 104.454 87.8344 104.287 87.9175 104.204C87.9175 104.038 88.0837 103.955 88.4161 103.789C88.9978 103.54 89.4963 103.456 89.9118 103.456C90.078 103.456 90.1611 103.456 90.3273 103.54C90.8259 103.706 91.2414 104.204 91.5738 104.952C91.9062 105.7 91.9893 106.365 91.9062 106.947ZM106.365 92.4876C106.199 92.4876 106.033 92.5707 105.95 92.7369C105.867 92.7369 105.867 92.7369 105.867 92.82C105.783 92.903 105.7 93.0692 105.7 93.1523C105.783 93.3185 105.783 93.3185 105.867 93.4016C105.867 93.4847 105.867 93.4847 105.867 93.4847C106.033 93.5678 106.033 93.5678 106.199 93.5678C106.282 93.5678 106.282 93.4847 106.365 93.4016C106.448 93.3185 106.448 93.3185 106.448 93.2354C106.448 93.1523 106.448 93.0692 106.448 93.0692C106.448 92.9861 106.531 92.9861 106.531 92.9861C106.531 93.0692 106.614 93.0692 106.614 93.0692C106.781 93.2354 106.864 93.3185 106.864 93.4847C106.947 93.5678 106.864 93.734 106.781 93.9002C106.614 94.0664 106.365 94.2326 105.867 94.3157L105.617 94.3988C105.534 94.4819 105.285 94.4819 105.202 94.6481C105.119 94.7312 105.036 94.8143 104.952 94.9805C104.786 95.0636 104.786 95.3129 104.703 95.396C104.62 95.5622 104.62 95.7284 104.703 95.8946C104.537 95.8115 104.371 95.4791 104.371 95.2298C104.371 94.8974 104.454 94.3988 104.786 93.4847C104.786 93.4016 104.786 93.4016 104.786 93.3185C104.952 92.7369 105.036 92.2383 104.952 91.989C104.952 91.8228 104.869 91.6566 104.786 91.4904C104.62 91.3242 104.537 91.2411 104.371 91.158C103.955 90.8256 103.54 90.7425 103.041 90.9087C102.792 90.9918 102.543 91.0749 102.376 91.3242C102.21 91.4904 101.961 91.7397 101.712 91.989C101.545 92.3214 101.379 92.6538 101.296 92.9861V93.4847V93.8171C101.462 94.1495 101.629 94.4819 101.961 94.7312C102.044 94.8143 102.21 94.8143 102.376 94.8143C102.376 94.8143 102.376 94.8143 102.46 94.8143C102.543 94.8143 102.792 94.7312 102.875 94.565C103.041 94.4819 103.041 94.3157 103.041 94.1495C103.041 93.9833 102.958 93.9002 102.875 93.8171C102.709 93.734 102.709 93.6509 102.626 93.6509C102.543 93.6509 102.543 93.6509 102.543 93.734C102.46 93.734 102.46 93.734 102.376 93.8171C102.376 93.9002 102.376 93.9002 102.376 93.9002C102.293 93.9833 102.293 93.9833 102.293 93.9833C102.21 93.9833 102.21 93.9833 102.127 93.9002C102.044 93.734 101.878 93.5678 101.961 93.2354C101.961 92.903 102.127 92.6538 102.376 92.3214C102.376 92.2383 102.46 92.2383 102.543 92.1552C102.709 91.9059 102.958 91.7397 103.207 91.6566C103.54 91.5735 103.872 91.5735 104.121 91.8228C104.288 91.989 104.371 91.989 104.454 92.2383C104.537 92.4045 104.537 92.5707 104.537 92.6538C104.454 92.82 104.454 93.1523 104.288 93.5678C104.121 93.9833 104.121 94.3157 104.038 94.565C103.955 94.9805 103.955 95.4791 104.121 95.8946C104.288 96.2269 104.537 96.5593 104.786 96.8086C105.036 96.8917 105.202 96.9748 105.451 96.9748C105.617 96.9748 105.783 96.8917 105.867 96.8086C105.95 96.6424 106.033 96.5593 106.033 96.4762C106.033 96.3931 105.95 96.31 105.867 96.227C105.7 96.1439 105.534 96.1439 105.368 96.31C105.285 96.2269 105.285 96.1438 105.285 96.0608C105.285 95.8946 105.368 95.8115 105.368 95.7284C105.534 95.5622 105.534 95.4791 105.783 95.3129C105.867 95.3129 105.95 95.2298 106.033 95.2298C106.199 95.1467 106.282 95.0636 106.448 95.0636C106.531 95.0636 106.531 95.0636 106.614 94.9805C107.03 94.8143 107.279 94.6481 107.445 94.3988C107.612 94.1495 107.695 93.8171 107.612 93.5678C107.528 93.2354 107.362 92.9861 107.113 92.82C106.781 92.5707 106.531 92.4876 106.365 92.4876ZM109.938 88.2496C109.606 87.5848 109.024 87.0862 108.276 86.6707C107.362 86.2553 106.698 86.0891 106.033 86.2553H105.95C105.285 86.4215 104.869 86.8369 104.537 87.4186C104.205 88.0834 104.205 88.6651 104.454 89.3299C104.703 89.9115 105.202 90.4101 105.95 90.7425C106.033 90.8256 106.116 90.8256 106.116 90.9087C106.947 91.3242 107.695 91.4904 108.359 91.3242C109.024 91.2411 109.523 90.8256 109.855 90.1608C110.188 89.4961 110.188 88.8313 109.938 88.2496ZM109.357 89.8284C109.107 90.2439 108.775 90.4932 108.193 90.5763C107.695 90.6594 107.113 90.4932 106.448 90.1608C106.282 90.0777 106.033 89.9946 105.95 89.8284C105.534 89.5792 105.285 89.2468 105.119 88.9144C104.869 88.4989 104.869 88.0834 105.119 87.5848C105.285 87.1693 105.534 86.92 105.95 86.92C106.033 86.8369 106.116 86.8369 106.116 86.8369C106.614 86.7538 107.279 86.92 107.861 87.2524C108.526 87.5848 109.024 88.0003 109.274 88.4158C109.523 88.9975 109.606 89.413 109.357 89.8284ZM102.21 96.31C101.961 95.9777 101.629 95.8115 101.296 95.6453C100.881 95.4791 100.631 95.3129 100.216 95.3129C99.6342 95.2298 99.1356 95.4791 98.7202 95.8115C98.6371 95.8946 98.6371 95.8946 98.4709 96.0608C98.0554 96.5593 97.8061 97.0579 97.8061 97.5565C97.8061 98.1382 97.9723 98.6368 98.4709 98.9692C98.554 99.1354 98.6371 99.1354 98.8033 99.2185C99.2187 99.4678 99.5511 99.6339 99.9666 99.5508C100.465 99.5508 100.964 99.3016 101.379 98.803C101.629 98.4706 101.795 98.2213 101.961 97.8889C102.044 97.5565 102.044 97.3072 101.961 96.9748C102.127 97.141 102.376 97.3903 102.46 97.5565C102.626 97.8889 102.875 98.1382 102.875 98.4706C102.958 98.9692 102.792 99.3847 102.46 99.8001L102.376 99.8832C102.21 100.049 102.044 100.216 101.712 100.216C101.545 100.382 101.462 100.382 101.296 100.382C101.296 100.299 101.296 100.299 101.296 100.299C101.296 100.299 101.213 100.299 101.213 100.216C101.213 100.049 101.213 99.8832 101.13 99.8832C101.047 99.8001 100.964 99.717 100.798 99.717C100.631 99.717 100.631 99.8001 100.465 99.8832C100.382 100.049 100.299 100.133 100.299 100.299C100.382 100.382 100.382 100.548 100.548 100.631C100.714 100.797 100.964 100.964 101.296 100.88C101.462 100.88 101.462 100.88 101.545 100.88C101.878 100.797 102.127 100.714 102.376 100.465C102.46 100.299 102.626 100.216 102.792 100.133C103.374 99.5508 103.54 98.8861 103.457 98.2213C103.291 97.5565 103.041 96.8917 102.376 96.31C102.293 96.31 102.293 96.31 102.21 96.31ZM101.296 97.6396C101.213 97.8058 101.13 98.0551 100.881 98.3044C100.548 98.6368 100.299 98.803 99.8835 98.803C99.5511 98.803 99.2187 98.6368 98.8863 98.3875C98.8033 98.3044 98.7202 98.3044 98.7202 98.2213C98.554 97.972 98.4709 97.7227 98.4709 97.4734C98.3878 97.2241 98.554 96.8917 98.7202 96.6424C98.8033 96.5593 98.8033 96.4762 98.8863 96.4762C99.2187 96.0608 99.5511 95.9777 99.8835 95.8946C100.216 95.8946 100.548 96.0608 100.798 96.31C101.047 96.4762 101.213 96.7255 101.213 96.9748C101.296 97.0579 101.296 97.2241 101.296 97.3072C101.379 97.3903 101.379 97.5565 101.296 97.6396ZM86.671 109.523C86.5879 109.356 86.5879 109.273 86.5879 109.19C86.5048 109.024 86.5048 108.858 86.4217 108.525C86.3386 108.359 86.3386 108.193 86.3386 108.193C86.3386 108.11 86.2555 108.11 86.2555 108.11C86.2555 108.027 86.1724 107.944 86.0893 107.944C86.0062 107.861 86.0062 107.861 85.9231 107.861C85.757 107.944 85.7569 107.944 85.6739 108.027C85.6739 108.11 85.6739 108.193 85.6739 108.359C85.6739 108.359 85.7569 108.525 85.7569 108.608C85.84 108.775 85.9231 108.941 85.9231 108.941C86.0062 109.273 86.0062 109.439 85.9231 109.606C85.84 109.772 85.5908 109.855 85.2584 109.938L83.9288 110.354C83.7626 110.437 83.5964 110.437 83.5133 110.354C83.4302 110.27 83.3471 110.187 83.264 109.938L82.8485 108.608C82.7654 108.442 82.7654 108.442 82.8485 108.359C82.9316 108.276 83.0147 108.193 83.0978 108.193C83.5133 108.027 83.7626 108.027 83.9288 108.11C84.095 108.11 84.095 108.276 84.2612 108.525C84.2612 108.608 84.2612 108.608 84.2612 108.692C84.3443 108.775 84.3443 108.858 84.3443 108.858C84.4274 109.024 84.4274 109.024 84.5105 109.024C84.5936 109.107 84.6767 109.107 84.7598 109.107C84.8429 109.024 84.926 108.941 84.926 108.941C85.0091 108.775 85.0091 108.692 84.926 108.525C84.926 108.525 84.8429 108.359 84.7598 108.193C84.6767 107.944 84.5936 107.777 84.5105 107.611C84.5105 107.445 84.4274 107.196 84.3443 107.03C84.3443 106.78 84.2612 106.614 84.2612 106.614C84.1781 106.448 84.1781 106.282 84.095 106.199C84.0119 106.116 83.9288 106.116 83.8457 106.116C83.7626 106.116 83.6795 106.199 83.6795 106.199C83.6795 106.365 83.6795 106.365 83.6795 106.448C83.7626 106.531 83.7626 106.614 83.7626 106.697C83.7626 106.78 83.7626 106.863 83.8457 106.947C83.9288 107.113 83.8457 107.362 83.7626 107.362C83.6795 107.445 83.4302 107.528 83.0978 107.694C82.9316 107.778 82.8485 107.778 82.7654 107.694C82.6823 107.694 82.5992 107.528 82.5992 107.445L82.35 106.531C82.2669 106.365 82.2669 106.116 82.2669 106.116C82.35 105.949 82.4331 105.949 82.5992 105.866L83.8457 105.451C84.1781 105.368 84.4274 105.368 84.5105 105.451C84.5936 105.534 84.7598 105.7 84.8429 105.949C84.926 106.116 84.926 106.199 84.926 106.365C84.926 106.531 84.926 106.614 85.0091 106.697C85.0091 106.78 85.0922 106.78 85.1753 106.863C85.2584 106.947 85.3415 106.947 85.5077 106.947C85.5908 106.947 85.6739 106.863 85.6739 106.78C85.7569 106.697 85.7569 106.614 85.6739 106.531C85.6739 106.448 85.6739 106.365 85.5077 106.116C85.4246 105.949 85.4246 105.7 85.3415 105.534C85.3415 105.451 85.3415 105.368 85.2584 105.201C85.2584 105.035 85.1753 104.869 85.1753 104.786C85.0922 104.62 85.0091 104.62 85.0091 104.537C84.926 104.454 84.8429 104.454 84.6767 104.454C84.6767 104.454 84.5936 104.454 84.5936 104.537C84.3443 104.62 84.095 104.703 83.7626 104.786L82.0176 105.285L81.519 105.368C81.3528 105.451 81.1866 105.451 80.9373 105.534C80.688 105.617 80.5218 105.617 80.4387 105.617H80.3556C80.1894 105.617 80.1894 105.7 80.1063 105.7C80.1063 105.7 80.1063 105.7 80.1063 105.783C80.1894 105.866 80.1894 105.949 80.1894 106.032V106.116C80.2725 106.199 80.3556 106.199 80.3556 106.199H80.6049C80.688 106.199 80.7711 106.116 80.8542 106.032C80.9373 106.032 81.0204 105.949 81.1035 105.949C81.2697 105.866 81.3528 105.866 81.519 105.949C81.6021 106.032 81.6852 106.116 81.6852 106.282L82.6823 109.855C82.7654 110.021 82.7654 110.27 82.6823 110.27C82.6823 110.437 82.5161 110.437 82.35 110.52C82.2669 110.52 82.1838 110.52 82.1007 110.603C82.0176 110.603 81.9345 110.603 81.9345 110.603C81.7683 110.686 81.7683 110.769 81.7683 110.769C81.6852 110.852 81.6852 110.935 81.6852 111.018C81.7683 111.101 81.8514 111.184 81.8514 111.184C81.9345 111.268 82.0176 111.268 82.1838 111.184C82.1838 111.184 82.2669 111.184 82.35 111.101C82.6823 111.018 83.0147 110.935 83.264 110.769L85.6739 110.104C85.9231 110.021 86.1724 110.021 86.3386 110.021C86.4217 109.938 86.4217 109.938 86.5048 109.938H86.5879C86.671 109.855 86.7541 109.772 86.8372 109.772C86.9203 109.606 86.9203 109.523 86.8372 109.439C86.8372 109.772 86.7541 109.772 86.671 109.523ZM99.3849 102.542C99.3018 102.542 99.3018 102.542 99.1356 102.625C99.1356 102.709 99.0525 102.792 98.9694 102.792C98.8863 102.875 98.8033 102.958 98.8033 102.958C98.7202 103.124 98.554 103.124 98.3878 103.124C98.3047 103.124 98.2216 102.958 97.9723 102.875L95.7286 99.9663C95.5624 99.8001 95.4794 99.6339 95.3132 99.5508C95.2301 99.4678 95.2301 99.4677 95.2301 99.4677C95.147 99.3016 95.0639 99.3016 95.0639 99.3016C94.9808 99.3016 94.8977 99.3016 94.8146 99.4677C94.7315 99.4677 94.7315 99.5508 94.5653 99.6339C94.3991 99.717 94.316 99.8832 94.2329 99.9663C94.1498 100.049 94.1498 100.049 93.9836 100.133C93.9005 100.216 93.8174 100.216 93.7343 100.299C93.6512 100.382 93.6512 100.465 93.6512 100.548C93.6512 100.631 93.6512 100.714 93.7343 100.797C93.8174 100.88 93.9005 100.88 93.9005 100.88C93.9836 100.88 93.9836 100.797 94.1498 100.797C94.1498 100.714 94.2329 100.714 94.2329 100.631C94.316 100.548 94.3991 100.548 94.3991 100.548C94.5653 100.382 94.6484 100.382 94.8146 100.382C94.8977 100.382 94.9808 100.548 95.147 100.631L97.3906 103.373C97.4737 103.54 97.5568 103.706 97.5568 103.789C97.5568 103.872 97.4737 104.038 97.3906 104.121C97.3075 104.204 97.2244 104.204 97.2244 104.287C97.1413 104.37 97.1413 104.37 97.0582 104.37C96.9751 104.537 96.892 104.537 96.892 104.703C96.892 104.786 96.892 104.869 96.9751 104.952C97.0582 105.035 97.0582 105.118 97.1413 105.118C97.2244 105.118 97.3075 105.035 97.4737 104.952C97.4737 104.952 97.5568 104.869 97.5568 104.786C97.8061 104.454 98.1385 104.204 98.3878 104.038C98.554 103.872 98.6371 103.872 98.8033 103.706C98.9694 103.54 99.2187 103.456 99.3849 103.29C99.468 103.207 99.5511 103.124 99.5511 103.124C99.6342 102.958 99.7173 102.958 99.7173 102.875C99.7173 102.709 99.7173 102.709 99.6342 102.542C99.5511 102.542 99.468 102.542 99.3849 102.542ZM80.2725 106.365C80.2725 106.365 80.2725 106.282 80.2725 106.199C80.1894 106.116 80.1063 106.116 80.0232 106.116C79.9401 106.116 79.857 106.116 79.5246 106.199C79.2753 106.282 79.1092 106.282 78.8599 106.365C78.6937 106.365 78.4444 106.365 78.1951 106.365C77.9458 106.365 77.7796 106.365 77.6965 106.365C77.5303 106.365 77.4472 106.448 77.281 106.448C77.1979 106.531 77.1979 106.614 77.1979 106.697C77.1979 106.78 77.1979 106.863 77.281 106.947C77.3641 106.947 77.4472 107.03 77.5303 107.03C77.6134 107.03 77.6965 106.947 77.7796 106.947C77.8627 106.947 77.9458 106.947 77.9458 106.947C78.112 106.863 78.1951 106.947 78.2782 107.03C78.3613 107.113 78.4444 107.196 78.4444 107.445L78.5275 108.858C78.4444 108.858 78.1951 108.858 78.0289 108.941C77.8627 108.941 77.5303 108.941 77.1979 109.024C76.7824 109.107 76.5331 109.107 76.2838 109.107C76.1176 109.107 75.8684 109.19 75.7022 109.19L75.6191 107.861C75.6191 107.694 75.6191 107.528 75.7022 107.445C75.7853 107.362 75.8684 107.362 76.0345 107.362C76.0345 107.362 76.1176 107.362 76.2007 107.362C76.2838 107.362 76.3669 107.362 76.3669 107.362C76.5331 107.362 76.5331 107.362 76.6162 107.196C76.6162 107.113 76.6993 107.03 76.6993 106.947C76.6162 106.863 76.6162 106.78 76.5331 106.78C76.45 106.697 76.3669 106.697 76.2007 106.697C76.1176 106.697 75.9515 106.78 75.7022 106.78C75.3698 106.863 75.2036 106.947 74.9543 106.947C74.7881 106.947 74.5388 107.03 74.2895 106.947C74.0402 106.947 73.874 106.947 73.874 106.947C73.7909 107.03 73.6247 107.03 73.5416 107.113C73.5416 107.196 73.4585 107.279 73.4585 107.362C73.5416 107.528 73.5416 107.528 73.5416 107.611C73.6247 107.694 73.6247 107.694 73.7909 107.694C73.874 107.694 73.9571 107.694 74.0402 107.611C74.1233 107.611 74.2064 107.611 74.2895 107.611C74.4557 107.528 74.5388 107.611 74.705 107.694C74.7881 107.778 74.7881 107.861 74.7881 108.11L75.1205 111.766C75.1205 111.932 75.1205 112.099 75.0374 112.182C74.9543 112.265 74.8712 112.265 74.705 112.265C74.6219 112.265 74.5388 112.265 74.3726 112.265C74.2064 112.265 74.2064 112.265 74.2064 112.265C74.1233 112.265 74.0402 112.348 73.9571 112.431C73.874 112.514 73.874 112.597 73.874 112.597C73.874 112.763 73.9571 112.763 73.9571 112.846C74.0402 112.93 74.1233 112.93 74.2064 112.93C74.2895 112.93 74.3726 112.93 74.6219 112.846C74.8712 112.763 75.1205 112.763 75.3698 112.68C75.536 112.68 75.7022 112.68 76.0345 112.68C76.2838 112.68 76.45 112.68 76.5331 112.68C76.6993 112.68 76.7824 112.597 76.8655 112.514C77.0317 112.431 77.0317 112.431 77.0317 112.265C77.0317 112.182 76.9486 112.099 76.8655 112.015C76.7824 112.015 76.7824 111.932 76.6993 111.932C76.6162 111.932 76.5331 112.015 76.45 112.015C76.3669 112.015 76.2838 112.099 76.2838 112.099C76.2007 112.099 76.0346 112.099 75.8684 111.932C75.7853 111.849 75.7853 111.766 75.7022 111.517L75.6191 109.855C75.8684 109.855 76.0346 109.772 76.2838 109.772C76.5331 109.772 76.6993 109.689 76.9486 109.689C77.1979 109.689 77.4472 109.606 77.6965 109.606C77.9458 109.606 78.112 109.523 78.3613 109.523L78.5275 111.184C78.5275 111.351 78.5275 111.517 78.4444 111.6C78.3613 111.683 78.2782 111.683 78.0289 111.683C78.0289 111.683 77.9458 111.683 77.8627 111.683C77.7796 111.683 77.6965 111.683 77.6965 111.683C77.6134 111.683 77.5303 111.683 77.4472 111.766C77.3641 111.849 77.3641 111.932 77.3641 112.015C77.3641 112.182 77.4472 112.182 77.4472 112.265C77.6134 112.348 77.6965 112.348 77.8627 112.348C77.9458 112.348 78.112 112.265 78.3613 112.265C78.6106 112.265 78.8599 112.182 79.0261 112.182C79.2753 112.182 79.5246 112.099 79.7739 112.182C80.0232 112.182 80.1894 112.182 80.1894 112.099H80.2725C80.3556 112.099 80.4387 112.099 80.4387 112.015C80.5218 111.932 80.5218 111.849 80.5218 111.766C80.5218 111.6 80.5218 111.6 80.4387 111.517C80.3556 111.434 80.2725 111.434 80.2725 111.434C80.1894 111.434 80.1894 111.434 80.1894 111.434C80.1063 111.434 80.0232 111.434 79.9401 111.517C79.7739 111.517 79.7739 111.6 79.6908 111.6C79.5246 111.6 79.3584 111.517 79.2754 111.434C79.1923 111.351 79.1923 111.268 79.1923 111.101L78.8599 107.362C78.7768 107.196 78.8599 107.03 78.943 107.03C79.0261 106.863 79.1092 106.863 79.3584 106.863C79.4415 106.863 79.5246 106.863 79.6077 106.863C79.6908 106.863 79.7739 106.863 79.7739 106.863C79.857 106.863 79.9401 106.78 80.0232 106.697V106.614C80.2725 106.531 80.2725 106.448 80.2725 106.365Z" fill="white"/>
<path fill-rule="evenodd" clip-rule="evenodd" d="M110.436 69.2205L111.766 72.7936L115.588 72.9598L112.514 75.2866L113.677 78.9429L110.436 76.7823L107.362 78.9429L108.359 75.2866L105.367 72.9598L109.19 72.7936L110.436 69.2205Z" fill="white"/>
<path fill-rule="evenodd" clip-rule="evenodd" d="M37.6442 69.2205L38.8907 72.7936L42.7132 72.9598L39.7217 75.2866L40.8019 78.9429L37.6442 76.7823L34.4865 78.9429L35.5668 75.2866L32.4922 72.9598L36.3147 72.7936L37.6442 69.2205Z" fill="white"/>
<path fill-rule="evenodd" clip-rule="evenodd" d="M73.2919 75.1202C73.2919 75.1202 69.8849 73.5414 70.882 67.8908C71.8792 62.2401 72.3778 56.4233 73.6243 56.3402C73.6243 56.3402 74.7876 55.6754 75.0369 56.8388L75.12 91.3242C75.12 91.3242 73.2919 92.7369 71.2975 91.0749C71.2975 91.0749 70.6327 90.5764 70.9651 89.4961C70.9651 88.6651 73.2919 75.1202 73.2919 75.1202Z" fill="white"/>
<path fill-rule="evenodd" clip-rule="evenodd" d="M59.4978 56.0908C59.4978 56.0908 58.4176 65.0653 58.5007 65.3977C58.6668 65.8132 58.4176 67.0597 60.2457 67.6414C60.2457 67.6414 61.4091 68.223 61.4091 69.054C61.4091 69.054 61.4091 78.0285 60.495 85.1749C60.495 85.1749 59.8302 87.1693 59.4147 88.4157C58.9992 89.6622 58.7499 91.8227 62.3231 91.7396C65.8963 91.6565 65.3146 89.3298 64.733 87.7509C64.0682 86.089 63.7358 83.2637 63.5696 81.1862C63.3203 79.0257 62.8217 69.5526 63.071 68.9709C63.071 68.9709 62.9879 68.0569 64.4006 67.5583C65.8132 67.0597 65.9794 66.0625 65.9794 65.0653C65.9794 64.1513 64.9823 56.0908 64.9823 56.0908H64.4837H64.4006V64.4006C64.4006 64.5668 64.2344 64.733 63.9851 64.733H63.6527C63.4034 64.733 63.2372 64.5668 63.2372 64.4006V56.0908H62.7386V64.4006C62.7386 64.5668 62.5724 64.733 62.3231 64.733H61.9907C61.8245 64.733 61.5753 64.5668 61.5753 64.4006V56.0908H60.9936V64.4006C60.9936 64.5668 60.9105 64.733 60.5781 64.733H60.2457C60.0795 64.733 59.8302 64.5668 59.8302 64.4006V56.0908H59.4978Z" fill="white"/>
<path fill-rule="evenodd" clip-rule="evenodd" d="M81.6833 67.1428C76.5312 65.1484 79.5227 55.8415 84.841 56.1739C90.0761 55.7584 92.569 64.5667 87.9987 67.0597C87.0015 67.7244 85.4227 68.0568 85.5058 69.2202C85.3396 69.8019 85.8382 79.1919 86.0043 81.3524C86.2536 83.4299 86.6691 86.2552 87.1677 87.834C87.7494 89.496 88.3311 91.7396 84.7579 91.8227C81.1016 91.9058 81.434 89.7453 81.8495 88.4988C82.265 87.2523 82.8466 85.258 82.8466 85.258C83.7607 78.1947 83.7607 69.2202 83.7607 69.2202C83.8438 68.3061 83.0128 67.6413 81.6833 67.1428Z" fill="white"/>
<path d="M110.686 57.254L109.856 55.1765L109.606 55.2596V55.3427C109.772 55.592 109.772 55.7582 109.689 55.9244C109.606 56.0075 109.523 56.1737 109.274 56.3399L106.698 57.3371L105.451 57.8357C105.202 57.9188 105.036 57.9188 104.87 57.9188C104.703 57.8357 104.537 57.7526 104.537 57.5033L104.454 57.4202L104.288 57.5033L105.119 59.5807L106.199 62.2398L106.698 62.1567L107.113 62.0736L108.027 61.9074L107.944 61.6581C107.363 61.6581 106.947 61.5751 106.615 61.3258C106.532 61.3258 106.449 61.2427 106.449 61.1596C106.116 60.9934 105.867 60.4948 105.618 59.9131C105.534 59.6638 105.451 59.4976 105.534 59.4145C105.618 59.2483 105.701 59.1652 105.95 59.0821L106.615 58.7497L107.778 58.3342V58.4173C107.944 58.8328 107.944 59.0821 107.861 59.3314C107.778 59.4976 107.446 59.83 106.947 60.0793L107.03 60.3286L108.443 59.7469L109.856 59.1652L109.772 58.9159C109.191 59.0821 108.858 59.0821 108.609 58.9159C108.36 58.8328 108.194 58.5835 108.027 58.2511L107.944 58.085L109.689 57.4202C109.856 57.254 110.022 57.254 110.105 57.3371C110.188 57.3371 110.271 57.5033 110.354 57.6695V57.7526C110.603 58.4173 110.77 58.9159 110.686 59.2483C110.603 59.5807 110.271 59.9131 109.772 60.2455L109.856 60.4117L110.686 60.0793L111.601 59.6638L110.686 57.254ZM103.291 54.0963L104.953 53.016C105.202 53.4315 105.285 53.6808 105.285 53.9301C105.202 54.1794 104.953 54.5118 104.537 54.8442L104.62 55.0103L105.867 54.1794L106.615 53.6808L107.113 53.3484L106.947 53.0991C106.864 53.1822 106.698 53.1822 106.532 53.2653C106.199 53.3484 105.95 53.4315 105.867 53.3484C105.618 53.2653 105.368 53.0991 105.119 52.6836L106.532 51.7695L106.698 51.6034C106.864 51.5203 107.03 51.5203 107.113 51.5203C107.196 51.5203 107.363 51.6034 107.446 51.8526C107.861 52.5174 108.11 53.016 108.11 53.2653C108.11 53.6808 107.861 53.9301 107.363 54.3456L107.529 54.5118L108.277 54.0132L109.025 53.5146L107.529 51.1879L106.615 49.7752L106.282 49.2766L106.116 49.4428V49.5259C106.282 49.6921 106.365 49.9414 106.282 50.1076C106.282 50.2738 106.199 50.44 105.867 50.5231L102.46 52.7667H102.377C102.211 52.8498 102.044 52.9329 101.878 52.8498C101.712 52.8498 101.546 52.7667 101.463 52.5174L101.38 52.4343L101.213 52.6005L102.044 54.0132L102.377 54.5118L102.875 55.3427L103.125 55.2596L103.042 55.0935C102.875 54.8442 102.792 54.678 102.792 54.4287C103.042 54.3456 103.125 54.1794 103.291 54.0963ZM102.543 48.4457L103.706 45.9527L103.623 45.8696L103.54 45.7865L102.46 46.1189L100.715 46.7006L98.305 47.5316L98.1388 47.6147C97.8895 47.6978 97.7233 47.6978 97.474 47.6978C97.3909 47.6978 97.2247 47.6147 97.1416 47.5316L96.9754 47.6978L97.6402 48.3626L98.2219 49.0273L98.3881 48.8611L98.305 48.778C98.2219 48.5287 98.0557 48.3626 98.1388 48.1964C98.1388 48.1133 98.305 47.9471 98.3881 47.864C98.4712 47.864 98.4712 47.864 98.5543 47.7809L99.3852 47.5316L100.549 49.0273L100.133 49.8583C100.05 50.1076 99.8838 50.1907 99.8007 50.1907C99.6345 50.1907 99.4683 50.1076 99.3021 49.8583L99.219 49.7752L99.0529 49.9414L99.9669 51.0217L100.715 51.8526L100.964 52.185L101.13 52.0188H101.047C100.964 51.8526 100.881 51.7695 100.881 51.6034C100.881 51.4372 101.047 51.271 101.13 50.9386L102.543 48.4457ZM100.715 48.6949L99.6345 47.4485L100.715 47.1161L101.712 46.7837L100.715 48.6949ZM96.9754 45.7865C96.5599 45.8696 96.0613 45.8696 95.729 45.8696C95.3135 45.7865 94.9811 45.7034 94.6487 45.4541C94.2332 45.1218 93.9839 44.7063 93.9839 44.1246C93.9839 43.5429 94.3163 42.9612 94.7318 42.2133C95.2304 41.4655 95.8121 41.05 96.3106 40.8007C96.8092 40.6345 97.3078 40.7176 97.7233 40.9669C98.0557 41.1331 98.2219 41.3824 98.3881 41.7979C98.4712 41.881 98.4712 41.964 98.5543 42.0471C98.6374 42.4626 98.6374 42.9612 98.3881 43.4598V43.5429L98.5543 43.7091L99.8007 41.881L99.6345 41.7979L99.5514 41.881C99.3852 41.9641 99.3021 41.9641 99.136 41.9641C98.9698 41.9641 98.9698 41.881 98.8867 41.7148C98.7205 41.4655 98.5543 41.2162 98.305 41.05C98.2219 40.8838 97.9726 40.7176 97.8064 40.5514C97.0585 40.0528 96.3106 39.8866 95.3966 40.0528C94.5656 40.1359 93.9008 40.7176 93.4022 41.3824C92.9036 42.1302 92.7374 42.9612 92.8205 43.7922C92.9867 44.6232 93.4022 45.2879 94.1501 45.7865C94.5656 46.1189 94.9811 46.2851 95.4797 46.3682C95.8952 46.4513 96.3937 46.3682 96.9754 46.202V45.7865ZM69.5533 33.0726L69.6364 33.3219L69.7195 33.2388C69.9687 33.2388 70.218 33.3219 70.3011 33.405C70.4673 33.5712 70.4673 33.8205 70.5504 34.0698L70.8828 36.7289L67.2265 33.3219L66.3125 33.405L65.4815 33.5712H65.3153V33.8205H65.3984C65.3984 33.8205 65.3984 33.8205 65.4815 33.8205C65.5646 33.8205 65.6477 33.8205 65.8139 33.9036C65.9801 33.9867 66.1463 34.0698 66.3125 34.3191L66.811 38.3078C66.8941 38.6402 66.811 38.8894 66.7279 38.9725C66.5617 39.0556 66.4786 39.2218 66.1463 39.3049H66.0632L66.1463 39.5542L67.0603 39.388L68.0575 39.3049V39.0556H67.8913C67.642 39.1387 67.4758 39.0556 67.3096 38.9725C67.2265 38.8894 67.1434 38.5571 67.0603 38.3078L66.6448 34.8177L71.1321 39.1387H71.2152H71.4645L70.7997 34.1529C70.7997 33.8205 70.7997 33.5712 70.9659 33.4881C71.049 33.3219 71.2152 33.2388 71.4645 33.1557H71.5476V32.9064L70.5504 32.9895L69.5533 33.0726ZM72.7941 32.8233V33.0726H72.8772C73.1264 33.0726 73.2926 33.1557 73.4588 33.1557C73.5419 33.3219 73.625 33.4881 73.625 33.7374L73.5419 37.8923C73.5419 38.2247 73.4588 38.3909 73.3757 38.474C73.2095 38.6402 73.0433 38.6402 72.7941 38.6402H72.711V38.8894H74.2067L75.7856 38.9725V38.7232H75.6194C75.3701 38.6402 75.2039 38.6402 75.0377 38.5571C74.9546 38.474 74.9546 38.2247 74.9546 37.9754L75.0377 33.8205C75.0377 33.5712 75.1208 33.405 75.2039 33.2388C75.287 33.0726 75.5363 33.0726 75.7856 33.0726H75.8687V32.7402H74.3729H72.7941V32.8233ZM81.6024 33.5712V33.8205H81.6855C81.9348 33.9036 82.101 33.9867 82.1841 34.1529C82.3503 34.3191 82.3503 34.5684 82.2672 34.9008L81.7686 37.5599L79.4419 33.1557L78.5278 33.0726L77.6137 32.9064L77.5306 33.1557C77.6137 33.1557 77.7799 33.2388 77.863 33.405C78.0292 33.4881 78.1123 33.6543 78.2785 33.9867L77.6137 37.8923C77.5306 38.2247 77.5306 38.474 77.3644 38.5571C77.2813 38.7233 77.032 38.7232 76.6996 38.7232H76.4503V38.8063L77.4475 38.9725L78.4447 39.0556V38.8063H78.3616C78.1123 38.7233 77.9461 38.6402 77.863 38.474C77.6968 38.3078 77.6968 38.0585 77.7799 37.7261L78.4447 34.3191L81.5193 39.7204L81.6855 39.8035H81.7686L82.6827 34.9008C82.7658 34.5684 82.7658 34.3191 82.9319 34.236C83.015 34.1529 83.2643 34.1529 83.5136 34.1529H83.5967L83.6798 33.9036L82.6827 33.7374L81.6024 33.5712ZM86.8375 35.8979C87.253 35.4824 87.7516 35.3994 88.1671 35.5655C88.5826 35.7317 88.9981 36.0641 89.2474 36.4796C89.4966 36.8951 89.5797 37.3937 89.5797 38.0585L89.7459 38.1416L90.4938 36.1472L90.3276 36.0641L90.1614 36.2303C90.0783 36.3134 89.9952 36.3965 89.829 36.3965C89.7459 36.3965 89.6628 36.3134 89.5797 36.2303C89.1643 35.8148 88.7488 35.5655 88.084 35.3163C87.3361 34.9839 86.5051 34.9839 85.8404 35.3994C85.0925 35.8148 84.5108 36.3134 84.1784 37.2275C83.7629 38.1416 83.7629 38.9725 84.1784 39.7204C84.5939 40.3852 85.1756 40.9669 86.1727 41.2993C86.9206 41.6317 87.6685 41.7148 88.3333 41.7148L88.8319 40.4683C88.915 40.219 89.0812 40.0528 89.1643 40.0528C89.3305 39.9697 89.4966 39.9697 89.7459 40.1359H89.829L89.9952 39.9697L88.4995 39.388L87.0037 38.8063L86.9206 39.0556H87.0037C87.3361 39.1387 87.5023 39.3049 87.5854 39.4711C87.6685 39.6373 87.6685 39.8035 87.5854 40.0528L87.3361 40.6345C87.1699 40.9669 87.0868 41.1331 86.9206 41.2162C86.8375 41.2993 86.5882 41.2993 86.3389 41.2162L86.1727 41.1331C85.6742 40.9669 85.3418 40.5514 85.2587 40.0528C85.1756 39.4711 85.3418 38.8063 85.5911 37.8923C86.0066 36.8951 86.3389 36.2303 86.8375 35.8979ZM65.3984 39.7204C65.1491 39.8035 64.9829 39.8866 64.8167 39.7204C64.6505 39.6373 64.5674 39.5542 64.4012 39.3049L63.1548 35.3994C63.0717 35.1501 63.0717 34.9839 63.1548 34.8177C63.2378 34.6515 63.3209 34.5684 63.5702 34.4022H63.6533L63.5702 34.1529L62.1576 34.6515L60.7449 35.067H60.6618L60.7449 35.3163H60.828C61.0773 35.2332 61.2435 35.2332 61.4928 35.2332C61.5759 35.3163 61.7421 35.4824 61.8252 35.7317L63.0717 39.7204C63.1548 39.9697 63.1548 40.1359 63.1548 40.3021C63.0717 40.4683 62.9055 40.5514 62.6562 40.6345L62.5731 40.7176L62.6562 40.9669L64.0688 40.4683L65.4815 40.0528H65.6477L65.3984 39.7204ZM60.5787 38.3078C60.1632 37.3937 59.5816 36.8951 58.8337 36.6458C58.5013 36.5627 58.252 36.5627 58.0027 36.5627C57.5041 36.5627 57.0055 36.7289 56.507 36.9782L55.2605 37.643L53.9309 38.3078V38.3909L54.014 38.5571L54.0971 38.474C54.3464 38.3909 54.5126 38.3909 54.6788 38.3909C54.7619 38.3909 54.9281 38.5571 55.0943 38.8063L57.0055 42.4626C57.1717 42.7119 57.1717 42.8781 57.1717 43.0443C57.0886 43.2105 57.0055 43.3767 56.7562 43.4598H56.507L56.5901 43.7091L58.0027 43.0443L58.9999 42.5457C59.914 42.0471 60.5787 41.3824 60.828 40.6345C60.9111 40.5514 60.9111 40.4683 60.9111 40.4683C61.0773 39.9697 61.0773 39.5542 60.9111 38.9725C60.7449 38.8063 60.7449 38.5571 60.5787 38.3078ZM59.7478 40.9669C59.6647 41.4655 59.4154 41.881 58.9168 42.1302C58.7506 42.2133 58.5844 42.2964 58.5013 42.2133C58.4182 42.2133 58.3351 42.1302 58.252 41.881L58.0027 41.3824L56.2577 37.9754C56.1746 37.8092 56.0915 37.643 56.1746 37.5599C56.1746 37.4768 56.2577 37.3937 56.507 37.2275C57.0055 36.9782 57.5041 36.9782 57.9196 37.3106H58.0027C58.4182 37.5599 58.9168 38.0585 59.2492 38.8894C59.6647 39.8035 59.8309 40.4683 59.7478 40.9669ZM53.5154 44.7063L53.1 43.8753L52.8507 44.0415C53.0169 44.7063 53.0169 45.2049 52.8507 45.6203C52.7676 46.0358 52.4352 46.3682 51.9366 46.7837C51.7704 46.9499 51.6042 47.033 51.5211 47.033C51.3549 47.033 51.1887 46.8668 51.1056 46.7006L49.8592 45.2049L49.9423 45.1218C50.2746 44.8725 50.607 44.7063 50.8563 44.7063C51.1056 44.7063 51.5211 44.8725 51.8535 45.2879L52.0197 45.1218L50.9394 44.0415L49.9423 42.8781L49.7761 43.0443C50.1085 43.4598 50.1915 43.8753 50.1915 44.1246C50.1915 44.3739 50.0254 44.6232 49.693 44.8725L49.5268 45.0387L48.3634 43.5429C48.1972 43.4598 48.1972 43.2936 48.1972 43.2105C48.1972 43.1274 48.2803 43.0443 48.4465 42.8781V42.795C49.0282 42.3795 49.4437 42.1302 49.8592 42.0471C50.1915 42.0471 50.607 42.2133 51.0225 42.6288L51.1887 42.4626L50.5239 41.7979L49.9423 41.1331L47.7817 42.9612L47.6155 43.0443L46.0367 44.457L46.2029 44.6232L46.286 44.5401C46.4522 44.3739 46.7015 44.2908 46.7846 44.2908C46.9507 44.2908 47.1169 44.3739 47.2831 44.6232L47.6986 45.1218L49.9423 47.7809C50.1084 47.9471 50.1915 48.1964 50.1915 48.2795C50.1915 48.4457 50.0254 48.6118 49.8592 48.778L49.7761 48.8611L49.9423 49.0273L51.6873 47.6147L53.8478 45.7034H53.9309L53.8478 45.6203L53.5154 44.7063ZM45.3719 46.8668C45.1226 46.7006 44.9564 46.4513 44.9564 46.2851C44.8733 46.1189 44.9564 45.8696 45.1226 45.7034L45.2057 45.6203L45.0395 45.5372L44.4578 46.2851L43.793 47.033L43.9592 47.1992L44.0423 47.1161C44.2085 46.9499 44.4578 46.7837 44.624 46.7837C44.7071 46.7837 45.0395 46.8668 45.2888 47.1161L47.3662 48.778H43.4607H42.3804L41.7987 49.5259L41.1339 50.2738L41.3001 50.44L41.3832 50.3569C41.4663 50.2738 41.5494 50.2738 41.7156 50.2738C41.8818 50.1907 42.1311 50.1907 42.3804 50.1907L43.4607 51.1048L45.5381 52.7667C45.7874 52.9329 45.8705 53.1822 45.9536 53.3484C45.9536 53.5146 45.8705 53.7639 45.7874 53.9301L45.7043 54.0132L45.8705 54.1794L46.5353 53.3484L47.1169 52.6005L46.9507 52.4343L46.8677 52.5174C46.7015 52.6836 46.5353 52.7667 46.3691 52.7667C46.2029 52.7667 45.9536 52.6836 45.7043 52.4343L43.4607 50.6062L42.9621 50.1907H43.4607L47.7817 50.1076H49.2775L49.3606 50.0245L49.4437 49.9414L47.7817 48.6118L45.3719 46.8668ZM45.3719 54.678C45.2888 54.9273 45.1226 55.0935 44.9564 55.0935C44.8733 55.1765 44.624 55.0934 44.3747 55.0103L43.2945 54.3456L40.9677 53.016L40.8015 52.9329C40.6353 52.7667 40.386 52.6005 40.386 52.5174C40.3029 52.4343 40.386 52.185 40.5522 51.9357L40.6353 51.8526L40.386 51.6865L39.6382 53.016L38.8903 54.3456L39.0565 54.5118L39.1396 54.4287C39.2227 54.2625 39.3889 54.0132 39.5551 54.0132C39.6382 53.9301 39.8875 54.0132 40.1368 54.1794L41.0508 54.678L43.3776 56.0906L43.7099 56.2568C43.8761 56.3399 44.1254 56.5061 44.1254 56.6723C44.2085 56.8385 44.1254 57.0047 43.9592 57.254L43.8761 57.3371L44.1254 57.5033L44.8733 56.1737L45.6212 54.7611L45.3719 54.678ZM42.879 59.6638C42.7959 59.9962 42.6297 60.1624 42.5466 60.2455C42.3804 60.3286 42.2142 60.3286 41.9649 60.1624L41.0508 59.83L40.1368 59.4145H40.2199C40.386 58.999 40.6353 58.7497 40.8015 58.6666C40.9677 58.5835 40.9677 58.5835 41.1339 58.5835C41.3832 58.5835 41.6325 58.5835 42.048 58.7497L42.1311 58.5004L41.0508 58.1681L40.6353 58.0019L39.2227 57.4202L39.0565 57.5864C39.472 57.8357 39.8044 58.1681 39.8875 58.3342C40.0537 58.5835 39.9706 58.9159 39.8044 59.2483L38.0593 58.5835C37.8931 58.5004 37.7269 58.4173 37.7269 58.3342C37.6438 58.1681 37.6438 58.085 37.81 57.9188C38.0593 57.254 38.3917 56.7554 38.641 56.5892C38.9734 56.423 39.3889 56.423 39.9706 56.5892L40.0537 56.3399L39.2227 56.0075L38.3917 55.592L37.3114 58.2511L36.4805 60.3286L36.6467 60.4948L36.7298 60.3286C36.8129 60.0793 36.896 59.9131 37.0621 59.9131C37.2283 59.83 37.3945 59.83 37.6438 59.9962L41.0508 61.4089L41.4663 61.575C41.7156 61.6581 41.7987 61.7412 41.8818 61.9074C41.9649 62.0736 41.9649 62.2398 41.7987 62.4891V62.5722L42.048 62.6553L42.6297 61.2427L43.2945 59.83L42.879 59.6638Z" fill="white"/>
</svg>
