<?xml version="1.0" encoding="utf-8"?>
<svg width="196" height="127" viewBox="0 0 196 127" fill="none" xmlns="http://www.w3.org/2000/svg">
<path d="M24.0787 59.5401L12.4115 65.0349L13.7664 67.9705L15.2718 67.2931L17.3795 71.8847L9.70171 75.4977L7.5941 70.9061L9.17481 70.1534L3.67995 58.7121L2.09924 59.4648L0.0668945 54.9485L17.7558 46.7438C20.6162 45.3889 22.7238 46.1416 24.0787 49.002L26.4121 53.9699C27.4659 56.4539 26.7132 58.3357 24.0787 59.5401ZM19.7129 52.615C19.4118 51.9376 18.6591 51.8623 17.6053 52.3139L8.42209 56.6044L10.3792 60.8197L19.6376 56.4539C20.6162 56.0023 20.9925 55.4001 20.6162 54.6474L19.7129 52.615ZM49.2195 50.2816L49.7464 50.1311C52.9079 49.0772 54.1122 47.346 53.2842 44.7867L51.6282 39.593C50.6497 36.5821 48.6173 35.6036 45.6817 36.5821L27.1648 42.6039L28.6703 47.2707L30.3262 46.7438L34.2404 58.7121L32.5844 59.239L34.1651 64.0564L42.2192 61.4219L40.6385 56.6044L39.1331 57.1314L38.1545 54.1205L43.1978 52.4645L47.413 54.5721L45.8323 55.099L47.3377 59.7659L57.0478 56.6044L55.5424 52.0129L53.8111 52.615L49.2195 50.2816ZM46.8108 42.6039L47.4883 44.7115C47.7141 45.4642 47.3377 46.0664 46.2839 46.3675L36.5738 49.5289L35.1437 45.1631L44.7785 42.0769C45.9076 41.7006 46.585 41.8511 46.8108 42.6039ZM77.296 38.6897L76.8444 35.3777L65.0267 37.0337L65.6288 41.3242L75.4142 39.9693L76.0916 44.862L66.3063 46.2169L66.7579 49.3783L78.5003 47.7224L78.0487 44.7115L83.393 43.9587L84.5221 51.8623L60.6609 55.2496L59.9834 50.3569L61.6394 50.1311L59.9082 37.6359L58.2522 37.8617L57.5747 32.969L81.5112 29.5818L82.6403 37.8617L77.296 38.6897ZM108.986 51.6365L109.136 46.6685L110.641 46.7438L110.943 38.1628L103.716 51.4107L100.63 51.3354L94.1569 37.1843L93.8558 46.518L95.5118 46.5933L95.3613 51.1849L87.0061 50.8838L87.1566 46.3675L88.5868 46.4427L89.0384 34.0228H87.9846L88.2104 28.3774L95.9635 28.6785L102.512 43.206L110.115 29.1302L117.792 29.4312L117.567 35.0766L116.061 35.0014L115.685 46.8944L117.19 46.9696L117.04 52.0129L108.986 51.6365ZM120.728 52.8408L121.405 47.8729L123.287 48.174L125.018 35.6788L123.137 35.453L123.814 30.5603L132.546 31.7647L131.868 36.8079L130.137 36.5821L128.406 48.9267L130.212 49.2278L129.535 54.1957L120.728 52.8408ZM159.493 43.8082L156.181 56.3034C155.428 59.239 153.772 60.3681 151.364 59.6906L138.793 56.3034C136.385 55.6259 135.557 53.8947 136.309 50.959L139.696 38.2381L138.041 37.7864L139.32 33.0443L147.751 35.3025L146.471 40.1951L144.664 39.7435L141.804 50.5827C141.578 51.4107 141.879 51.9376 142.707 52.1634L149.933 54.1205C150.837 54.3463 151.364 54.1205 151.589 53.443L154.525 42.4533L152.643 41.9264L153.923 37.0337L162.654 39.3672L161.3 44.3351L159.493 43.8082ZM179.139 70.9814L186.44 74.3686L188.548 69.777L187.193 69.1749L192.236 58.3357L193.591 58.9379L196 53.8194L189 50.5827L176.505 60.5939L176.203 44.7115L169.128 41.3995L166.719 46.518L167.698 46.9696L162.429 58.2604L161.149 57.6583L159.267 61.7229L166.794 65.2607L168.752 61.0455L167.246 60.368L171.16 51.9376L171.612 67.5189L174.397 68.7985L186.215 59.3895L182.602 67.2178L181.247 66.5404L179.139 70.9814Z" fill="#B8B8B6"/>
<path d="M46.6617 77.2293H45.4573V76.1755C45.3068 76.4766 45.0057 76.7024 44.6293 76.9282C44.1024 77.2293 43.425 77.3799 42.597 77.3799C41.1668 77.3799 40.113 77.0788 39.5108 76.4766C38.8334 75.7991 38.457 74.7453 38.457 73.2399C38.457 70.4548 39.8872 69.0247 42.6723 69.0247C43.8013 69.0247 44.7046 69.1752 45.3821 69.5516C46.2101 69.9279 46.6617 70.6054 46.6617 71.4334H44.9304C44.9304 70.8312 44.7046 70.4548 44.1777 70.1537C43.8013 69.9279 43.3497 69.8527 42.7475 69.8527C41.6937 69.8527 41.0163 70.1537 40.5646 70.7559C40.2636 71.2075 40.113 72.0355 40.113 73.0893C40.113 74.369 40.3388 75.2722 40.7152 75.7991C41.0916 76.326 41.769 76.5519 42.6723 76.5519C43.5003 76.5519 44.1024 76.326 44.5541 75.8744C44.9304 75.4228 45.1562 74.7453 45.1562 73.7668H42.5217V73.0141H46.6617V77.2293ZM59.5332 74.6701C59.5332 76.4766 58.1783 77.3046 55.5438 77.3046C52.9845 77.3046 51.7049 76.4013 51.7049 74.5948V69.0999H53.3609V74.5948C53.3609 75.3475 53.5867 75.7991 53.9631 76.1002C54.3394 76.326 54.8663 76.4766 55.6943 76.4766C56.447 76.4766 57.0492 76.326 57.3503 76.1002C57.7267 75.7991 57.9525 75.3475 57.9525 74.5948V69.0247H59.5332V74.6701ZM73.1574 77.2293H71.4262L70.4476 75.0464H66.1571L65.1786 77.2293H63.4473L67.2862 69.1752H69.4691L73.1574 77.2293ZM70.1466 74.2184L68.4153 70.3796L66.5335 74.2184H70.1466ZM85.6526 77.2293H83.6955C83.3944 77.0035 83.2439 76.4013 83.2439 75.4228C83.2439 74.6701 83.0933 74.2184 82.717 73.9173C82.4159 73.6915 81.8137 73.6163 80.9857 73.6163H78.9534V77.2293H77.2974V69.1752H81.5879C83.9213 69.1752 85.0504 69.8527 85.0504 71.2828C85.0504 71.7345 84.8246 72.1861 84.4482 72.5624C84.0719 72.9388 83.545 73.1646 82.9428 73.2399C83.6955 73.3152 84.2224 73.4657 84.5235 73.7668C84.8246 74.0679 85.0504 74.6701 85.0504 75.4981C84.9751 76.4013 85.201 77.0035 85.6526 77.2293ZM83.3192 71.4334C83.3192 70.4548 82.4912 70.0032 80.8352 70.0032H78.9534V72.8635H80.8352C82.4912 72.7883 83.3192 72.3366 83.3192 71.4334ZM98.5994 77.2293H96.8681L95.8896 75.0464H91.5991L90.6205 77.2293H88.8893L92.7282 69.1752H94.911L98.5994 77.2293ZM95.5885 74.2184L93.8572 70.3796L91.9754 74.2184H95.5885ZM110.944 77.2293H108.686L104.395 70.7559V77.2293H102.739V69.1752H104.847L109.288 75.8744H109.363V69.1752H111.019V77.2293H110.944ZM123.74 70.0785H120.353V77.2293H118.697V70.0785H115.31V69.1752H123.665V70.0785H123.74ZM135.257 77.2293H128.106V69.1752H135.031V70.0785H129.762V72.5624H134.73V73.4657H129.762V76.326H135.257V77.2293ZM147.075 77.2293H139.999V69.1752H146.924V70.0785H141.655V72.5624H146.623V73.4657H141.58V76.326H147.075V77.2293ZM160.247 73.0893C160.247 74.5195 159.871 75.5733 159.118 76.2508C158.365 76.853 157.161 77.2293 155.43 77.2293H151.967V69.1752H155.58C157.01 69.1752 158.064 69.401 158.742 69.8527C159.72 70.4548 160.247 71.5086 160.247 73.0893ZM158.516 73.1646C158.516 71.885 158.215 71.057 157.688 70.6054C157.236 70.229 156.408 70.0032 155.204 70.0032H153.623V76.4013H155.053C156.182 76.4013 157.01 76.1755 157.537 75.7991C158.215 75.2722 158.516 74.4442 158.516 73.1646Z" fill="#B8B8B6"/>
<path d="M18.7344 91.2299L26.3369 83.3264L27.9176 84.9071L24.9067 87.9932L27.9928 91.0041L31.0037 87.918L32.5844 89.4987L24.982 97.4022L23.4012 95.8968L26.7132 92.4343L23.5518 89.4234L20.2398 92.8859L18.7344 91.2299ZM29.5735 101.091L31.3048 102.445L38.0793 93.7892L36.348 92.4343L29.5735 101.091ZM42.2945 105.381L43.2731 103.8L47.2625 106.435L44.8538 110.123C44.2516 110.274 43.4236 110.198 42.5203 110.048C41.6171 109.822 40.7138 109.521 39.9611 108.994C38.9825 108.392 38.3051 107.639 37.8535 106.736C37.4018 105.833 37.2513 104.929 37.3266 103.951C37.4771 102.972 37.7782 102.069 38.3804 101.166C38.9825 100.187 39.7353 99.5098 40.6385 98.9829C41.5418 98.5313 42.4451 98.3055 43.4989 98.3808C44.2516 98.456 45.1549 98.7571 45.9828 99.3593C47.1119 100.112 47.8646 100.94 48.1657 101.843C48.4668 102.747 48.4668 103.65 48.0905 104.628L45.9828 103.8C46.1334 103.273 46.1334 102.747 45.9076 102.22C45.757 101.768 45.3807 101.316 44.7785 100.94C43.9505 100.413 43.1225 100.263 42.3698 100.488C41.5418 100.714 40.7891 101.316 40.1869 102.295C39.5095 103.424 39.2084 104.403 39.2836 105.231C39.4342 106.134 39.8858 106.811 40.6385 107.263C41.0149 107.489 41.4665 107.714 41.9934 107.79C42.4451 107.865 42.972 107.94 43.3483 107.865L44.101 106.661L42.2945 105.381ZM49.1443 113.962L53.8111 104.026L55.8435 104.929L54.0369 108.844L57.9511 110.65L59.7576 106.736L61.79 107.639L57.1231 117.575L55.0908 116.672L57.1231 112.306L53.209 110.5L51.1766 114.865L49.1443 113.962ZM62.618 119.683L66.231 109.295L73.9088 111.93L73.3066 113.661L67.7365 111.704L66.9085 114.037L72.1022 115.844L71.5001 117.575L66.3063 115.769L65.3278 118.629L71.1237 120.661L70.5215 122.393L62.618 119.683ZM75.9411 119.909L78.124 120.134C78.124 120.887 78.2745 121.414 78.5756 121.866C78.8767 122.242 79.4036 122.543 80.0811 122.694C80.7585 122.844 81.3607 122.769 81.7371 122.543C82.1887 122.317 82.4145 122.016 82.4898 121.64C82.565 121.414 82.4898 121.188 82.4145 120.962C82.264 120.737 82.0381 120.511 81.7371 120.36C81.5112 120.21 80.9843 119.984 80.0811 119.532C78.952 119.005 78.1993 118.478 77.8229 118.027C77.296 117.274 77.0702 116.521 77.2207 115.693C77.296 115.166 77.5971 114.64 77.9735 114.263C78.3498 113.812 78.8767 113.586 79.5542 113.435C80.1563 113.285 80.9091 113.285 81.7371 113.435C83.0919 113.736 84.0705 114.188 84.5974 114.941C85.1996 115.693 85.3501 116.521 85.1996 117.5L83.0167 117.199C83.0167 116.597 82.9414 116.22 82.6403 115.919C82.4145 115.618 81.9629 115.392 81.3607 115.317C80.7585 115.166 80.2316 115.242 79.78 115.392C79.5542 115.543 79.3283 115.693 79.3283 115.994C79.2531 116.22 79.3284 116.521 79.5542 116.747C79.78 117.048 80.3822 117.425 81.436 117.876C82.4145 118.328 83.1672 118.704 83.6189 119.081C84.0705 119.457 84.3716 119.909 84.5974 120.435C84.8232 120.962 84.8232 121.565 84.6727 122.242C84.5221 122.844 84.2963 123.371 83.8447 123.898C83.393 124.35 82.8661 124.651 82.1887 124.801C81.5112 124.952 80.6833 124.952 79.78 124.726C78.4251 124.425 77.4465 123.973 76.8444 123.145C76.0917 122.167 75.8658 121.188 75.9411 119.909ZM91.8235 125.93L92.6515 116.822L89.4148 116.521L89.5653 114.64L98.2969 115.392L98.1464 117.274L94.9097 116.973L94.0817 126.081L91.8235 125.93ZM114.405 124.124C115.007 124.5 115.609 124.726 116.287 124.877L115.609 126.533C115.233 126.457 114.932 126.382 114.631 126.231C114.556 126.231 114.029 125.93 113.05 125.403C112.373 125.78 111.545 126.006 110.717 126.081C109.061 126.231 107.706 125.855 106.652 124.952C105.598 124.049 104.996 122.694 104.846 120.887C104.695 119.081 105.071 117.65 105.899 116.597C106.803 115.543 108.007 114.941 109.663 114.79C111.319 114.64 112.599 115.016 113.652 115.919C114.706 116.822 115.308 118.177 115.459 119.984C115.534 120.962 115.459 121.79 115.308 122.543C115.083 122.995 114.781 123.597 114.405 124.124ZM112.523 123.07C112.749 122.694 112.975 122.317 113.05 121.79C113.125 121.339 113.201 120.737 113.125 120.134C113.05 118.855 112.674 117.951 112.072 117.349C111.47 116.747 110.717 116.521 109.814 116.597C108.91 116.672 108.233 117.048 107.706 117.726C107.179 118.403 107.028 119.382 107.104 120.661C107.254 121.941 107.555 122.844 108.233 123.446C108.835 124.049 109.588 124.274 110.416 124.199C110.717 124.199 111.018 124.124 111.319 123.973C110.867 123.747 110.34 123.522 109.889 123.371L110.416 122.091C111.093 122.317 111.846 122.618 112.523 123.07ZM118.696 113.736L120.879 113.209L122.233 119.005C122.459 119.909 122.61 120.511 122.685 120.737C122.911 121.188 123.212 121.489 123.588 121.64C123.965 121.79 124.492 121.866 125.094 121.715C125.696 121.565 126.148 121.339 126.373 121.038C126.599 120.737 126.75 120.36 126.75 119.984C126.75 119.607 126.599 119.005 126.449 118.177L125.094 112.231L127.277 111.704L128.556 117.349C128.857 118.629 129.008 119.532 129.008 120.134C129.008 120.661 128.933 121.188 128.707 121.64C128.481 122.091 128.105 122.468 127.653 122.844C127.201 123.145 126.524 123.446 125.696 123.672C124.642 123.898 123.889 123.973 123.287 123.823C122.685 123.747 122.233 123.522 121.857 123.221C121.481 122.919 121.18 122.543 120.954 122.167C120.653 121.565 120.427 120.661 120.126 119.532L118.696 113.736ZM144.664 117.349L142.406 118.253L140.6 116.296L136.535 117.951L136.61 120.586L134.427 121.489L134.277 109.672L136.46 108.768L144.664 117.349ZM139.245 114.865L136.309 111.629L136.46 115.994L139.245 114.865ZM149.106 115.392L156.031 111.854L155.203 110.198L150.31 112.682L146.17 104.628L144.213 105.607L149.106 115.392ZM160.246 109.22L154.299 100.037L156.181 98.8324L162.203 108.091L160.246 109.22ZM168.902 103.273L170.633 101.843L164.913 94.7677L167.472 92.7354L166.343 91.3052L159.568 96.8001L160.697 98.2302L163.257 96.1979L168.902 103.273ZM178.838 94.6172L175.601 91.3052L168.3 89.4987L170.182 87.6921L175.074 89.047L173.87 84.1544L175.677 82.4231L177.182 89.7998L180.343 93.1117L178.838 94.6172Z" fill="#B8B8B6"/>
<path d="M99.6522 5.87122C99.6522 5.94649 99.6522 5.94649 99.5769 6.02176L99.6522 5.87122ZM107.255 3.53779C107.179 3.38724 107.255 3.2367 107.255 3.2367C107.029 2.70979 106.803 2.25816 106.577 2.03234C106.502 1.95707 106.427 1.95707 106.427 1.95707C106.351 1.95707 106.351 1.95707 106.276 1.8818C105.749 1.73126 105.448 1.65598 105.222 1.65598V1.65598H104.695C104.695 1.73126 104.545 1.80653 104.169 1.80653V1.65598C103.566 1.80653 103.039 1.8818 102.738 1.8818C102.663 1.95707 102.588 2.03234 102.513 2.10762C102.513 2.18289 102.437 2.18289 102.362 2.25816V2.4087C102.437 2.4087 102.588 2.48398 102.889 2.63452H102.964C103.039 2.70979 103.039 2.70979 103.115 2.70979C103.19 2.93561 103.341 3.01088 103.416 2.86034V2.63452C103.341 2.55925 103.265 2.55925 103.19 2.55925L103.416 2.4087C103.491 2.4087 103.642 2.4087 103.717 2.48398C103.867 2.55925 103.943 2.55925 104.018 2.55925V2.63452C104.394 2.86034 104.695 3.08615 104.846 3.31197V3.83887L104.47 4.74214C104.244 4.81741 104.169 4.89268 104.093 4.96795C103.792 5.34431 103.416 5.49486 102.964 5.49486L102.738 5.6454V5.79595H102.211C101.986 5.94649 101.835 5.94649 101.685 5.94649V6.09703C101.082 6.09703 100.706 6.09703 100.555 6.17231V5.87122C100.48 5.94649 100.405 5.94649 100.405 5.94649C100.405 5.94649 100.405 6.02176 100.33 6.02176H100.179V5.94649C100.104 5.94649 100.029 5.94649 100.029 6.02176C99.9533 6.02176 99.9533 6.02176 99.878 5.94649L99.9533 5.87122H99.878C99.8027 5.87122 99.8027 5.87122 99.8027 5.94649C99.5769 5.87122 99.4264 5.87122 99.3511 5.87122C99.4264 5.94649 99.4264 5.94649 99.5016 5.94649V6.02176H99.2758V5.94649C99.2006 5.94649 99.2006 5.94649 99.1253 5.87122C99.05 5.87122 99.05 5.79595 98.9747 5.79595V5.87122L98.2973 5.72067V5.6454C97.9962 5.57013 97.6198 5.49486 97.3187 5.26904H97.0929L96.7918 5.1185C96.7918 5.04323 96.8671 4.81741 97.0177 4.44105H97.0929L97.3187 3.83887L97.6951 3.38724C97.7704 3.08615 97.9209 2.93561 98.1467 2.86034C98.1467 2.70979 98.3726 2.33343 98.8995 1.8818C98.9747 1.8818 98.9747 1.8818 99.05 1.95707C99.2758 1.58071 99.4264 1.43017 99.5769 1.43017V1.43017C99.7275 1.27962 99.9533 1.20435 100.254 1.20435V1.12908C100.631 1.05381 100.932 0.903264 101.308 0.75272V0.526904L101.459 0.451632C101.534 0.526904 101.534 0.602176 101.534 0.677448H101.685C101.685 0.602176 101.76 0.526904 101.91 0.526904H101.685V0.451632L101.76 0.37636V0.526904L102.061 0.37636C102.362 0.301088 102.588 0.225816 102.588 0.150544C101.534 0.150544 101.007 0.301088 101.007 0.37636C100.932 0.451632 100.857 0.451632 100.781 0.451632C100.706 0.451632 100.631 0.451632 100.631 0.526904C100.555 0.451632 100.48 0.451632 100.33 0.451632L100.179 0.150544C100.104 0.075272 100.029 0.075272 99.9533 0.075272V0L98.8242 0.225816L98.7489 0.301088C98.6737 0.37636 98.5984 0.37636 98.5231 0.37636C98.4478 0.37636 98.4478 0.37636 98.3726 0.451632C97.8457 0.526904 97.5446 0.602176 97.4693 0.677448C97.1682 0.75272 97.0177 0.827992 97.0929 0.827992C96.8671 0.903264 96.7166 0.978536 96.6413 1.05381C96.4155 1.12908 96.2649 1.27962 96.1144 1.3549L95.6628 1.50544C95.5875 1.65598 95.437 1.65598 95.2111 1.65598C95.1359 1.73126 95.1359 1.73126 95.1359 1.8818C94.91 1.95707 94.7595 2.03234 94.7595 2.10762C94.3831 2.33343 94.0821 2.63452 93.9315 2.86034C93.7057 2.93561 93.6304 3.08615 93.5551 3.2367L93.0282 3.01088C92.8777 2.86034 92.8024 2.78507 92.7272 2.78507C92.6519 2.63452 92.4261 2.4087 91.8239 2.10762C91.6734 2.03234 91.5228 1.95707 91.3723 1.8818C91.2217 1.80653 91.1464 1.80653 91.1464 1.8818C91.0712 1.80653 90.9959 1.73126 90.9959 1.73126L90.469 1.50544C90.0174 1.43017 89.8668 1.3549 89.8668 1.27962C89.7163 1.20435 89.5657 1.20435 89.4905 1.20435C89.4152 1.20435 89.2646 1.20435 89.1894 1.20435C88.5119 1.05381 88.1356 0.978536 88.0603 0.978536L85.6516 0.75272V0.827992L84.4472 0.978536L84.2214 1.12908C83.544 1.20435 83.0923 1.27962 82.9418 1.3549L81.7374 1.65598C81.6622 1.73126 81.5869 1.73126 81.5116 1.73126V1.80653H81.2105C80.9847 1.95707 80.8342 2.03234 80.6836 2.03234V2.10762C80.3073 2.18289 79.9309 2.4087 79.404 2.86034C79.1782 2.93561 79.0277 3.01088 79.0277 3.08615C78.6513 3.16143 78.3502 3.38724 78.3502 3.68833H78.1997C78.1997 3.7636 78.1997 3.83887 78.1244 3.83887C77.8233 3.98942 77.5975 4.13996 77.5975 4.36578C77.5222 4.44105 77.5222 4.44105 77.4469 4.44105C77.2964 4.44105 77.2211 4.44105 77.2211 4.36578V4.81741C76.7695 5.04323 76.6189 5.19377 76.7695 5.19377L76.8448 5.49486L76.5437 5.87122C76.4684 6.39812 76.3931 6.62394 76.3179 6.62394L76.5437 5.49486C76.4684 5.6454 76.3931 5.79595 76.3931 5.79595C76.092 5.94649 76.092 6.17231 76.092 6.47339C76.0168 6.54867 76.0168 6.54867 75.9415 6.54867V7.07557H76.092C76.092 6.92503 76.092 6.84975 76.1673 6.69921C76.1673 6.62394 76.1673 6.62394 76.2426 6.62394V7.07557C76.1673 7.30139 76.092 7.5272 76.092 7.60248H76.0168C75.9415 7.5272 75.9415 7.45193 75.9415 7.37666H75.8662L76.0168 8.05411L76.1673 9.55955L76.4684 9.93591L76.5437 9.86064C76.5437 9.86064 76.5437 9.93591 76.6189 10.0112H76.6942L76.7695 10.3875H76.8448C76.8448 10.5381 76.92 10.6134 76.9953 10.6134C77.1458 10.9144 77.2964 11.1403 77.5222 11.2155L77.9738 11.893C78.1997 11.9683 78.4255 12.1188 78.6513 12.2693C78.7266 12.4199 78.8771 12.4952 79.1782 12.4952V12.5704C79.1782 12.6457 79.4793 12.721 80.0815 12.8715V12.7962C80.3073 12.8715 80.4578 12.8715 80.6084 12.8715C80.7589 12.8715 80.9094 12.8715 81.06 12.8715C81.06 12.7962 81.2105 12.7962 81.5869 12.7962L81.6622 12.9468L81.8127 12.7962H82.1138C82.1138 12.721 82.1891 12.721 82.1891 12.6457C82.4149 12.6457 82.5654 12.5704 82.6407 12.5704C82.716 12.5704 82.716 12.5704 82.6407 12.5704V12.4952C82.716 12.4199 82.8665 12.4199 82.9418 12.4199V12.2693C83.0171 12.2693 83.0923 12.1941 83.1676 12.1188L83.6945 11.9683C83.8451 11.8177 83.9203 11.7424 83.9956 11.7424V11.5919C84.2214 11.4413 84.4472 11.2155 84.5978 10.9897C84.8236 10.8392 84.8989 10.6886 84.9741 10.5381L85.1247 10.3123H85.2752V10.237L85.4258 10.0865V10.0112H85.501C85.501 10.0865 85.501 10.0865 85.501 10.0112C85.501 9.93591 85.501 9.78536 85.5763 9.63482C85.6516 9.63482 85.6516 9.63482 85.7269 9.71009C85.8021 9.55955 85.8021 9.409 85.8021 9.25846H85.8774C85.8774 9.33373 85.8774 9.409 85.9527 9.409V9.03264C86.1032 8.95737 86.1785 8.80683 86.1785 8.58101L86.1032 8.50574C86.0279 8.27992 86.0279 8.05411 86.1032 7.97884L85.8774 7.0003C85.8021 6.84975 85.7269 6.77448 85.6516 6.77448V6.92503L84.8236 6.47339C84.4472 6.47339 84.0709 6.47339 83.7698 6.47339C83.4687 6.47339 83.1676 6.47339 82.9418 6.54867C82.9418 6.62394 82.8665 6.62394 82.8665 6.69921C82.9418 6.69921 83.0171 6.77448 83.2429 6.77448V6.77448C83.3182 6.69921 83.4687 6.69921 83.6192 6.69921C83.7698 6.84975 83.4687 7.15084 82.7913 7.5272C82.716 7.67775 82.6407 7.82829 82.6407 7.90356C82.6407 7.97884 82.6407 8.05411 82.716 8.05411C82.7913 8.95737 82.7913 9.409 82.716 9.55955C82.5654 9.78536 82.4902 9.93591 82.3396 10.1617C82.2643 10.3875 82.1138 10.4628 82.0385 10.5381L81.8127 10.6886L81.6622 10.9144C81.5116 10.9897 81.3611 11.065 81.2858 11.2155C81.06 11.2908 80.9095 11.2908 80.8342 11.3661C80.4578 11.3661 80.232 11.3661 80.232 11.4413H79.7051C79.6298 11.4413 79.6298 11.4413 79.6298 11.3661C78.8771 11.2908 78.4255 11.1403 78.3502 10.9144C78.1244 10.7639 77.8986 10.4628 77.6728 10.1617C77.5975 10.1617 77.5975 10.1617 77.5975 10.0865C77.5222 9.86064 77.4469 9.63482 77.4469 9.55955L77.0706 8.65628L77.2211 7.5272C77.2964 7.37666 77.2964 7.22611 77.2964 7.0003C77.2964 6.84975 77.3717 6.69921 77.4469 6.47339H77.6728V6.69921L77.748 6.62394C77.5975 6.62394 77.5975 6.54867 77.5975 6.39812L77.748 6.54867V6.24758C77.9738 6.02176 78.1997 5.87122 78.3502 5.79595C78.3502 5.72067 78.5007 5.57013 78.7266 5.34431L79.0277 5.1185V5.04323C79.6298 4.81741 79.9309 4.66687 79.7804 4.66687V4.59159C80.232 4.44105 80.4578 4.29051 80.5331 4.06469C81.8127 3.68833 82.5654 3.46251 82.8665 3.46251C82.9418 3.46251 82.9418 3.46251 83.0171 3.53779H83.6945C83.6945 3.61306 83.6945 3.61306 83.7698 3.61306H84.2967C84.5978 3.68833 84.8236 3.7636 84.8236 3.7636C85.1247 3.91415 85.3505 3.98942 85.5763 3.98942C85.5763 3.98942 85.5763 4.06469 85.6516 4.06469C85.7269 4.06469 85.8774 4.13996 86.0279 4.29051C86.2538 4.36578 86.5549 4.51632 87.0065 4.66687C87.3076 4.89268 87.4581 5.04323 87.5334 5.04323C87.5334 5.26904 87.5334 5.41959 87.6087 5.49486V5.34431L87.6839 5.26904C87.7592 5.34431 87.8345 5.34431 87.9097 5.34431C87.985 5.34431 88.0603 5.34431 88.0603 5.41959C88.2108 5.57013 88.3614 5.6454 88.5119 5.6454C88.5872 5.87122 88.7377 6.02176 88.9636 6.09703L89.0388 6.17231V6.24758H89.1894L90.0174 6.92503L90.2432 7.15084C90.2432 7.30139 90.1679 7.37666 90.0926 7.45193C90.0174 7.90356 89.9421 8.05411 89.8668 8.05411C89.7916 8.12938 89.7915 8.20465 89.7915 8.27992C89.7915 8.3552 89.7915 8.3552 89.7163 8.43047C89.4152 9.10792 89.0388 9.78536 88.5872 10.3123L88.2108 11.3661L87.2323 12.7962C87.2323 13.1726 87.0818 13.549 86.9312 13.6995C86.5549 14.2264 86.329 14.6028 86.329 14.7533L85.5763 16.0329V16.2588C85.5763 16.334 85.501 16.334 85.4258 16.334C85.3505 16.4093 85.3505 16.4846 85.3505 16.5598C85.3505 16.6351 85.3505 16.7104 85.2752 16.7104C85.2752 16.8609 85.2 17.0115 85.0494 17.2373C84.9741 17.4631 84.8236 17.6889 84.5978 17.99L84.4472 18.2911C84.2214 18.5922 84.0709 18.818 84.0709 18.9686C83.8451 19.1944 83.6945 19.4202 83.6192 19.7213L82.716 20.6245C82.716 20.7751 82.5654 20.9256 82.3396 21.1514C82.1138 21.3773 81.9633 21.6031 82.0385 21.7536C81.8127 21.8289 81.7374 21.9042 81.6622 21.9794C81.2105 22.2052 81.06 22.4311 81.06 22.5816L80.3825 23.1838C80.232 23.2591 80.0815 23.3343 80.0815 23.4849C79.6298 23.7107 79.2535 24.0118 78.9524 24.3881C78.2749 24.4634 77.9738 24.614 77.9738 24.915C77.8986 24.8398 77.8986 24.8398 77.8233 24.8398C77.748 24.8398 77.748 24.8398 77.5975 24.9903C77.3717 25.0656 77.1458 25.0656 76.8448 25.0656L76.3179 24.8398H76.092C75.791 24.5387 75.6404 24.3129 75.4899 24.1623C75.3393 24.0118 75.1888 23.786 75.1135 23.4849C74.963 23.3343 74.8124 23.1838 74.8124 23.0332H74.8877V23.1085C75.0382 23.1085 75.1135 23.1085 75.1135 23.0332H75.0382C75.0382 22.8074 75.0382 22.6569 75.1135 22.5816L74.963 22.4311C75.0382 22.3558 75.1135 22.2052 75.1888 21.9794C75.3393 21.6783 75.4146 21.5278 75.4899 21.3773C76.0168 20.6998 76.5437 20.3987 77.1458 20.3987L77.2211 20.474H77.6728L77.8986 20.1729C77.8986 20.1729 77.8233 20.0976 77.748 20.0976C77.6728 20.0976 77.5975 20.0224 77.5975 20.0224C77.2211 19.9471 76.9953 19.8718 77.0706 19.8718V19.7965L76.6942 19.5707C76.6189 19.5707 76.4684 19.4955 76.1673 19.4955C75.8662 19.4202 75.6404 19.4202 75.5651 19.646C75.0382 19.9471 74.7371 20.1729 74.6619 20.2482L74.135 20.7751C73.9844 21.1514 73.8339 21.3773 73.6833 21.5278V21.8289L73.4575 21.9042C73.4575 21.9042 73.4575 22.13 73.5328 22.3558C73.6081 22.6569 73.6081 22.958 73.6833 23.4096C73.7586 23.7107 73.8339 23.9365 73.8339 23.9365H73.9092C73.9844 24.087 73.9844 24.2376 73.9844 24.3881C74.0597 24.3881 74.0597 24.3881 74.135 24.3129L74.2102 24.3881L75.1135 25.2914C75.4146 25.2914 75.5651 25.3667 75.6404 25.4419H75.791V25.5925L77.0706 26.1194C77.5975 26.3452 78.2749 26.571 79.0277 26.6463C79.0277 26.7968 79.0276 26.9474 79.1029 26.9474H79.1782C79.1782 26.8721 79.1029 26.7968 79.1029 26.7216C79.1782 26.6463 79.2535 26.6463 79.3287 26.6463C79.3287 26.7216 79.4793 26.7968 79.7051 26.7968L79.5546 26.9474H79.9309L79.8556 26.8721L79.7051 26.7968V26.6463C79.9309 26.6463 80.0815 26.6463 80.1567 26.571C80.6084 26.4958 80.9094 26.4205 81.06 26.3452L81.1353 26.4205L82.1138 26.1194V26.0441C82.1891 26.0441 82.2643 25.9689 82.3396 25.9689V25.8936C82.4149 25.8936 82.4902 25.8183 82.5654 25.743C82.5654 25.743 82.6407 25.6678 82.716 25.5925C83.2429 25.4419 83.4687 25.3667 83.4687 25.2161H83.6192V25.1409L84.2967 24.6892L84.6731 24.4634H84.7483L84.5225 24.8398H84.372C84.2967 24.915 84.2967 24.9903 84.2967 24.9903C84.2967 25.0656 84.2967 25.0656 84.2214 25.1409H84.4472C84.5225 24.9903 84.5978 24.8398 84.7483 24.7645V24.3129C84.7483 24.3881 84.8236 24.3881 84.8989 24.3881C84.8236 24.4634 84.8236 24.4634 84.8989 24.4634C84.8989 24.4634 84.8989 24.3881 84.8989 24.3129H84.9741C84.9741 24.1623 85.1247 24.087 85.4258 24.087C85.4258 24.0118 85.4258 23.9365 85.501 23.9365H85.6516C85.6516 23.8612 85.7269 23.8612 85.8774 23.7107C86.1032 23.4849 86.2538 23.2591 86.329 23.1838H86.4796C86.4796 22.958 86.5549 22.8074 86.6301 22.7322C86.6301 22.6569 86.6301 22.5816 86.7054 22.5063C87.157 22.2052 87.3076 21.9794 87.3076 21.7536H87.3828V21.5278C87.4581 21.5278 87.4581 21.5278 87.5334 21.4525L87.6087 21.2267C87.6839 21.2267 87.6839 21.2267 87.7592 21.1514V21.0009L87.985 20.8504V20.6998L88.2861 20.474L88.2108 20.3234H88.2861C88.2861 20.2482 88.2861 20.1729 88.3614 20.1729L88.4367 20.2482L88.5872 19.9471V19.7965C88.7377 19.7213 88.7377 19.646 88.7377 19.5707H88.813C88.813 19.3449 88.8883 19.1944 89.0388 19.1191C89.1894 18.818 89.2646 18.6675 89.3399 18.5922H89.4152L89.641 18.0653H89.7163L90.0174 17.5384H90.0926C90.0174 17.4631 90.0174 17.4631 90.0174 17.3878C90.0174 17.3126 90.0174 17.3126 89.9421 17.2373H90.0174V17.3878C90.1679 17.4631 90.2432 17.3126 90.3937 16.9362C90.5443 16.5598 90.5443 16.334 90.5443 16.1835H90.6195C90.6195 16.2588 90.6195 16.2588 90.6948 16.334C90.7701 16.2588 90.8454 16.1835 90.8454 16.0329C91.0712 15.8071 91.2217 15.5813 91.3723 15.2802H91.4475C91.4475 15.1297 91.4475 14.9791 91.5228 14.9791C92.0497 14.3017 92.3508 13.7748 92.4261 13.3984H92.5013C92.5766 13.2479 92.5766 13.1726 92.6519 13.1726V13.0221C92.7272 12.9468 92.8024 12.7962 92.8024 12.6457H92.953C92.953 12.4199 93.0282 12.2693 93.1788 12.1941L93.4046 11.6672C93.4799 11.5919 93.5551 11.5166 93.5551 11.5166V11.4413C93.781 10.7639 93.9315 10.4628 94.0821 10.3875L94.5337 9.55955H94.7595V9.63482C94.7595 9.71009 94.91 9.78536 95.2864 9.78536C95.3617 9.86064 95.3617 9.93591 95.4369 9.93591C95.5122 9.93591 95.5122 9.93591 95.5122 10.0112V9.93591C95.738 9.93591 95.8133 9.93591 95.8886 10.0112V9.93591C96.0391 10.0112 96.4155 10.0112 97.0177 9.93591V9.86064C97.4693 9.86064 97.7704 9.86064 97.9209 9.93591H98.9747V10.0112H99.2005V9.93591C99.5016 9.86064 99.6522 9.78536 99.6522 9.78536H99.8027L100.555 9.71009L101.383 9.409V9.33373L102.362 8.80683H102.588V8.73156L103.717 8.05411V7.97884C103.792 7.90356 103.867 7.90356 103.867 7.90356C103.867 7.90356 103.943 7.82829 104.093 7.82829C104.394 7.45193 104.62 7.22612 104.921 7.22612V7.07557C104.996 7.07557 104.997 7.0003 105.147 7.0003C105.674 6.47339 105.975 6.17231 106.05 6.09703C106.201 5.57013 106.502 5.19377 106.878 4.96795V4.74214C107.029 4.59159 107.029 4.44105 107.029 4.36578H107.104C107.029 4.21523 107.104 3.98942 107.255 3.53779ZM84.0709 25.2161C83.9956 25.2914 83.9203 25.3667 83.7698 25.4419V25.5925L83.544 25.743C83.544 25.6678 83.544 25.5925 83.4687 25.5925H83.3934C83.3934 25.5172 83.4687 25.4419 83.6945 25.3667V25.4419C83.7698 25.2914 83.8451 25.1409 83.9956 25.1409L84.0709 25.2161ZM105.824 4.89268L105.599 5.04323L105.523 5.26904C105.373 5.26904 105.222 5.41959 105.222 5.6454H104.996C104.996 5.87122 104.996 5.94649 104.921 6.02176C104.921 5.94649 104.921 5.87122 104.846 5.79595L104.771 5.72067L104.695 5.94649L104.921 5.26904C104.996 5.34431 104.996 5.34431 105.072 5.34431C105.072 5.19377 105.222 5.1185 105.373 5.1185C105.373 4.89268 105.523 4.89268 105.824 4.89268ZM104.62 5.94649C104.62 6.02176 104.62 6.09703 104.545 6.09703L104.394 5.94649C104.545 5.94649 104.62 5.94649 104.62 5.94649ZM99.2005 0.903264H99.05L98.8242 0.75272V0.677448H99.1253C99.2006 0.75272 99.2005 0.827992 99.2005 0.903264ZM104.771 6.17231C104.695 6.24758 104.695 6.32285 104.62 6.39812C104.545 6.47339 104.545 6.47339 104.394 6.54867C104.319 6.54867 104.319 6.39812 104.319 6.24758C104.47 6.17231 104.62 6.17231 104.771 6.17231ZM98.8242 1.05381C99.05 1.12908 98.8995 1.20435 98.3726 1.27962C98.2973 1.20435 98.2973 1.12908 98.1467 0.827992C98.2973 0.827992 98.3726 0.827992 98.5231 0.75272H98.6736C98.6736 0.903264 98.6737 0.978536 98.7489 0.978536L98.8242 1.05381ZM102.889 6.09703H102.738V5.94649H102.889V6.09703ZM97.394 1.3549H97.1682L97.3187 1.20435H97.394V1.3549V1.3549ZM102.814 7.37666C102.588 7.5272 102.437 7.60248 102.362 7.75302H101.835C101.835 7.67775 101.835 7.60247 101.91 7.5272L102.814 7.37666ZM96.9424 1.43017H97.1682C97.0929 1.58071 97.0177 1.65598 96.8671 1.65598V1.8818H96.6413V2.03234L96.2649 2.18289L96.0391 2.33343C95.8133 2.48398 95.738 2.55925 95.6628 2.55925V2.70979C95.738 2.70979 95.738 2.70979 95.8133 2.78507C95.738 2.86034 95.738 2.86034 95.738 2.93561H95.4369V3.16143C95.5122 3.16143 95.2864 3.2367 94.91 3.38724C94.8348 3.31197 94.8348 3.31197 94.8348 3.16143L95.5875 2.70979C95.5122 2.63452 95.5122 2.55925 95.5122 2.33343L95.6628 2.48398C95.738 2.25816 95.8133 2.10762 95.8133 2.10762C95.8886 2.10762 95.9639 2.10762 95.9639 2.18289C95.9639 2.10762 95.9639 2.03234 96.0391 1.95707L96.2649 2.18289L96.8671 1.65598L96.9424 1.43017ZM100.555 6.69921L100.33 6.92503L100.179 6.62394C100.405 6.62394 100.48 6.62394 100.555 6.69921ZM96.1144 2.48398L95.9639 2.63452V2.4087C96.0391 2.48398 96.0391 2.48398 96.1144 2.48398ZM100.857 7.67775L100.706 7.60248C100.781 7.60248 100.781 7.60247 100.857 7.5272V7.67775ZM100.857 8.3552C100.857 8.27992 100.857 8.27992 100.857 8.3552V8.3552ZM100.932 8.65628H101.158C101.082 8.73156 101.082 8.73156 101.082 8.8821H100.857C100.781 8.8821 100.857 8.80683 100.932 8.65628ZM96.4155 4.29051C96.3402 4.21523 96.3402 4.13996 96.4155 4.06469V4.29051ZM100.405 8.3552H100.179C100.104 8.27992 100.104 8.27992 100.104 8.20465L100.179 8.27992L100.405 8.3552ZM95.9639 3.46251V3.7636C95.8886 3.7636 95.8886 3.83887 95.738 3.91415C95.6628 3.98942 95.5122 4.13996 95.3617 4.36578C95.3617 3.91415 95.5122 3.68833 95.8133 3.68833L95.9639 3.46251ZM96.1897 4.36578V4.59159C96.1144 4.59159 96.1144 4.59159 96.0391 4.66687V4.74214H95.9639V4.51632C96.1144 4.44105 96.1144 4.36578 96.1897 4.36578ZM99.05 7.45193C99.05 7.45193 98.8995 7.5272 98.5984 7.60248C98.4478 7.45193 98.3726 7.30139 98.4478 7.22612C98.4478 7.30139 98.5984 7.30139 98.8995 7.37666C98.9747 7.37666 99.05 7.37666 99.05 7.45193ZM100.706 8.95737L99.8027 9.18319H99.7275C99.8027 9.18319 99.9533 9.10792 100.179 8.8821L100.254 8.80683C100.33 8.73156 100.48 8.80683 100.706 8.95737ZM91.6733 2.78507L91.5228 2.93561C91.2217 2.93561 90.7701 2.78507 90.3185 2.4087L90.0926 2.25816H89.9421L89.7915 2.03234H90.0174C90.3185 2.25816 90.7701 2.40871 91.2217 2.55925C91.297 2.70979 91.4475 2.78507 91.6733 2.78507ZM99.5769 9.03264V9.25846C97.9962 9.33373 97.2435 9.409 97.2435 9.409C96.9424 9.409 96.566 9.409 95.9639 9.33373C95.437 9.25846 94.9853 9.25846 94.7595 9.25846C94.6842 9.25846 94.6842 9.18319 94.609 8.95737C94.5337 9.03264 94.7595 9.03264 95.2111 9.10792C95.6628 9.18319 96.1144 9.18319 96.4155 9.25846H96.9424C97.1682 9.18319 97.3187 9.18319 97.4693 9.18319C97.6198 9.18319 97.7704 9.18319 97.9209 9.18319H99.5769V9.03264ZM94.7595 6.77448C94.8348 6.92503 94.8348 7.0003 94.7595 7.0003V6.77448ZM90.9959 3.08615H91.1464C91.0712 3.16143 90.9959 3.16143 90.9959 3.08615ZM94.3079 6.69921C94.2326 6.62394 94.1573 6.62394 94.0821 6.62394V6.77448H93.9315C93.8562 6.69921 93.8562 6.62394 93.8562 6.54867H94.0068C94.0821 6.54867 94.0821 6.54867 94.0821 6.62394C94.1573 6.62394 94.1573 6.62394 94.2326 6.54867C94.2326 6.62394 94.3079 6.69921 94.3079 6.69921ZM92.2003 4.51632C92.2755 4.66687 92.2003 4.74214 92.0497 4.74214V4.51632L91.8239 4.29051L90.8454 3.91415V3.83887C90.469 3.83887 90.3185 3.68833 90.3185 3.31197H90.469V3.38724C91.297 3.68833 91.8992 4.06469 92.2755 4.29051L92.2003 4.51632ZM91.8992 4.89268V5.1185C91.8239 5.1185 91.8239 5.1185 91.8239 5.19377C91.7486 5.1185 91.6733 5.04323 91.6733 4.96795H91.8992V4.89268ZM91.6733 5.41959H91.4475L90.8454 5.1185V5.04323C90.6948 4.96795 90.5443 4.89268 90.3937 4.81741C90.2432 4.74214 90.0174 4.66687 89.7163 4.59159C89.4905 4.29051 89.1894 4.13996 88.9636 4.13996V3.98942C89.0388 3.98942 89.1894 3.98942 89.2646 4.06469V4.13996C89.7163 4.13996 90.1679 4.29051 90.5443 4.59159L91.2217 4.89268L91.5981 5.26904C91.6733 5.34431 91.6733 5.41959 91.6733 5.41959ZM93.8562 8.43047H94.0068C94.0821 8.50574 94.0068 8.58101 93.9315 8.8821H93.8562L93.7057 8.65628C93.781 8.50574 93.8562 8.43047 93.8562 8.43047ZM94.0068 9.78536L93.9315 9.63482C93.9315 9.71009 94.0068 9.71009 94.0068 9.78536ZM88.2861 1.43017V1.58071C88.2108 1.65598 88.2108 1.65598 88.1356 1.65598V1.95707C88.0603 2.03234 87.985 1.95707 87.9097 1.8818C87.8345 1.8818 87.6087 1.80653 87.157 1.73126C87.0818 1.65598 87.0818 1.65598 86.9312 1.65598V1.65598C86.8559 1.65598 86.7807 1.65598 86.7807 1.73126C86.329 1.73126 86.0279 1.73126 85.8774 1.80653C85.9527 1.73126 85.8774 1.65598 85.8021 1.50544C85.7269 1.58071 85.7269 1.65598 85.7269 1.80653H85.501V1.65598H85.3505V1.80653H85.2C85.1247 1.8818 84.9741 1.80653 84.7483 1.73126C84.6731 1.80653 84.4472 1.80653 84.0709 1.80653L83.8451 2.03234L83.6945 1.8818C83.6192 1.95707 83.544 2.03234 83.544 2.03234V1.95707C83.4687 1.95707 83.3934 1.95707 83.3182 2.03234V2.10762C83.0923 2.03234 82.9418 2.03234 82.7913 2.10762L82.5654 1.8818V1.80653C82.8665 1.80653 83.1676 1.73126 83.544 1.58071L84.1461 1.43017V1.58071C84.1461 1.43017 84.4472 1.3549 84.9741 1.3549C85.0494 1.3549 85.1247 1.3549 85.1247 1.43017C85.2 1.3549 85.3505 1.27962 85.6516 1.27962C85.9527 1.27962 86.1785 1.27962 86.1785 1.3549H87.5334C87.7592 1.43017 87.9097 1.43017 88.2861 1.43017ZM88.2108 3.08615H87.9097C87.8345 3.01088 87.7592 3.01088 87.6839 3.01088C87.3828 2.78507 87.2323 2.70979 87.157 2.78507V2.70979C87.0818 2.70979 87.0818 2.78507 87.0818 2.93561C87.0065 2.93561 86.9312 2.93561 86.9312 2.86034V2.55925C86.7807 2.55925 86.7054 2.55925 86.7054 2.63452C86.6301 2.55925 86.5548 2.55925 86.4043 2.55925V2.78507H86.329C86.2538 2.70979 86.2538 2.70979 86.2538 2.63452H85.8774C85.8774 2.55925 85.8774 2.48398 85.9527 2.48398C85.4258 2.4087 85.1247 2.4087 84.8989 2.48398C84.8236 2.4087 84.7483 2.33343 84.6731 2.33343C84.6731 2.18289 84.7483 2.10762 84.8989 2.10762C85.0494 2.18289 85.2 2.18289 85.2752 2.10762C85.3505 2.10762 85.3505 2.10762 85.4258 2.18289C85.8774 2.18289 86.0279 2.25816 86.0279 2.33343L86.6301 2.18289L87.7592 2.63452V2.78507L88.2108 3.08615ZM91.5228 8.20465C91.5981 8.3552 91.5228 8.43047 91.4475 8.50574L91.3723 8.43047L91.5228 8.20465ZM92.125 8.58101C92.0497 8.65628 91.9744 8.73156 91.8992 9.03264C91.8992 9.03264 91.8239 9.10792 91.7486 9.18319H91.6733C91.6733 9.18319 91.7486 9.03264 91.8239 8.80683C91.8239 8.73156 91.8239 8.73156 91.8992 8.73156V8.58101H92.125ZM93.4046 9.25846L93.6304 9.48428C93.5552 9.63482 93.4046 9.93591 93.1035 10.3123V10.4628H93.0282C93.1035 10.5381 93.1035 10.6134 93.0282 10.6886C92.953 10.8392 92.8777 10.9144 92.8777 10.9144H92.7272L92.8024 11.1403H92.6519C92.6519 10.7639 92.8777 10.1617 93.3293 9.409V9.25846H93.4046ZM91.7486 9.63482C91.7486 9.55955 91.7486 9.48428 91.7486 9.409V9.63482ZM86.0279 3.53779H85.7269L85.501 3.31197C85.4258 3.31197 85.4258 3.31197 85.4258 3.38724H85.1247V3.31197H84.8989C84.8989 3.2367 84.8236 3.2367 84.5978 3.08615L84.5225 3.01088H84.372V3.01088H84.5225V3.08615C84.673 3.08615 84.8989 3.08615 85.0494 3.16143C85.1247 3.2367 85.3505 3.31197 85.8021 3.38724C85.8774 3.38724 85.8774 3.38724 85.9527 3.46251V3.53779H86.0279ZM90.9959 9.33373C90.9206 9.409 90.8454 9.48428 90.7701 9.55955C90.6948 9.63482 90.6948 9.71009 90.6195 9.71009C90.6195 9.48428 90.6195 9.409 90.6948 9.33373H90.7701V9.18319C90.8454 9.25846 90.9206 9.33373 90.9959 9.33373ZM92.4261 10.9897V11.2155C92.3508 11.2908 92.2755 11.4413 92.2755 11.5919H92.125C92.2003 11.2908 92.2755 11.065 92.4261 10.9897ZM91.9744 10.7639V11.065C91.8992 11.065 91.8239 11.1403 91.8239 11.2908C91.7486 11.2155 91.7486 11.1403 91.7486 11.065L91.9744 10.7639ZM92.3508 11.6672V11.893C92.2755 11.893 92.2755 11.893 92.2003 11.9683C92.2755 11.8177 92.2755 11.7424 92.3508 11.6672ZM82.5654 2.03234C82.4902 1.95707 82.4902 1.95707 82.5654 2.03234V2.03234ZM90.5443 10.0112C90.3937 10.0112 90.3937 10.1617 90.3937 10.3875C90.3185 10.4628 90.3185 10.4628 90.2432 10.4628C90.2432 10.3875 90.2432 10.3123 90.1679 10.237C90.3185 9.78536 90.3937 9.63482 90.3937 9.63482C90.469 9.71009 90.469 9.71009 90.469 9.78536C90.5443 9.78536 90.5443 9.86064 90.5443 10.0112ZM89.8668 10.0112H89.7163C89.641 9.93591 89.5657 9.86064 89.5657 9.78536C89.5657 9.71009 89.641 9.55955 89.7163 9.33373C89.7915 9.409 89.7915 9.48428 89.7915 9.63482H89.7163V9.78536H89.7915V10.0112H89.8668ZM90.1679 10.7639C90.0926 10.6134 90.0926 10.4628 90.1679 10.4628V10.7639ZM89.5657 9.93591L89.3399 10.1617V10.0865C89.4152 10.0112 89.4905 9.93591 89.5657 9.93591ZM89.8668 10.7639H90.0174C89.9421 10.8392 89.8668 11.065 89.7915 11.2908C89.7163 11.3661 89.641 11.5166 89.5657 11.8177C89.4905 11.8177 89.4152 11.8177 89.3399 11.893C89.3399 11.7424 89.4905 11.4413 89.7915 10.9897C89.8668 10.9897 89.8668 10.8392 89.8668 10.7639ZM81.9633 2.03234C82.0385 2.25816 81.888 2.4087 81.5869 2.4087V2.55925H81.06V2.70979C80.9847 2.70979 80.8342 2.78507 80.6836 2.78507V2.86034C80.4578 2.86034 80.3073 2.93561 80.1567 3.08615C80.1567 3.08615 80.0062 3.16143 79.7804 3.2367C79.7804 3.16143 79.7051 3.08615 79.7051 3.01088L80.0815 2.78507H80.3073L80.4578 2.63452H80.6084L81.5116 2.25816C81.5116 2.18289 81.6622 2.10762 81.9633 2.03234ZM89.4905 10.4628V10.6134C89.4152 10.6886 89.3399 10.7639 89.3399 10.9144H89.2646C89.2646 11.065 89.1141 11.2908 88.813 11.7424C88.7377 11.8177 88.7377 11.8177 88.7377 11.9683H88.5872C88.5119 11.893 88.5119 11.893 88.5119 11.7424C88.4367 11.8177 88.4367 11.8177 88.4367 11.9683H88.3614V11.7424H88.4367V11.5166C88.5119 11.2155 88.7377 10.9144 88.9636 10.6886C89.0388 10.4628 89.1141 10.3875 89.1894 10.3875L89.4905 10.4628ZM91.3723 13.0973C91.4475 13.0973 91.4475 13.1726 91.4475 13.2479C91.4475 13.3984 91.3723 13.549 91.1464 13.7748C91.1464 13.9253 91.0712 14.0759 90.9959 14.3017C90.8454 14.5275 90.7701 14.678 90.7701 14.8286H90.6948C90.6195 14.9039 90.6195 14.9791 90.5443 15.2802L90.3185 15.506H90.0926V15.3555H90.2432C90.3185 15.2802 90.3185 15.2802 90.3185 15.1297H90.2432V15.2802H90.1679L90.0926 15.0544H90.2432V15.1297C90.3937 14.9791 90.469 14.9039 90.5443 14.9039C90.6195 14.8286 90.6195 14.7533 90.5443 14.5275L90.6195 14.6028L90.7701 14.4522C90.7701 14.377 90.7701 14.3017 90.6948 14.2264H90.7701V14.3017C90.8454 14.1511 90.9959 14.0006 91.0712 13.9253C91.1464 13.4737 91.297 13.2479 91.3723 13.0973ZM85.2752 7.90356C85.2752 8.05411 85.2752 8.20465 85.2752 8.3552C85.2752 8.50574 85.2 8.65628 85.2 8.8821C85.1247 8.8821 85.1247 8.95737 85.1247 9.10792C85.1247 9.25846 85.0494 9.409 84.8989 9.409V9.55955L84.6731 9.78536C84.6731 9.71009 84.7483 9.55955 84.8989 9.25846C84.9741 9.25846 85.0494 9.03264 85.1247 8.50574C85.1247 8.43047 85.1247 8.27992 85.2 7.97884C85.2 7.82829 85.2 7.75302 85.2752 7.75302C85.2 7.82829 85.2752 7.90356 85.2752 7.90356ZM84.4472 9.18319C84.372 9.55955 84.2967 9.78536 84.0709 9.86064C83.9956 9.409 84.1461 9.10792 84.4472 8.95737V9.18319ZM84.1461 7.45193L84.0709 7.60248H83.9956L83.8451 8.05411L83.7698 8.12938V8.20465H83.6945L83.6192 8.27992V8.50574L83.544 8.58101V8.65628H83.4687V8.50574C83.3934 8.50574 83.3934 8.50574 83.3934 8.58101L83.2429 9.33373L83.1676 9.48428H83.0923V9.93591C83.0171 9.93591 83.0171 9.93591 83.0171 10.0112V10.3123L82.8665 10.5381L82.5654 10.6886V10.5381H82.6407C82.716 10.4628 82.716 10.4628 82.716 10.3123C82.9418 10.1617 83.0171 9.78536 83.0171 9.03264H83.0923V8.50574C83.0171 8.43047 83.0171 8.27992 83.0171 7.97884C83.0923 7.90356 83.1676 7.75302 83.1676 7.67775L83.4687 7.45193L83.6192 7.5272C83.7698 7.22611 83.8451 7.07557 83.8451 7.15084H84.0709C84.1461 7.22611 84.2214 7.37666 84.1461 7.45193ZM89.8668 14.4522C89.7916 14.5275 89.7915 14.6028 89.7163 14.6028C89.641 14.6028 89.641 14.678 89.5657 14.678C89.5657 14.9791 89.4905 15.1297 89.3399 15.205L89.1141 15.7319L88.7377 16.2588V16.0329C88.8883 15.5813 89.1141 15.3555 89.2646 15.205C89.3399 14.8286 89.4905 14.5275 89.8668 14.4522ZM89.9421 16.1835H89.7915C89.7915 15.9577 89.8668 15.8071 89.9421 15.8071V16.1835ZM91.2217 10.1617C91.297 10.237 91.2217 10.4628 91.0712 10.9144V11.065L90.9206 11.2155C90.8454 11.2155 90.8454 11.2908 90.9206 11.3661H90.8454C90.7701 11.4413 90.6948 11.5166 90.6195 11.7424C90.5443 11.9683 90.3937 12.1941 90.1679 12.5704C90.2432 12.6457 90.2432 12.6457 90.2432 12.721C90.0926 12.7962 90.0926 13.0221 90.0926 13.2479C90.0926 13.2479 89.9421 13.3984 89.5657 13.7748V14.0006H89.4905V14.2264H89.4152L89.3399 14.1511C89.2646 14.1511 89.2646 14.3017 89.3399 14.4522C89.2646 14.6028 89.1894 14.8286 88.9636 15.0544L88.813 15.2802V15.4308C88.6625 15.5813 88.5119 15.8824 88.2861 16.334H88.1356C88.0603 16.4093 88.0603 16.4846 88.0603 16.6351C87.8345 16.9362 87.6839 17.162 87.5334 17.4631C87.3828 17.6889 87.2323 17.9147 87.157 18.1406V18.2911H87.0818C87.0065 18.5922 86.9312 18.7427 86.7807 18.818V18.9686H86.7054C86.6301 19.1191 86.5548 19.2696 86.4043 19.2696C86.4043 19.4202 86.329 19.5707 86.2538 19.646V19.7965L86.0279 20.0224L86.2538 19.2696L86.4796 19.0438C86.329 18.8933 86.4043 18.7427 86.7054 18.5922V18.4416H86.8559C86.8559 18.3664 86.8559 18.2911 86.7807 18.2158C86.8559 18.2158 86.9312 17.99 87.157 17.5384C87.3828 17.0868 87.4581 16.8609 87.5334 16.7857C87.6839 16.6351 87.7592 16.334 87.9097 15.8824C88.7377 14.377 89.3399 13.3231 89.7915 12.8715C89.7163 12.4952 89.7915 12.1941 90.0174 12.1941V12.0435C89.9421 12.1188 89.9421 12.1188 89.8668 12.1188V11.9683H90.0926C90.1679 11.5919 90.3185 11.3661 90.3937 11.2155C90.3937 11.1403 90.469 11.065 90.6948 10.8392C90.6948 10.7639 90.6948 10.6886 90.6195 10.6886C90.9959 10.3123 91.1464 10.1617 91.2217 10.1617ZM89.4152 15.7319C89.4152 15.8071 89.4152 15.8071 89.4152 15.8824V15.7319ZM89.4152 16.1082C89.3399 16.0329 89.3399 15.9577 89.2646 15.8824H89.3399C89.3399 15.9577 89.3399 16.0329 89.4152 16.1082ZM89.1141 16.6351L88.8883 16.7857C88.8883 16.7104 88.8883 16.7104 88.813 16.7104C88.813 16.6351 88.8883 16.5598 88.9636 16.4093L89.1141 16.4846V16.6351V16.6351ZM78.8771 4.06469V4.29051C78.8018 4.36578 78.7266 4.36578 78.6513 4.36578V4.44105C78.576 4.66687 78.3502 4.89268 77.9738 5.26904C77.8986 5.26904 77.8986 5.26904 77.8233 5.34431C77.8233 5.41959 77.748 5.41959 77.6728 5.41959L77.0706 6.24758V6.54867H76.9953C76.92 6.84975 76.8448 7.0003 76.7695 7.07557V6.92503H76.8448C76.8448 6.69921 76.8448 6.47339 76.92 6.32285H76.9953C76.9953 6.02176 77.0706 5.79595 77.2964 5.6454C77.5222 5.19377 77.8233 4.81741 78.3502 4.44105V4.44105C78.4255 4.36578 78.4255 4.36578 78.4255 4.29051H78.576V4.21523C78.8771 4.13996 78.9524 4.06469 78.8771 4.06469ZM88.0603 13.9253C87.8345 14.2264 87.6839 14.5275 87.6087 14.7533C87.5334 14.9791 87.4581 15.1297 87.3828 15.205C87.3076 15.205 87.2323 15.2049 87.2323 15.2802C87.157 15.8071 87.0065 16.0329 86.7054 16.1082C86.7807 16.2588 86.7054 16.4093 86.4796 16.5598C86.329 16.7857 86.1785 16.9362 86.1785 17.0868H86.1032C86.1032 17.162 86.0279 17.2373 85.8774 17.3878C85.8021 17.162 86.0279 16.7104 86.6301 16.1835C86.6301 15.9577 86.7807 15.6566 87.0065 15.4308C87.0065 15.2049 87.3076 14.7533 87.9097 13.9253V13.6995H87.985C88.0603 13.6995 88.0603 13.7748 88.0603 13.9253ZM88.6625 16.8609H88.813C88.813 16.9362 88.813 17.0868 88.7377 17.162C88.6625 17.3126 88.6625 17.3878 88.6625 17.3878H88.5119L88.6625 16.8609ZM89.0388 17.7642L88.9636 17.9147H88.8883L88.813 18.1406C88.5119 18.5922 88.2861 18.818 88.1356 18.7427C88.2108 18.818 88.2108 18.8933 88.2108 19.0438C87.9097 19.1944 87.7592 19.2696 87.7592 19.2696C87.8345 18.9686 87.985 18.6675 88.2108 18.3664L88.4367 18.0653C88.3614 17.99 88.3614 17.99 88.3614 17.9147C88.4367 17.9147 88.5119 17.8395 88.5119 17.7642C88.5119 17.6889 88.5872 17.6137 88.6625 17.5384C88.813 17.4631 88.8883 17.4631 89.0388 17.5384V17.7642ZM82.0385 11.7424V11.893C81.7374 12.1188 81.3611 12.1941 81.06 12.2693V12.3446H80.9095V12.1188L81.4364 11.8177V11.7424H81.6622C81.6622 11.6672 81.7374 11.6672 81.7374 11.5166L81.9633 11.7424H82.0385V11.7424ZM88.7377 16.1835L87.8345 18.1406H87.7592C87.7592 18.2158 87.7592 18.2158 87.6839 18.3664C87.6087 18.4416 87.6087 18.5169 87.5334 18.5922C87.4581 18.6675 87.4581 18.818 87.3828 18.8933L87.157 19.0438L86.9312 19.5707C86.9312 19.646 86.9312 19.646 87.0065 19.646C87.0065 19.8718 86.9312 20.0224 86.8559 20.1729V20.2482H86.7807C86.7807 20.3234 86.7054 20.3234 86.6301 20.474V19.9471C86.7054 19.9471 86.7807 19.9471 86.8559 19.8718C86.8559 19.646 86.9312 19.2696 87.157 18.8933C87.3828 18.5169 87.5334 18.2158 87.5334 17.99C87.6087 17.99 87.6839 17.9147 87.6839 17.7642C87.7592 17.6137 87.7592 17.5384 87.8345 17.5384V17.3126C87.985 17.0115 88.2108 16.7104 88.4367 16.4093L88.7377 16.1835ZM87.6839 15.6566C87.6087 15.8071 87.4581 16.1835 87.2323 16.7857C87.157 16.8609 87.0818 16.9362 87.0065 17.0115C86.9312 17.0868 86.8559 17.162 86.7807 17.162V17.5384C86.6301 17.6889 86.4796 17.9147 86.4043 18.1406C86.329 18.2158 86.2538 18.2911 86.2538 18.2911L85.7269 18.818C85.8021 18.8933 85.8021 18.8933 85.8021 18.9686C85.6516 18.9686 85.5763 19.1191 85.5763 19.3449C85.4258 19.5707 85.2752 19.7965 85.2752 19.9471C85.2 20.0976 85.1247 20.1729 85.1247 20.3234C85.2 20.0976 85.3505 19.8718 85.6516 19.646L85.7269 20.0976H85.6516C85.6516 19.9471 85.6516 19.8718 85.5763 19.8718C85.501 20.0224 85.501 20.1729 85.501 20.2482C85.501 20.2482 85.501 20.1729 85.6516 20.0976V20.2482C85.5763 20.2482 85.5763 20.3234 85.501 20.3987C85.4258 20.474 85.4258 20.5493 85.3505 20.5493V20.3987H85.2752C84.9741 20.474 84.8236 20.5493 84.7483 20.6245C84.7483 20.3987 84.8989 20.0224 85.1247 19.5707H85.2752C85.2752 19.4202 85.2752 19.3449 85.3505 19.2696L86.1032 18.0653H86.2538C86.1785 17.7642 86.329 17.6137 86.4796 17.5384C86.6301 17.0115 86.9312 16.4846 87.3828 15.9577C87.4581 15.8824 87.4581 15.8824 87.4581 15.8071C87.4581 15.7319 87.4581 15.7319 87.5334 15.6566H87.6087C87.6087 15.506 87.6087 15.5813 87.6839 15.6566ZM87.6839 19.4202L87.6087 19.2696H87.6839V19.4202ZM87.7592 19.7213C87.6839 19.646 87.6087 19.646 87.6087 19.5707H87.6839L87.7592 19.7213ZM85.8021 17.7642L85.7269 17.9147H85.6516C85.6516 17.99 85.5763 17.99 85.501 18.1406C85.501 17.99 85.5763 17.8395 85.6516 17.5384H85.7269V17.7642H85.8021ZM86.1785 18.8933H86.0279C86.0279 19.0438 86.0279 19.1944 85.9527 19.1944C85.9527 19.1191 85.9527 19.1191 85.9527 19.0438C85.9527 18.9686 86.0279 18.8933 86.0279 18.7427C86.0279 18.7427 86.1032 18.7427 86.1032 18.818V18.8933H86.1785ZM85.4258 18.3664L85.3505 18.2158H85.4258V18.3664ZM85.9527 19.1944C85.9527 19.1944 85.8774 19.3449 85.8021 19.646C85.8021 19.646 85.7269 19.4955 85.6516 19.2696C85.7269 19.1944 85.8774 19.1944 85.9527 19.1944ZM86.329 20.2482H86.1032C86.1032 20.3987 86.1032 20.5493 86.0279 20.5493H85.9527C85.9527 20.3987 86.0279 20.2482 86.1032 20.1729V20.0224H86.2538C86.2538 20.1729 86.329 20.2482 86.329 20.2482ZM80.4578 23.786C80.3825 23.786 80.3073 23.7107 80.3073 23.6354H80.4578V23.786ZM82.5654 24.0118L82.0385 24.1623C82.0385 24.3129 82.0385 24.3881 82.1138 24.5387C81.888 24.614 81.6622 24.614 81.5869 24.5387V24.6892H81.5116L81.1353 25.0656C81.06 25.1409 80.9847 25.2161 80.9847 25.2914H80.9095V25.3667C80.8342 25.2914 80.7589 25.2914 80.6836 25.2914V25.4419C80.7589 25.4419 80.8342 25.4419 80.9095 25.5172C80.9095 25.4419 80.9847 25.3667 81.1353 25.2914C81.1353 25.2161 81.1353 25.2161 81.1353 25.2161C81.1353 25.2161 81.2858 25.0656 81.5116 24.8398C81.6622 24.7645 81.7374 24.7645 81.888 24.915C82.0385 24.915 82.1138 24.8398 82.1891 24.7645H82.2643V24.915C82.2643 24.9903 82.1138 25.1409 81.7374 25.2914C81.7374 25.4419 81.5869 25.5172 81.2105 25.5172V25.5925L80.6084 25.743C80.6084 25.5925 80.6084 25.5172 80.6836 25.5172H80.5331V25.6678C80.6084 25.743 80.6084 25.743 80.6084 25.8183H80.3073V25.8936H80.232C80.1567 25.8936 80.1567 25.8936 80.1567 25.8183H79.9309L79.404 25.9689C79.3287 25.9689 79.3287 25.8936 79.3287 25.8183H79.4793V25.743C79.6298 25.743 79.7804 25.6678 80.0062 25.5172C80.232 25.3667 80.3825 25.2914 80.4578 25.2161C81.2105 24.6892 81.6622 24.3129 81.8127 24.087C82.1891 24.087 82.4149 23.9365 82.4902 23.6354C82.5654 23.6354 82.5654 23.5601 82.716 23.5601V24.0118H82.5654ZM79.7051 25.2161L79.404 25.3667V25.2161L79.6298 24.9903H79.7051C79.6298 25.0656 79.6298 25.1409 79.7051 25.2161ZM78.7266 25.743L78.9524 25.9689C78.8771 25.9689 78.8771 25.9688 78.8018 26.0441C78.576 26.0441 78.4255 25.8936 78.2749 25.6678C78.2749 25.6678 78.3502 25.5925 78.4255 25.5172L78.5007 25.5925C78.576 25.5172 78.576 25.5172 78.6513 25.5172C78.7266 25.5172 78.7266 25.4419 78.8018 25.3667H78.9524C78.9524 25.5172 78.9524 25.5925 78.8771 25.5925V25.743H78.7266ZM89.2646 10.7639L89.1894 10.9897H89.1141C89.1141 10.9144 89.1894 10.8392 89.2646 10.7639ZM88.7377 18.1406H88.5872L88.5119 18.0653L88.7377 18.1406ZM86.7807 18.6675V18.5169C86.8559 18.5922 86.8559 18.5922 86.7807 18.6675Z" fill="#B8B8B6"/>
<path d="M102.437 13.7752C102.362 13.7752 102.362 13.7752 102.437 13.7752V13.7752ZM112.072 4.66732L112.298 4.4415C112.298 4.36623 112.298 4.21569 112.222 4.06514C112.147 3.9146 112.147 3.76406 112.147 3.76406H112.072V3.61351H111.997V3.53824C111.695 3.46297 111.319 3.3877 111.018 3.3877C110.491 3.46297 110.19 3.61351 110.115 3.68878L109.889 3.83933C109.738 3.9146 109.663 3.9146 109.588 3.9146C109.588 3.9146 109.513 3.9146 109.437 3.98987C109.437 3.98987 109.437 3.9146 109.513 3.9146H109.362V4.06514C109.061 4.21569 108.91 4.21569 108.835 4.14042C108.76 4.21569 108.76 4.21569 108.76 4.29096C108.534 4.36623 108.383 4.36623 108.308 4.36623C108.233 4.36623 108.158 4.36623 108.082 4.36623V4.51678C107.706 4.4415 107.555 4.51678 107.555 4.51678C107.555 4.51678 107.48 4.51678 107.48 4.4415C106.577 4.81786 106.05 5.04368 105.899 5.11895C105.749 5.19422 105.674 5.2695 105.674 5.2695C105.448 5.2695 105.297 5.34477 105.222 5.49531C104.996 5.57058 104.846 5.64586 104.77 5.72113C104.243 6.02222 103.867 6.3233 103.566 6.62439C103.416 6.62439 103.265 6.69966 103.265 6.85021C103.114 6.92548 103.039 7.00075 103.039 7.07602C102.286 7.75347 101.76 8.28038 101.534 8.73201C101.233 9.18364 101.082 9.33419 101.007 9.33419C100.405 10.0869 100.028 10.5385 100.028 10.6138C99.953 10.6891 99.953 10.7644 99.953 10.7644L99.5014 11.5923L98.8992 12.7214C98.8239 13.0225 98.6734 13.2483 98.5228 13.3989H98.5981V13.5494H98.4475V13.7H98.297C98.1465 13.8505 98.0712 14.0763 98.0712 14.3774L97.9959 14.4527V14.6032C97.8454 14.6032 97.6948 14.829 97.5443 15.2807C97.3937 15.7323 97.2432 15.9581 97.1679 15.9581C97.0926 15.9581 96.9421 16.1839 96.7163 16.7861L95.8883 18.0657H95.813V17.9152C95.7378 17.9905 95.7378 18.0657 95.813 18.141C95.7378 18.141 95.6625 18.141 95.6625 18.2163L95.2861 18.8937C95.1356 19.2701 94.985 19.4959 94.7592 19.5712C94.8345 19.6465 94.8345 19.797 94.7592 19.9475L94.6839 19.8723H94.6087V20.0981H94.5334V20.2486C94.3076 20.2486 94.2323 20.4744 94.157 21.0013H94.0065C93.9312 21.3024 93.7807 21.6035 93.6301 21.7541V21.8293H93.5549C93.5549 21.9046 93.5549 21.9046 93.6301 21.9799L93.028 22.9584V23.1842C92.8774 23.1842 92.6516 23.4853 92.4258 24.0875C92.5763 24.0875 92.6516 24.1628 92.7269 24.238H94.985L95.2861 23.7111H95.3614C95.3614 23.7864 95.3614 23.8617 95.3614 23.937H95.5119C95.6625 23.7111 95.813 23.5606 95.8883 23.3348C95.9636 23.1842 96.1141 23.0337 96.1894 22.9584L96.1141 23.3348H96.0388V23.3348H95.9636C95.9636 23.4101 95.9636 23.4853 95.8883 23.5606H95.813L95.6625 24.0875H95.3614V24.238C95.7378 24.238 96.0388 24.1628 96.1141 24.0875L96.641 23.7864L96.7916 23.5606V23.6359C96.8668 23.5606 96.8668 23.5606 96.8668 23.4853V23.3348H96.9421C97.0174 23.109 97.0926 22.9584 97.0926 22.8832L96.9421 22.8079H97.0926C97.1679 22.7326 97.1679 22.6573 97.2432 22.5821C97.3185 22.5068 97.3185 22.4315 97.3937 22.3562H97.469V22.2057C97.5443 22.1304 97.5443 22.1304 97.5443 22.0552C97.6196 22.0552 97.6196 22.0552 97.6196 22.1304C97.6196 22.2057 97.6196 22.2057 97.6948 22.2057C97.6948 22.2057 97.6948 22.1304 97.6196 22.0552C97.6948 21.9799 97.7701 21.9046 97.7701 21.9046L98.0712 21.3024H98.1465V21.0766H98.2217V20.8508C98.2217 20.8508 98.297 20.7755 98.4475 20.625C98.5228 20.4744 98.6734 20.2486 98.7486 20.0981C98.8239 19.8723 98.8992 19.7217 99.0497 19.5712C99.125 19.4206 99.2755 19.3454 99.3508 19.3454C99.4261 19.3454 99.4261 19.3454 99.4261 19.4206V19.2701H99.3508C99.3508 19.1948 99.3508 19.1195 99.4261 19.0443C99.5014 18.969 99.5014 18.8937 99.5014 18.8185H99.5766V18.8185H99.6519C99.6519 18.5926 99.7272 18.4421 99.8024 18.3668V18.2916C99.953 18.2163 99.953 18.141 99.953 18.0657C100.254 17.7647 100.405 17.4636 100.555 17.2377C100.555 17.0872 100.555 16.9367 100.63 16.9367H100.706V16.7861H100.781V16.7108L100.932 16.485C101.007 16.4098 101.082 16.4098 101.157 16.4098H101.233V16.2592H101.082C101.308 16.0334 101.383 15.8076 101.383 15.657H101.458V15.5065H101.383L101.609 15.1301C101.609 15.2054 101.609 15.2054 101.534 15.2807L101.76 15.1301C102.061 14.9796 102.362 14.829 102.663 14.6785C102.964 14.528 103.19 14.4527 103.34 14.3774C103.415 14.3021 103.491 14.2269 103.641 14.2269V14.1516L104.168 14.0011C104.168 14.0763 104.168 14.0763 104.243 14.0763C104.695 14.0011 105.071 13.8505 105.448 13.6247C105.448 13.7 105.448 13.7 105.523 13.7C105.523 13.6247 105.448 13.9258 105.297 14.3774C105.147 14.6032 104.996 14.829 104.921 15.0549C104.846 15.1301 104.77 15.2054 104.545 15.4312C104.394 15.657 104.243 15.8076 104.243 15.8829L103.717 16.7861C103.566 17.0872 103.416 17.2377 103.19 17.313C103.039 17.3883 102.738 17.9152 102.286 18.8937L101.76 20.0228C101.458 20.7003 101.308 21.1519 101.233 21.2272C101.157 21.3777 101.157 21.6035 101.157 21.8293C101.082 21.8293 101.007 21.9799 101.007 22.2057C101.007 22.4315 101.007 22.5821 101.157 22.6573C101.308 23.109 101.458 23.4101 101.684 23.5606C101.684 23.6359 101.684 23.6359 101.76 23.7111H101.835V23.7864H101.985V23.8617H102.061V23.937C101.985 23.937 101.985 23.937 101.985 24.0122V24.0875H102.061C102.061 24.0122 102.061 24.0122 102.136 23.937C102.964 24.1628 103.265 24.238 103.039 24.238C103.566 24.3133 103.942 24.3133 104.018 24.3133C104.093 24.3133 104.319 24.238 104.695 24.1628C105.071 24.0875 105.297 24.0122 105.448 24.0122V23.937C105.824 23.7864 106.05 23.7864 106.05 23.7864C106.426 23.4101 106.652 23.1842 106.803 23.1842C106.878 23.1842 107.029 23.109 107.254 22.9584C107.48 22.8079 107.631 22.7326 107.781 22.7326C107.781 22.8079 108.233 22.3562 109.136 21.453C109.211 20.9261 109.437 20.625 109.663 20.5497V20.4744L109.889 20.3239C110.19 19.8723 110.341 19.7217 110.416 19.7217C110.416 19.6465 110.416 19.5712 110.341 19.5712C110.491 19.5712 110.566 19.5712 110.566 19.4959C110.491 19.4206 110.491 19.4206 110.491 19.3454C110.867 19.1196 110.943 19.0443 110.943 18.969H110.867C110.943 18.8937 110.943 18.8937 110.943 18.8185C110.792 18.8185 110.642 18.969 110.416 19.2701C110.19 19.5712 110.039 19.7217 109.889 19.7217C109.889 19.797 109.889 19.8723 109.814 19.9475L109.287 20.3992C108.76 21.0766 108.383 21.453 108.082 21.5283C107.857 21.7541 107.631 21.9046 107.555 21.9046C107.631 21.8293 107.631 21.8293 107.706 21.8293V21.7541H107.781V21.8293C107.631 21.9046 107.555 21.9799 107.555 22.0552H107.631C107.405 22.3562 107.179 22.5068 106.953 22.5821L106.577 22.7326C106.125 22.7326 105.899 22.6573 105.674 22.5821C105.598 22.281 105.824 21.6035 106.201 20.625C106.276 20.625 106.276 20.5497 106.351 20.3992C106.426 20.2486 106.426 20.1734 106.502 20.1734C106.652 19.8723 106.803 19.5712 106.953 19.3454C107.104 19.1196 107.254 18.8937 107.405 18.7432C107.405 18.7432 107.48 18.6679 107.555 18.5174H107.631V18.4421H107.706C107.932 18.0657 108.082 17.7647 108.308 17.4636C109.061 16.5603 109.362 16.1839 109.211 16.1839V16.1087C109.889 15.5065 110.265 15.0549 110.265 14.6785H110.341L110.491 14.3021H110.566V14.2269C110.867 13.8505 111.018 13.3989 111.093 13.0225V12.4956C110.943 12.4956 110.792 12.2698 110.717 12.044L109.889 11.6676H109.738H108.459C108.158 11.7429 107.857 11.8182 107.405 11.8934C107.029 11.9687 106.577 12.1193 106.05 12.2698V12.3451C105.373 12.4956 104.996 12.6462 104.996 12.872C104.243 13.0225 103.867 13.1731 103.942 13.3989C103.491 13.6247 103.114 13.7752 102.738 13.9258C102.362 14.0763 102.136 14.2269 101.91 14.3774V14.3021L102.136 14.1516C102.061 14.1516 102.061 14.1516 102.061 14.0763L102.362 13.7C102.437 13.4741 102.512 13.2483 102.738 13.0225L102.813 12.9472C103.114 12.3451 103.416 11.8934 103.641 11.4418C103.942 11.0654 104.168 10.7644 104.394 10.4633H104.545C104.545 10.3127 104.62 10.1622 104.846 9.93636C105.071 9.71055 105.147 9.56 105.147 9.40946C105.373 9.25891 105.523 9.0331 105.674 8.73201H105.749C105.749 9.0331 105.824 8.88255 106.05 8.2051H105.899V8.12983C105.975 8.12983 106.05 8.12983 106.125 8.05456H106.276V7.97929H106.351L107.029 7.07602C107.029 6.92548 107.104 6.85021 107.33 6.77494C107.33 6.62439 107.33 6.54912 107.48 6.62439C107.48 6.47385 107.555 6.39858 107.781 6.24803C108.007 6.09749 108.082 6.02222 108.158 5.87167C108.685 5.42004 109.061 5.2695 109.136 5.2695V5.19422C109.211 5.19422 109.287 5.19422 109.287 5.2695L109.362 5.19422L109.437 5.2695L109.513 5.19422V5.04368C110.19 4.96841 110.566 5.11895 110.566 5.49531C110.642 5.42004 110.867 5.42004 111.394 5.42004C111.62 5.2695 111.921 5.04368 112.072 4.66732ZM102.136 24.3133C102.061 24.3133 102.061 24.3133 102.136 24.3133H101.985H102.136ZM107.48 4.66732L108.308 4.4415C108.007 4.66732 107.781 4.74259 107.631 4.74259L107.48 4.66732ZM108.007 5.34477C107.555 5.64586 107.33 5.7964 107.33 6.02222H107.179V6.09749H107.104V6.17276L107.029 6.24803C107.029 6.17276 107.104 6.02222 107.33 5.7964V5.64586C107.33 5.64586 107.48 5.64586 107.706 5.49531V5.42004C107.781 5.42004 107.857 5.34477 108.007 5.34477ZM106.276 6.92548L106.05 7.1513H105.899C106.05 7.00075 106.125 6.92548 106.276 6.92548ZM106.201 6.09749C106.201 6.39858 106.05 6.47385 105.749 6.39858C105.598 6.54912 105.373 6.69966 105.147 6.77494V6.85021H105.071V6.92548H104.996V7.07602H104.77V7.1513H104.695V7.22657C104.62 7.22657 104.469 7.30184 104.243 7.45238C104.018 7.60293 103.942 7.75347 103.942 7.82874V7.75347C103.867 7.75347 103.792 7.75347 103.792 7.82874C103.717 7.6782 103.867 7.52766 104.168 7.45238C104.545 7.00075 104.996 6.69966 105.448 6.54912C105.448 6.24803 105.749 6.09749 106.201 6.09749ZM109.588 12.2698L109.362 12.4203C109.211 12.2698 109.136 12.1945 109.061 12.1945C109.061 12.1193 109.061 12.1193 109.136 12.044C109.136 12.1193 109.211 12.1193 109.437 12.1193V12.1945L109.663 12.1193V12.2698H109.588ZM108.685 12.1193H108.534V12.044L108.685 12.1193ZM105.523 8.05456L105.222 8.28038L104.62 9.0331H104.545C104.545 8.88255 104.62 8.73201 104.921 8.43092C105.147 8.20511 105.297 8.05456 105.523 8.05456ZM107.706 12.1193L108.158 12.044C108.158 12.044 108.082 12.1193 108.007 12.1945V12.2698H107.857V12.3451H107.706V12.1193ZM108.91 13.0225V13.2483H108.835L108.91 13.0225ZM110.265 12.4956C109.814 13.8505 109.362 14.7538 108.986 15.2054H108.91V15.2807H108.835V15.4312L108.609 15.5818V15.657H108.534L108.459 15.8076L108.383 15.7323L108.685 15.2807C108.835 15.0549 108.986 14.9043 109.061 14.6785C109.211 14.528 109.287 14.3021 109.362 14.1516C109.437 13.9258 109.588 13.6247 109.889 13.3989C109.964 13.1731 109.964 13.0225 110.039 12.872C110.115 12.7214 110.19 12.6462 110.265 12.4956ZM108.835 13.3236L108.609 13.5494H108.534V13.3989H108.685V13.2483L108.835 13.3236ZM107.555 12.1945H107.706C107.555 12.4203 107.33 12.5709 107.029 12.7214C107.179 12.3451 107.405 12.1945 107.555 12.1945ZM107.857 13.3989C107.857 13.4741 107.781 13.5494 107.706 13.5494V13.4741C107.781 13.3989 107.781 13.3989 107.857 13.3989ZM104.846 9.0331C104.77 9.33419 104.695 9.56 104.545 9.63527H104.394C104.394 9.71055 104.394 9.78582 104.319 9.86109C103.792 10.388 103.566 10.7644 103.566 11.0654H103.416C103.34 11.1407 103.34 11.1407 103.34 11.216V11.3665H103.114V11.216C103.34 10.9902 103.491 10.8396 103.566 10.6138L103.641 10.6891C103.641 10.6138 103.717 10.5385 103.792 10.4633C103.717 10.4633 103.717 10.4633 103.641 10.5385C103.566 10.4633 103.641 10.388 103.717 10.3127C103.792 10.3127 103.792 10.3127 103.867 10.388C103.942 10.388 103.942 10.2375 103.942 10.1622H104.018V10.2375C104.093 10.2375 104.168 10.0869 104.319 9.86109C104.469 9.56 104.62 9.48473 104.695 9.48473V9.40946L104.846 9.0331ZM106.652 12.5709C106.276 12.872 105.824 13.0225 105.448 13.0978V13.0225L105.297 12.9472C105.598 12.7967 105.899 12.7214 106.125 12.6462C106.426 12.7214 106.577 12.6462 106.652 12.5709ZM106.803 13.7L106.727 13.8505L106.803 13.7ZM108.007 14.3774C108.082 14.7538 107.932 14.9796 107.555 15.1301C107.555 15.2054 107.48 15.2054 107.48 15.2807C107.48 15.0549 107.48 14.9796 107.631 14.9796C107.706 14.6785 107.857 14.4527 108.007 14.3774ZM108.007 15.0549C107.932 15.0549 107.932 15.0549 107.857 15.1301V15.0549L108.007 14.9043V15.0549ZM103.641 7.07602C103.641 7.22657 103.491 7.37711 103.34 7.52766C103.114 7.75347 102.964 7.90402 102.964 7.97929H102.813V8.05456C102.813 8.05456 102.738 8.05456 102.738 8.12983H102.663V8.2051H102.588V8.28038H102.512C102.286 8.80728 102.211 8.88255 102.211 8.65674H102.061C102.061 8.73201 102.061 8.73201 102.136 8.80728L101.835 8.95783V9.0331H101.76V9.18364C101.684 9.18364 101.684 9.18364 101.609 9.25891L101.534 9.40946C101.458 9.40946 101.383 9.48473 101.157 9.71055C100.932 9.93636 100.856 10.0116 101.007 10.0869C100.856 10.2374 100.781 10.388 100.706 10.6138C100.781 10.5385 100.63 10.6891 100.405 10.8396C100.179 11.0654 100.028 11.2913 100.028 11.4418H99.8777C100.028 11.1407 100.179 10.9149 100.405 10.7644C100.932 9.86109 101.233 9.40946 101.308 9.40946C101.383 9.18364 101.458 9.10837 101.609 9.0331C101.76 8.65674 102.061 8.35565 102.362 8.2051C102.362 8.12983 102.512 7.90402 102.889 7.52766C103.34 7.22657 103.566 7.07602 103.641 7.07602ZM105.749 13.3236C105.749 13.3236 105.749 13.2483 105.749 13.3236V13.3236ZM107.555 15.4312C107.631 15.4312 107.555 15.4312 107.48 15.5818C107.555 15.5065 107.555 15.4312 107.555 15.4312ZM103.34 9.86109V10.0116C103.114 10.0869 103.039 10.1622 102.964 10.3127C102.512 10.6138 102.211 10.9149 102.136 11.2913H102.061H101.985L101.835 11.4418C101.835 11.3665 101.985 11.1407 102.211 10.8396L103.114 9.93636H103.34V9.86109ZM107.33 15.3559C107.33 15.4312 107.33 15.4312 107.254 15.5065L107.33 15.3559ZM103.114 10.9902C103.114 11.216 103.114 11.2913 103.039 11.3665H102.964V11.4418H102.738C102.813 11.216 102.889 11.0654 102.964 10.9902H103.114ZM107.33 15.5818C107.254 15.7323 107.179 15.8076 107.179 15.8076L107.33 15.5818ZM107.932 16.485V16.5603C108.082 16.5603 108.007 16.6356 107.706 16.7108L107.932 16.485ZM106.201 15.0549C106.125 14.9796 106.201 14.9796 106.201 14.9043V15.0549ZM107.029 16.0334C107.029 15.9581 107.029 15.9581 107.104 15.8829L107.029 16.0334ZM102.738 11.8182C102.813 11.7429 102.889 11.6676 102.889 11.6676L102.738 11.8182ZM107.254 14.6032C107.104 14.9043 107.029 15.0549 106.953 15.1301H106.878V15.2054H106.803V15.2807H106.727V15.3559H106.652L106.727 15.5065C106.577 15.5065 106.276 15.8076 105.824 16.4098C105.899 16.1839 105.975 16.0334 105.975 15.9581H106.05V15.8076H106.201C106.201 15.7323 106.351 15.5818 106.577 15.2807C106.577 15.0549 106.652 14.9043 106.727 14.9043L106.953 14.528C107.104 14.528 107.179 14.528 107.254 14.6032ZM105.975 15.1301C106.05 15.1301 106.05 15.1301 105.975 15.1301V15.1301ZM104.846 13.7C104.921 13.8505 104.77 13.9258 104.469 13.9258C104.62 13.8505 104.77 13.7752 104.846 13.7ZM102.663 11.7429L102.437 11.9687V11.8182C102.512 11.7429 102.588 11.7429 102.663 11.7429ZM105.448 14.6785C105.373 14.6785 105.373 14.6785 105.448 14.6785V14.6785ZM105.297 14.9043L105.222 14.7538H105.297V14.9043ZM102.061 11.8182H101.91C101.91 11.8182 101.985 11.8182 102.061 11.8182ZM102.286 12.3451H102.136C102.211 12.2698 102.211 12.1945 102.211 12.1193C102.286 12.1945 102.286 12.2698 102.286 12.3451ZM101.233 10.9902C101.308 11.1407 101.157 11.2913 100.932 11.5171C100.932 11.6676 101.082 11.4418 101.233 10.9902ZM107.706 15.5065C107.706 15.5065 107.405 15.9581 106.803 16.8614C106.351 17.4636 106.05 17.8399 105.975 17.9152C105.899 17.9905 105.749 18.141 105.674 18.2163L105.523 18.4421C105.674 18.141 105.824 17.9152 105.975 17.7647C106.125 17.5388 106.276 17.3883 106.351 17.313C106.502 17.313 106.652 17.0872 106.727 16.7861L107.254 16.1839C107.405 15.657 107.555 15.4312 107.706 15.5065ZM101.458 11.7429V11.8934C101.458 11.8934 101.383 11.9687 101.308 11.9687C101.233 11.9687 101.157 11.9687 101.082 12.044V11.8934C101.308 11.7429 101.458 11.7429 101.458 11.7429ZM101.835 12.1945C101.835 12.1945 101.835 12.2698 101.76 12.3451H101.684V12.4203C101.609 12.4956 101.609 12.5709 101.534 12.5709C101.458 12.5709 101.458 12.6462 101.383 12.6462V12.5709C101.534 12.2698 101.684 12.1945 101.835 12.1945ZM105.147 13.0978H104.996C104.921 13.1731 104.846 13.2483 104.846 13.2483C104.545 13.3236 104.168 13.4741 103.717 13.6247C103.265 13.8505 102.738 14.0763 102.136 14.3774C101.985 14.528 101.91 14.6032 101.76 14.6032V14.6785H101.684V14.7538H101.609C101.534 14.829 101.534 14.829 101.458 14.829L101.233 15.1301C101.383 15.0549 101.534 14.9796 101.684 14.9043C101.91 14.829 102.061 14.6785 102.286 14.528C102.512 14.4527 102.663 14.3021 102.813 14.2269C103.039 14.2269 103.265 14.0763 103.717 13.8505C104.018 13.7752 104.243 13.6247 104.394 13.4741C104.62 13.3989 104.846 13.3989 104.996 13.3989V13.0978H105.147ZM101.835 12.7967H101.985C101.985 12.872 101.91 12.9472 101.684 13.0978L101.835 12.7967ZM100.706 11.8934C100.63 11.8934 100.63 11.8934 100.555 11.9687V11.8182L100.706 11.8934ZM105.749 17.0872C105.674 17.1625 105.598 17.2377 105.598 17.2377C105.674 17.0872 105.749 17.0872 105.749 17.0872ZM100.932 12.1945H101.157C101.082 12.1945 101.082 12.3451 101.082 12.5709C101.007 12.4956 101.007 12.4956 100.932 12.4956L100.706 12.7214V12.6462C100.706 12.7967 100.781 12.6462 100.932 12.1945ZM101.233 12.9472H101.082C101.082 12.872 101.157 12.872 101.157 12.7967C101.233 12.7967 101.233 12.872 101.233 12.9472ZM105.674 18.5926L106.426 17.4636C106.426 17.5388 106.351 17.6894 106.125 17.9905H106.05C106.125 18.0657 106.125 18.0657 106.125 18.141H105.975V18.3668H105.899V18.5174H105.824V18.6679H105.749C105.674 18.8185 105.598 18.969 105.598 18.969H105.523C105.598 18.8185 105.674 18.6679 105.674 18.5926L105.523 18.8185C105.523 18.6679 105.523 18.5926 105.674 18.5174V18.5926ZM100.254 12.2698H100.405C100.329 12.4956 100.179 12.5709 99.953 12.6462L100.254 12.2698ZM100.706 12.9472H100.555V13.0978C100.405 13.0978 100.329 13.0978 100.329 13.1731C100.329 13.1731 100.329 13.0978 100.48 12.9472H100.706ZM105.147 16.1839C104.77 17.0872 104.394 17.6894 104.018 18.0657C104.018 17.9152 104.093 17.6894 104.319 17.4636C104.545 17.2377 104.62 17.0872 104.62 17.0119L105.147 16.1839ZM99.5766 12.4203C99.5766 12.4203 99.5014 12.4956 99.4261 12.5709C99.3508 12.4203 99.4261 12.4203 99.5766 12.4203ZM100.254 13.2483C100.179 13.3236 100.179 13.3236 100.179 13.3989L100.104 13.3236L100.254 13.2483ZM105.373 18.5926C105.373 18.5926 105.373 18.6679 105.373 18.5926C105.297 18.5926 105.297 18.5926 105.373 18.5926ZM105.523 18.7432C105.448 18.7432 105.523 18.7432 105.523 18.7432V18.7432ZM100.028 12.9472C100.028 12.872 99.8777 13.0978 99.6519 13.5494C99.5766 13.5494 99.5014 13.5494 99.4261 13.6247V13.5494H99.5014V13.4741H99.5766C99.7272 13.2483 99.8024 13.0225 99.953 12.9472H100.028ZM105.222 18.8937C105.147 18.969 105.147 18.969 105.147 19.0443C105.147 18.969 105.222 18.969 105.222 18.8937ZM105.071 19.2701C105.147 19.2701 105.071 19.3454 105.071 19.2701V19.2701ZM105.147 18.2163C105.147 18.4421 105.071 18.5174 105.071 18.5926C104.921 18.7432 104.77 18.969 104.695 19.1948C104.469 19.2701 104.319 19.4959 104.243 19.797H104.168V19.5712H104.243H104.319C104.469 19.2701 104.62 18.969 104.77 18.7432C104.921 18.5926 105.071 18.3668 105.147 18.2163ZM103.416 17.8399C103.416 17.9152 103.34 17.9152 103.265 17.9905C103.19 18.3668 103.039 18.6679 102.738 18.8185C102.738 18.7432 102.738 18.5174 102.964 18.2916C103.19 18.0657 103.34 17.8399 103.416 17.8399ZM99.3508 15.0549L99.0497 15.2807C99.0497 15.2054 99.2003 15.0549 99.3508 14.829V15.0549ZM103.641 19.7217C103.641 19.9475 103.566 20.0981 103.566 20.1734H103.416L103.641 19.7217ZM105.147 19.4206C105.147 19.5712 105.071 19.7217 104.921 20.0228C104.77 20.3239 104.62 20.5497 104.545 20.8508C104.093 21.1519 103.942 21.453 103.942 21.8293H103.867V21.9046C103.792 21.9799 103.792 22.0552 103.792 22.0552H103.717L103.491 22.2057C103.415 22.0552 103.566 21.8293 103.867 21.3024C103.867 21.2272 103.942 21.1519 104.018 20.9261C104.093 20.7003 104.243 20.5497 104.319 20.3239C104.469 20.0981 104.545 19.8723 104.695 19.7217C104.921 19.5712 105.071 19.4959 105.147 19.4206ZM102.738 19.0443L102.437 19.6465C102.286 19.7217 102.286 19.797 102.286 19.8723H102.211C102.437 19.1195 102.588 18.8185 102.588 18.969C102.663 18.969 102.738 18.969 102.738 19.0443ZM104.62 21.6035C104.62 21.6035 104.62 21.5283 104.62 21.453V21.6035ZM103.416 20.2486V20.7003H103.34V20.7755H103.265L103.039 21.3024C103.039 21.1519 103.039 21.0766 103.114 21.0013V20.9261H103.19V20.7755H103.265C103.265 20.4744 103.34 20.3239 103.416 20.2486ZM105.071 22.8079C104.996 22.7326 104.921 22.7326 104.846 22.7326V22.3562C104.996 22.5821 105.071 22.7326 105.071 22.8079ZM104.093 22.5068L104.545 21.6788H104.469C104.319 22.2057 104.168 22.5068 104.093 22.5068ZM102.663 19.9475L102.286 20.5497C102.211 20.4744 102.362 20.2486 102.663 19.9475ZM103.641 20.8508C103.566 21.453 103.416 21.9046 103.265 22.1304H103.19C103.114 21.9799 103.265 21.5283 103.641 20.8508ZM103.039 20.1734L102.889 20.625H102.813V20.7755H102.738V20.9261H102.663C102.588 21.1519 102.437 21.3777 102.286 21.6035C102.286 21.6788 102.512 21.2272 102.889 20.2486H103.039V20.1734ZM104.469 22.4315V22.9584H104.319C104.319 22.9584 104.394 22.8079 104.469 22.4315ZM104.093 21.8293C104.093 21.7541 104.018 21.9046 103.942 22.3562V22.5068C103.867 22.5068 103.792 22.6573 103.717 22.8832H103.566C103.416 22.7326 103.641 22.4315 104.093 21.8293ZM98.9744 15.5818L98.4475 16.5603C98.3723 16.5603 98.297 16.6356 98.2217 16.7861C98.1465 16.9367 98.0712 17.1625 97.9206 17.313C97.8454 17.4636 97.6948 17.6894 97.6196 17.8399C97.5443 17.9905 97.469 18.141 97.469 18.141C97.469 18.0657 97.5443 17.9152 97.6196 17.7647C97.6948 17.5388 97.7701 17.3883 97.8454 17.1625C97.9206 16.9367 97.9959 16.7861 98.1465 16.5603C98.2217 16.4098 98.3723 16.2592 98.4475 16.2592L98.8992 15.5065L98.9744 15.5818ZM102.663 21.453H102.813C102.813 21.5283 102.738 21.5283 102.738 21.6788H102.663V21.453ZM99.953 15.0549C99.953 15.2054 99.8777 15.2807 99.8024 15.3559C99.7272 15.4312 99.6519 15.5818 99.6519 15.7323H99.5766L99.2003 16.485L99.0497 16.7108H98.9744L98.5981 17.3883H98.6734V17.4636C98.8239 17.4636 98.6734 17.5388 98.3723 17.7647V17.9905L98.1465 18.2163C97.6948 18.3668 97.5443 18.8185 97.5443 19.4959C97.2432 19.4959 97.0174 19.6465 97.0174 19.8723C97.0174 19.7217 97.2432 19.4206 97.5443 18.969C97.5443 18.8185 97.6196 18.6679 97.6948 18.5174C97.7701 18.2916 97.8454 18.2163 97.8454 18.141C98.3723 17.3883 98.7486 16.8614 98.8992 16.485C99.125 16.3345 99.2755 16.1087 99.4261 15.657C99.5014 15.657 99.5766 15.5818 99.6519 15.4312C99.8024 15.2054 99.8777 15.0549 99.953 15.0549ZM101.91 20.4744C101.985 20.5497 101.985 20.625 101.91 20.8508C101.835 21.0766 101.76 21.2272 101.76 21.2272H101.684L101.534 21.6788H101.458V21.453H101.534C101.609 21.8293 101.76 21.5283 101.91 20.4744ZM105.297 23.4853L104.093 23.937L103.416 24.0122H103.039L102.889 23.8617C102.738 23.7864 103.114 23.7864 103.942 23.7864C104.394 23.6359 104.846 23.5606 105.297 23.4853ZM103.641 23.4101C103.491 23.4853 103.34 23.4853 103.19 23.4853C103.19 23.3348 103.19 23.2595 103.265 23.109C103.265 23.0337 103.416 23.1842 103.641 23.4101ZM101.76 22.5068V22.6573C101.684 22.5821 101.684 22.5068 101.684 22.4315C101.76 22.4315 101.76 22.4315 101.835 22.3562L101.76 22.5068ZM101.835 22.7326C101.835 22.8079 101.76 22.7326 101.835 22.7326V22.7326ZM102.588 23.937L102.362 23.7111C102.437 23.7111 102.588 23.7864 102.889 23.8617L102.588 23.937ZM104.545 9.40946C104.545 9.48473 104.545 9.48473 104.545 9.40946V9.40946Z" fill="#B8B8B6"/>
<path d="M124.265 18.743V18.5925H124.115V18.6678C124.039 18.743 124.039 18.743 123.964 18.743C123.889 18.6678 123.813 18.6678 123.738 18.6678C123.663 18.6678 123.663 18.6678 123.663 18.743L123.287 19.1194C123.136 19.1947 123.061 19.2699 123.061 19.3452H122.91L122.684 19.6463C122.459 19.7968 122.383 19.8721 122.308 20.0227C122.082 20.1732 122.007 20.2485 122.007 20.399C121.781 20.4743 121.631 20.4743 121.555 20.6248L121.48 20.7754C121.48 20.8507 121.405 21.0012 121.179 21.1517C120.953 21.3023 120.803 21.3776 120.727 21.3776V21.5281C119.975 21.9045 119.598 22.2056 119.598 22.3561H119.448V22.4314C118.845 22.7325 118.544 22.9583 118.394 23.0335C117.867 23.0335 117.641 23.1088 117.566 23.1841L116.738 23.4852C116.211 23.6357 115.759 23.6357 115.458 23.6357C115.458 23.5604 115.458 23.5604 115.383 23.4852H115.308L115.232 23.4099H115.308V23.3346L115.157 23.1088C115.157 22.8077 115.082 22.5819 114.931 22.5819C115.007 22.5066 114.931 22.2808 114.781 21.9045C114.781 21.4528 114.856 21.0765 115.082 20.9259H115.157C115.458 20.6248 115.759 20.4743 116.06 20.399C116.136 20.3238 116.211 20.3238 116.286 20.3238V20.2485C116.512 20.1732 116.738 20.0979 116.888 20.0227C117.265 19.7968 117.641 19.7216 118.093 19.6463V19.571C118.168 19.4958 118.243 19.4958 118.319 19.4958V19.2699C118.469 19.3452 118.695 19.1947 119.071 18.9689C119.899 18.442 120.426 18.0656 120.652 17.915C120.878 17.7645 121.028 17.614 121.104 17.614V17.5387C121.329 17.3881 121.48 17.2376 121.555 17.1623H121.631V17.0871H121.706V17.0118H121.781L122.157 16.6354L122.383 16.4096L122.459 16.4849C122.459 16.4096 122.459 16.4096 122.459 16.4096C122.459 16.4096 122.534 16.3343 122.534 16.1838H122.609L123.061 15.2805C123.136 14.9794 123.136 14.7536 123.211 14.5278C123.287 14.302 123.287 14.2267 123.362 14.1514L122.835 13.2482L122.308 12.8718V12.7213C122.383 12.646 122.459 12.646 122.609 12.646V12.5707H122.233V12.7213C121.932 12.646 121.781 12.5707 121.706 12.4955C121.631 12.4202 121.555 12.4202 121.48 12.4202C121.179 12.3449 120.878 12.3449 120.577 12.3449C120.276 12.3449 120.125 12.3449 119.899 12.2696H119.749C119.673 12.2696 119.523 12.2696 119.297 12.2696C119.071 12.2696 118.77 12.3449 118.394 12.3449C118.168 12.4202 118.018 12.4955 117.942 12.4955H117.792C117.716 12.7213 117.491 12.7965 117.114 12.7965C117.19 12.7213 117.19 12.7213 117.265 12.7213C117.415 12.4955 117.566 12.3449 117.792 12.2696C118.168 12.1191 118.469 12.0438 118.469 12.0438V11.9686C118.544 11.8933 118.544 11.8933 118.695 11.8933C119.372 11.8933 119.673 11.8933 119.523 11.7427V11.6675C119.749 11.7427 119.899 11.818 119.899 11.818V11.6675H119.598C119.222 11.5922 118.921 11.6675 118.845 11.818C118.319 11.818 118.093 11.818 118.093 12.0438H117.942L117.491 12.3449C117.19 12.5707 116.964 12.7965 116.888 12.9471H116.663C116.587 13.3235 116.286 13.6245 115.684 13.6998L115.232 14.302C115.007 14.3773 114.856 14.5278 114.781 14.8289H114.63L114.404 14.9794C114.179 15.2805 114.028 15.5063 113.878 15.6569C113.351 16.2591 113.05 16.5602 113.05 16.6354L112.824 17.0118C112.748 17.3129 112.673 17.5387 112.598 17.7645C112.523 17.9903 112.447 18.1409 112.372 18.2161C112.146 18.2914 112.071 18.5925 111.996 19.0441C111.845 19.1194 111.77 19.4205 111.695 20.0979C111.619 20.2485 111.544 20.6248 111.544 21.227C111.469 21.3023 111.394 21.3776 111.394 21.4528C111.394 21.5281 111.469 21.5281 111.544 21.6786C111.619 22.4314 111.77 22.883 111.996 23.1088V23.3346H112.146C112.071 23.4099 112.071 23.4852 112.071 23.6357H112.146V23.4852L112.523 23.8615V24.0121L112.222 23.7863V23.711C112.146 23.7863 112.146 23.7863 112.146 23.9368C112.523 24.0874 112.824 24.1626 112.824 24.1626C112.748 24.1626 112.748 24.1626 112.748 24.2379H112.824V24.1626C112.824 24.1626 112.974 24.2379 113.2 24.3884L113.275 24.539C113.275 24.6143 113.275 24.6143 113.426 24.6143L113.878 24.7648C114.404 24.9153 114.781 24.9906 115.157 24.9906V24.8401H115.308V24.9153H115.383V24.8401H115.534V24.7648C115.684 24.7648 115.759 24.7648 115.759 24.6895H116.286C116.437 24.539 116.587 24.539 116.813 24.539V24.4637H116.964L119.297 23.5604L119.598 23.2594L119.824 23.1088L120.05 22.9583L121.329 21.9797C121.932 21.6786 122.157 21.4528 122.007 21.4528V21.3776H122.082V21.3023C122.082 21.1517 122.233 21.0765 122.459 21.0012V20.8507C122.609 20.7754 122.76 20.7001 122.985 20.399H123.061V20.2485H123.287C123.287 20.0227 123.512 19.7968 123.964 19.571C123.964 19.4958 123.964 19.4205 124.039 19.2699C124.115 19.1194 124.115 19.0441 124.115 18.9689H124.19V18.743H124.265ZM112.071 23.711C112.071 23.711 111.996 23.7863 112.071 23.711V23.711ZM121.555 13.0976L121.706 13.2482C121.48 13.2482 121.254 13.2482 121.104 13.3235V13.1729C121.254 13.1729 121.405 13.1729 121.48 13.0976V13.1729L121.555 13.0976ZM120.501 12.7965C120.426 12.8718 120.426 12.8718 120.276 12.8718L120.2 12.7965C120.351 12.7965 120.426 12.7965 120.501 12.7965ZM120.878 13.0976V13.2482C120.727 13.2482 120.652 13.2482 120.501 13.3235C120.501 13.2482 120.652 13.1729 120.878 13.0976ZM119.975 12.646C119.899 12.7965 119.824 12.8718 119.598 12.9471C119.598 12.8718 119.598 12.7965 119.673 12.7965V12.5707C119.673 12.646 119.824 12.646 119.975 12.646ZM119.372 12.5707C119.372 12.646 119.297 12.646 119.147 12.7213V12.646C119.222 12.646 119.297 12.646 119.372 12.5707ZM120.276 13.6998L119.975 13.9256H119.824V14.0009C119.749 14.0009 119.749 14.0009 119.673 14.0762V14.0009H119.749C119.824 13.9256 119.899 13.9256 119.975 13.7751C120.05 13.6998 120.125 13.6245 120.2 13.5493H120.276V13.6998V13.6998ZM122.459 14.6031C122.459 14.7536 122.383 14.9042 122.308 14.9794V15.2805H122.233V15.2053L122.157 15.4311H122.007C122.007 15.5063 122.007 15.5063 122.082 15.5063C122.082 15.5816 122.082 15.6569 122.007 15.7322C121.932 15.8074 121.932 15.8827 121.932 15.958H121.856V16.0332C121.781 16.0332 121.781 16.0332 121.706 16.1085V16.2591H121.631V16.3343H121.555V16.4849C121.555 16.4849 121.405 16.5602 121.254 16.6354C121.254 16.6354 121.254 16.7107 121.329 16.7107L120.803 17.2376C120.803 17.0871 120.878 17.0118 121.028 16.8612L121.555 16.3343C121.706 16.1838 121.856 15.8074 122.082 15.13C122.157 15.0547 122.157 14.9042 122.157 14.7536C122.157 14.6031 122.157 14.4525 122.233 14.2267C122.233 14.302 122.308 14.302 122.383 14.302C122.383 14.4525 122.383 14.5278 122.459 14.6031ZM118.62 12.7965C118.544 12.8718 118.469 12.8718 118.469 12.7965H118.62ZM119.448 13.6245C119.297 13.7751 119.147 13.9256 118.921 14.0762V14.0009L119.147 13.7751C118.921 13.6998 119.071 13.6998 119.448 13.6245ZM118.394 12.7965C118.319 12.8718 118.243 12.9471 118.093 12.9471C117.942 13.0224 117.792 13.0224 117.566 13.1729V13.3235H117.415V13.2482H117.566V13.1729C117.566 13.1729 117.641 13.1729 117.716 13.0976V13.0224C117.867 13.0224 117.942 13.0224 118.017 12.9471V12.8718C118.017 12.9471 118.168 12.8718 118.394 12.7965ZM119.071 14.5278C118.77 14.6031 118.544 14.8289 118.394 15.0547C118.394 14.9794 118.544 14.8289 118.77 14.6031C118.695 14.6031 118.77 14.5278 119.071 14.5278C118.996 14.5278 118.996 14.5278 119.071 14.5278ZM116.888 13.2482C116.738 13.3987 116.663 13.474 116.587 13.474C116.587 13.2482 116.738 13.1729 116.888 13.2482ZM118.319 13.474C118.394 13.5493 118.168 13.6998 117.792 14.0009V14.0762C117.566 14.0762 117.265 14.2267 116.964 14.5278L116.437 14.8289L116.587 14.5278L117.34 14.2267C117.415 14.1514 117.491 14.0762 117.641 14.0009C117.716 13.9256 117.867 13.8504 118.017 13.7751L118.168 13.6998C118.243 13.6245 118.243 13.6245 118.243 13.5493L118.319 13.474ZM120.501 17.4634L120.351 17.614V17.6892H120.276C120.276 17.5387 120.351 17.4634 120.501 17.4634ZM116.437 13.5493C116.286 13.6245 116.211 13.7751 116.06 13.9256H115.985L115.91 13.7751C115.985 13.7751 116.06 13.6998 116.136 13.6245C116.286 13.5493 116.437 13.5493 116.437 13.5493ZM122.157 14.7536C122.082 15.0547 122.007 15.2805 121.706 15.5816V15.7322C121.706 15.8827 121.48 16.0332 121.179 16.3343V16.4096L120.426 17.0871C120.351 17.1623 120.276 17.2376 120.125 17.3881C119.975 17.5387 119.673 17.7645 119.222 18.0656H119.147V18.1409C119.071 18.1409 118.996 18.1409 118.921 18.2161V18.2914L117.867 18.8183C117.792 18.8936 117.641 18.9689 117.491 19.0441C117.265 19.1194 117.114 19.1947 116.888 19.2699V19.3452H116.813V19.4205L115.985 19.6463V19.571V19.6463C115.91 19.7216 115.684 19.7968 115.458 19.9474H115.383L115.609 19.7216V19.571C115.534 19.571 115.534 19.571 115.458 19.4958H115.534L115.684 19.3452L115.91 19.2699C115.835 19.1947 115.835 19.1947 115.835 19.0441C115.835 18.8936 115.985 18.6678 116.362 18.442C116.362 18.442 116.437 18.3667 116.512 18.2161H116.587C116.512 18.2914 116.512 18.3667 116.512 18.3667C116.512 18.442 116.512 18.442 116.437 18.5172H116.512L116.738 18.0656C116.663 17.9903 116.663 17.9903 116.587 17.9903V18.0656H116.512L116.738 17.8398C116.813 17.915 116.813 17.915 116.813 17.9903L116.964 17.8398H116.813C116.813 17.6892 116.964 17.4634 117.19 17.0871C117.491 16.7107 117.641 16.4849 117.867 16.2591L117.942 16.1838V16.1085L118.168 15.958H118.243L119.071 14.9794C119.147 14.9794 119.147 14.9042 119.297 14.8289C119.147 14.8289 119.222 14.7536 119.598 14.6783C119.673 14.6783 119.673 14.6031 119.749 14.5278C119.824 14.4525 119.899 14.3773 119.975 14.3773C119.899 14.5278 119.824 14.6784 119.673 14.8289V14.9794C119.975 14.6783 120.125 14.4525 120.2 14.3773H120.276V14.2267L120.501 14.0762C121.028 13.6245 121.555 13.3987 122.157 13.474L122.383 13.6245C122.383 13.8504 122.383 14.0009 122.459 14.0762V14.7536H122.157ZM117.114 15.6569C116.964 15.8074 116.888 15.8074 116.888 15.8074V15.6569C116.813 15.6569 116.738 15.7322 116.738 15.8827H116.888V15.958L116.663 16.1838V16.2591H116.587V16.4096C116.587 16.4849 116.512 16.4849 116.437 16.4849C116.362 16.4849 116.362 16.4849 116.211 16.5602V16.6354C116.136 16.6354 116.136 16.6354 116.06 16.7107V16.6354H116.136V16.5602C116.211 16.5602 116.286 16.4849 116.362 16.3343V16.1838C116.362 16.2591 116.362 16.2591 116.437 16.3343H116.512C116.512 16.2591 116.512 16.1838 116.587 16.1838H116.512V16.1085L117.114 15.5816L116.964 15.7322C117.039 15.5816 117.039 15.5816 117.114 15.6569ZM116.362 17.2376L116.888 16.6354C116.888 16.786 116.813 16.9365 116.663 17.1623C116.512 17.3881 116.362 17.5387 116.362 17.614H116.286V17.4634H116.211L116.06 17.6892C115.985 17.6892 115.985 17.6892 115.985 17.614L116.211 17.3881V17.5387H116.286L116.362 17.2376ZM115.609 16.3343H115.383C115.383 16.4849 115.383 16.5602 115.458 16.5602H115.308C115.308 16.5602 115.308 16.6354 115.232 16.7107C115.157 16.786 115.157 16.8612 115.157 16.9365L115.082 16.8612C114.931 17.0118 114.931 17.0871 114.931 17.1623V17.2376H114.856V17.3129H114.781H114.706C114.706 17.3881 114.63 17.5387 114.48 17.614H114.555V17.6892L114.48 17.614C114.48 17.614 114.48 17.6892 114.404 17.6892C114.329 17.6892 114.329 17.6892 114.254 17.7645C114.254 17.6892 114.254 17.614 114.329 17.614H114.404L114.48 17.5387C114.48 17.4634 114.48 17.4634 114.404 17.3881H114.48V17.4634C114.555 17.3881 114.63 17.3129 114.63 17.2376V17.3129L114.931 16.9365C114.931 16.8612 115.007 16.786 115.157 16.6354C115.157 16.5602 115.232 16.5601 115.308 16.4849C115.308 16.4096 115.308 16.3343 115.383 16.2591H115.609V16.3343V16.3343ZM114.48 15.8074H114.63C114.63 15.8827 114.63 15.958 114.555 16.0332C114.48 16.1085 114.48 16.1838 114.48 16.1838V16.1085C114.404 16.1085 114.404 16.1838 114.329 16.2591H114.254L113.576 16.786L114.254 15.958C114.329 15.958 114.48 15.8827 114.48 15.8074ZM114.329 16.5602V16.6354C114.254 16.6354 114.179 16.6354 114.179 16.7107V16.6354L114.329 16.5602ZM116.136 17.6892C116.136 17.7645 116.136 17.8398 116.06 17.915C115.985 17.9903 115.985 18.0656 115.91 18.1409C115.985 18.1409 116.06 18.1409 116.136 18.2161H115.985V18.442C115.91 18.5172 115.835 18.5925 115.835 18.5925L115.684 18.8183H115.609L115.383 19.0441C115.458 19.1194 115.458 19.1194 115.458 19.1947C115.383 19.2699 115.308 19.3452 115.308 19.4205H115.232V19.4958V19.571V19.7216H115.157V19.8721C115.082 19.8721 115.082 19.8721 115.082 19.9474V20.0227H115.007C115.007 20.0227 114.931 20.0227 114.856 20.0979V20.1732C114.931 20.0979 114.931 20.0979 115.007 20.0979C115.007 20.1732 115.007 20.2485 114.931 20.3238C114.856 20.399 114.856 20.399 114.856 20.4743H114.706V20.5496H114.63V20.6248H114.48V20.3238L114.63 20.0979L115.157 18.8183L116.136 17.6892ZM114.254 17.8398C114.254 17.915 114.179 17.915 114.103 17.9903L114.254 17.8398ZM114.254 18.8936L114.103 19.0441C114.103 18.9689 114.103 18.8936 114.254 18.8936C114.179 18.8936 114.179 18.8936 114.254 18.8936ZM113.953 18.8183L113.878 18.6678H113.953V18.8183ZM114.103 19.1194H113.953C113.953 19.1947 113.953 19.2699 113.878 19.2699H113.802V19.3452H113.727V19.2699C113.802 19.2699 113.802 19.1947 113.878 19.1194C113.953 19.0441 113.953 19.0441 114.103 18.9689V19.1194V19.1194ZM114.028 16.8612V17.0118C113.953 17.0871 113.953 17.0871 113.878 17.0871C113.802 17.0871 113.802 17.1623 113.727 17.2376V17.2376C113.727 17.1623 113.501 17.3881 113.125 17.915C113.275 17.9903 113.351 18.0656 113.351 18.1409C113.351 18.2161 113.275 18.2914 113.125 18.2914C113.2 18.2161 113.2 18.1409 113.2 18.0656H113.125V18.2161H113.05V18.3667C112.899 18.5172 112.748 18.6678 112.748 18.743V18.9689L112.673 19.0441V19.1947C112.824 19.1194 112.974 19.1194 112.974 19.1194V19.1947H112.899L112.824 19.1194H112.748C112.598 19.4205 112.523 19.6463 112.523 19.6463C112.523 19.6463 112.447 19.6463 112.447 19.7216C112.447 19.6463 112.447 19.6463 112.372 19.571V19.7216C112.297 19.6463 112.297 19.6463 112.297 19.571C112.222 19.6463 112.222 19.7216 112.222 19.8721L112.372 19.7968V19.9474C112.222 19.9474 112.146 20.0227 112.071 20.0979L112.222 20.0227C112.222 20.0227 112.146 20.1732 112.071 20.399H111.92V20.3238C111.92 20.2485 111.996 20.0979 112.071 19.8721C112.146 19.7968 112.222 19.571 112.222 19.2699H112.372V18.9689H112.523C112.523 18.743 112.673 18.3667 113.05 17.7645C113.05 17.6892 113.125 17.5387 113.275 17.4634V17.3129H113.652L113.953 16.9365C113.878 16.8612 113.953 16.8612 114.028 16.8612ZM117.942 23.5604H117.792V23.4852L117.867 23.4099C117.867 23.4852 117.867 23.5604 117.942 23.5604ZM117.641 23.6357H117.491V23.5604L117.641 23.6357ZM117.491 23.6357C117.491 23.711 117.415 23.7863 117.265 23.8615C117.265 23.5604 117.34 23.4852 117.491 23.6357ZM117.19 23.7863C117.114 23.8615 117.039 23.9368 117.039 23.9368V23.8615C117.114 23.7863 117.114 23.7863 117.19 23.7863ZM114.028 20.4743C113.953 20.5496 113.878 20.6248 113.878 20.6248C113.727 20.9259 113.727 21.0765 113.727 21.1517C113.953 20.9259 114.028 20.7001 114.103 20.5496H114.028V20.4743ZM114.329 20.9259H114.48C114.555 21.227 114.404 21.4528 114.254 21.6786C114.254 21.6034 114.254 21.5281 114.179 21.5281C114.179 21.5281 114.254 21.3023 114.329 20.9259ZM114.404 18.8936L114.179 19.1194V19.2699C114.028 19.3452 113.953 19.4958 113.802 19.6463H113.727C113.576 19.9474 113.426 20.0979 113.426 20.0227V20.2485L113.275 20.4743V20.5496L113.125 20.7001C113.05 20.9259 112.974 21.0765 112.974 21.0765C112.748 21.5281 112.523 21.7539 112.447 21.7539C112.447 21.9797 112.523 22.055 112.598 22.1303C112.673 22.1303 112.673 22.1303 112.748 22.055C112.824 21.7539 112.824 21.6034 112.974 21.6786L113.2 21.3023C113.351 20.9259 113.426 20.7001 113.576 20.7001C113.576 20.6248 113.576 20.6248 113.652 20.6248C113.953 20.0227 114.179 19.6463 114.254 19.4958V19.4205H114.329C114.329 19.3452 114.404 19.2699 114.48 19.1194C114.555 18.9689 114.48 18.9689 114.404 18.8936ZM114.329 21.7539L114.555 21.5281C114.555 21.6034 114.48 22.055 114.404 22.883C114.329 22.7325 114.329 22.5819 114.329 22.3561H114.254V21.7539H114.329ZM115.007 23.2594C114.931 22.9583 114.931 22.7325 114.931 22.5819C115.082 22.9583 115.082 23.1841 115.007 23.2594ZM115.308 23.4099C115.157 23.2594 115.157 23.1841 115.232 23.1841L115.308 23.4099ZM115.759 24.1626L115.91 24.3132C115.835 24.3132 115.835 24.3132 115.759 24.3884L115.684 24.3132C115.534 24.3132 115.383 24.2379 115.157 24.2379C115.082 24.3132 114.931 24.3132 114.706 24.4637C114.706 24.3884 114.706 24.3132 114.781 24.2379C114.856 24.1626 114.856 24.0874 114.856 24.0121H115.007V24.0874C115.082 24.1626 115.157 24.1626 115.308 24.1626C115.458 24.1626 115.534 24.1626 115.759 24.1626ZM113.878 23.2594L113.275 22.5819V22.3561H113.351V22.4314H113.426C113.426 22.5066 113.426 22.5066 113.501 22.5066H113.576V22.5819H113.652C113.652 22.6572 113.727 22.7325 113.802 22.8077C113.802 23.1841 113.878 23.2594 113.878 23.2594ZM112.899 23.2594L112.748 23.1088C112.297 22.9583 112.146 22.5819 112.146 22.055H112.222C112.222 22.1303 112.222 22.1303 112.297 22.2808C112.372 22.3561 112.372 22.4314 112.372 22.5066C112.297 22.5819 112.297 22.6572 112.372 22.7325C112.447 22.6572 112.447 22.6572 112.447 22.5819V22.6572L112.598 22.8077C112.598 22.883 112.598 22.9583 112.673 22.9583C112.673 22.8077 112.673 22.7325 112.598 22.5819V22.6572H112.673V22.7325H112.748V22.8077C112.673 22.8077 112.748 22.9583 112.899 23.2594ZM119.147 15.2805C118.921 15.3558 118.845 15.4311 118.77 15.5063C118.695 15.5816 118.62 15.6569 118.544 15.6569C118.544 15.5816 118.62 15.5063 118.695 15.4311V15.2805H118.845C118.62 15.2805 118.77 15.2053 119.147 15.13V15.2805V15.2805ZM118.544 15.8074L118.394 15.958L118.243 16.1838H118.168C118.168 16.1085 118.243 15.958 118.394 15.8074H118.544ZM113.426 24.0121C113.125 23.8615 113.05 23.7863 112.974 23.6357C112.974 23.6357 113.05 23.6357 113.125 23.4852C113.2 23.711 113.351 23.8615 113.426 24.0121Z" fill="#B8B8B6"/>
<path fill-rule="evenodd" clip-rule="evenodd" d="M112.071 84.4551V89.1219L145.417 87.0143L112.071 84.4551Z" fill="#B8B8B6"/>
<path fill-rule="evenodd" clip-rule="evenodd" d="M81.8118 84.4551V89.1219L52.3052 87.0143L81.8118 84.4551Z" fill="#B8B8B6"/>
<path fill-rule="evenodd" clip-rule="evenodd" d="M85.1985 86.8638L97.0914 80.842L108.683 86.9391L96.9409 93.4877C96.9409 93.4877 84.9727 86.638 85.1985 86.8638Z" fill="#B8B8B6"/>
<path fill-rule="evenodd" clip-rule="evenodd" d="M96.9404 83.4763L97.9942 86.1108L100.779 86.3367L98.5964 88.1432L99.3491 90.853L96.9404 89.3475L94.5317 90.853L95.2092 88.0679L93.1016 86.3367L95.8866 86.1108L96.9404 83.4763Z" fill="#B8B8B6"/>
</svg>
