<?xml version="1.0" encoding="utf-8"?>
<svg width="165" height="147" viewBox="0 0 165 147" fill="none" xmlns="http://www.w3.org/2000/svg">
<path d="M164.741 73.4126L163.605 73.3252H164.479C159.672 70.6159 158.536 67.3823 158.536 67.3823C156.002 53.2241 142.718 55.2342 142.718 55.2342C147.262 41.8627 133.716 42.1249 133.716 42.1249C134.59 34.6962 131.356 30.8508 131.356 30.8508C124.714 19.8389 111.168 25.17 111.168 25.17C107.497 12.3228 98.0583 10.6623 98.0583 10.6623C86.085 8.91439 82.6766 0.786564 82.327 0.087396V0V0.087396C82.0648 0.786564 78.569 8.91439 66.6831 10.7497C66.6831 10.7497 57.2443 12.4102 53.5737 25.2574C53.5737 25.2574 40.0273 19.9263 33.3853 30.9382C33.3853 30.9382 30.0642 34.6962 31.0256 42.2122C31.0256 42.2122 17.5666 41.9501 22.0238 55.3216C22.0238 55.3216 8.7396 53.3115 6.20511 67.4697C6.20511 67.4697 5.06897 70.7033 0.262188 73.4126L0 73.5L0.349584 73.5874C4.98157 76.2967 6.11772 79.5303 6.11772 79.5303C8.6522 93.6885 21.9364 91.6784 21.9364 91.6784C17.3918 105.05 30.9382 104.788 30.9382 104.788C29.9768 112.216 33.2979 116.062 33.2979 116.062C39.9399 127.074 53.4863 121.743 53.4863 121.743C57.157 134.59 66.5957 136.25 66.5957 136.25C78.4816 138.086 81.9774 146.213 82.2396 146.913V147V146.825C82.5018 146.126 85.9976 137.998 97.8835 136.163C97.8835 136.163 107.322 134.502 110.993 121.655C110.993 121.655 124.539 126.986 131.181 115.974C131.181 115.974 134.502 112.216 133.541 104.7C133.541 104.7 147 104.963 142.543 91.591C142.543 91.591 155.827 93.6011 158.361 79.4429C158.361 79.4429 159.498 76.2093 164.304 73.5H163.605L164.741 73.4126Z" fill="#B8B8B6" fill-opacity="0.1"/>
<path fill-rule="evenodd" clip-rule="evenodd" d="M66.7695 70.9649C66.7695 70.7901 66.8569 70.7027 67.0317 70.7027H67.1191C67.3813 70.7901 67.6435 70.7901 67.9057 70.7901C69.4788 70.7901 71.2267 70.1783 73.3242 68.78C74.5478 67.9934 75.5091 67.2069 76.3831 66.4203C77.257 65.6337 78.6554 63.9732 80.6655 61.4387C83.1126 58.4673 84.9479 56.5446 86.3462 55.4958C86.7832 55.2336 87.0454 54.9714 87.1328 54.9714V55.0588C87.1328 55.0588 87.0454 55.2336 86.8706 55.321C85.9966 56.195 85.1227 57.8555 84.2487 60.2152C83.3748 62.4001 82.763 63.9732 82.326 65.022C81.889 66.0707 81.3647 66.9447 80.8403 67.5564C80.6655 67.7312 80.6655 67.8186 80.6655 67.8186L80.8403 67.7312L80.9277 67.5564L81.1899 67.2943C81.6268 66.7699 82.5882 65.4589 84.2487 63.3614C86.7832 60.0404 88.9681 57.5933 90.8034 56.1076C91.8522 55.321 92.4639 54.884 92.5513 54.884L92.6387 54.9714L92.5513 55.0588C91.2404 56.2824 90.0169 58.0303 88.7933 60.39C87.6572 62.7497 87.0454 64.585 87.0454 65.9833C87.0454 67.0321 87.2202 67.7312 87.7446 68.343C88.1815 68.8674 88.7933 69.217 89.6673 69.217C91.3278 69.217 93.0757 68.2556 94.7362 66.3329C96.3968 64.4102 97.2707 62.5749 97.2707 60.5648C97.2707 59.7782 97.0959 59.079 96.6589 58.6421C96.222 58.1177 95.6976 57.9429 94.9984 57.9429C93.5127 57.8555 92.1144 58.9042 90.8034 60.9144C89.9295 62.2253 89.4925 63.3614 89.4925 64.4102C89.4925 64.9346 89.6673 65.2842 89.9295 65.6337C90.1916 65.8959 90.4538 66.0707 90.8908 66.0707C91.153 66.0707 91.4152 65.9833 91.59 65.8959C91.7648 65.8085 91.9396 65.7211 91.9396 65.6337L91.8522 65.5463L91.6774 65.6337C91.5026 65.6337 91.4152 65.7211 91.4152 65.7211C91.153 65.7211 90.9782 65.5463 90.9782 65.1968C90.9782 65.022 91.0656 64.7598 91.2404 64.6724C91.4152 64.585 91.59 64.4976 91.7648 64.4976C92.2018 64.4976 92.3765 64.6724 92.3765 65.1968C92.3765 65.6337 92.2018 65.8959 91.8522 66.1581C91.59 66.4203 91.2404 66.5951 90.8034 66.5951C90.3664 66.5951 89.9295 66.4203 89.7547 66.0707C89.4925 65.7211 89.4051 65.2842 89.4051 64.7598C89.4051 63.5362 89.9295 62.1379 91.153 60.5648C92.3765 58.9043 93.6875 58.0303 95.0858 58.0303C95.9598 58.1177 96.6589 58.3799 97.1833 58.9916C97.7077 59.6034 97.8825 60.4774 97.8825 61.3513C97.8825 62.2253 97.6203 63.1866 97.1833 64.2354C96.6589 65.1968 96.0472 66.0707 95.1732 66.9447C93.2505 68.78 91.5026 69.6539 89.7547 69.6539C88.7059 69.6539 87.9194 69.217 87.2202 68.4304C86.521 67.6438 86.1714 66.5951 86.1714 65.4589C86.1714 64.2354 86.6958 62.6623 87.7446 60.9144C88.7933 59.079 90.1042 57.5933 91.5026 56.2824C91.6774 56.195 91.7648 56.1076 91.7648 56.1076L91.6774 56.0202C91.5026 56.0202 90.8034 56.632 89.6673 57.7681C88.1815 59.3412 85.9966 61.8757 83.3748 65.4589C82.5882 66.4203 81.889 67.3817 81.1025 68.0808C80.3159 68.8674 79.8789 69.3044 79.7041 69.3044L79.6167 69.217L79.7041 69.1296C80.1411 68.6052 80.4907 67.9934 80.7529 67.469C81.0151 66.7699 81.4521 65.6337 82.0638 63.7984C82.6756 61.7883 83.2874 60.3026 83.8117 59.3412C84.3361 58.2051 85.1227 57.3311 85.9092 56.4572L85.9966 56.3698L85.9092 56.2824C85.8219 56.2824 85.3849 56.7194 84.5109 57.5933C83.8991 58.2051 82.326 60.1278 79.6167 63.3614C78.3058 65.022 76.9949 66.3329 75.9461 67.2069C74.81 68.1682 73.5864 69.0422 72.2755 69.8287C70.4402 70.7901 68.867 71.4019 67.4687 71.4019C67.0317 71.2271 66.7695 71.1397 66.7695 70.9649Z" fill="white"/>
<path fill-rule="evenodd" clip-rule="evenodd" d="M97.1843 71.4028C95.8734 71.4028 94.3002 70.8785 92.3775 69.8297C91.0666 69.1306 89.843 68.2566 88.7943 67.2078C87.7455 66.2465 86.4346 64.9356 85.1237 63.1876C82.5018 59.954 80.8413 58.0313 80.3169 57.4195C79.4429 56.5455 79.0059 56.1086 78.9186 56.1086L78.8312 56.196L78.9186 56.2834C79.7925 57.1573 80.4043 58.1187 81.0161 59.1674C81.5404 60.2162 82.0648 61.7019 82.6766 63.712C83.2883 65.5473 83.7253 66.7709 83.9875 67.3826C84.2497 67.907 84.5993 68.5188 84.9489 69.0432L85.0363 69.218L84.9489 69.3054C84.7741 69.3054 84.3371 68.8684 83.6379 68.0818C82.8514 67.2952 82.1522 66.3339 81.3656 65.3725C78.7438 61.8767 76.6463 59.2548 75.0731 57.6817C74.0244 56.5455 73.4126 55.9338 73.1504 55.9338C73.1504 55.9338 73.2378 56.0212 73.3252 56.1086C74.8109 57.4195 76.0345 58.9926 77.0832 60.8279C78.0446 62.6633 78.569 64.149 78.569 65.4599C78.569 66.5961 78.2194 67.6448 77.5202 68.4314C76.821 69.218 75.9471 69.6549 74.9857 69.5675C73.2378 69.5675 71.4899 68.6936 69.5672 66.7709C68.6932 65.8969 68.0815 65.1103 67.5571 64.0616C67.0327 63.1002 66.8579 62.1389 66.8579 61.2649C66.8579 60.3036 67.1201 59.517 67.7319 58.8178C68.2562 58.2061 68.9554 57.9439 69.742 57.9439C71.1403 57.9439 72.5386 58.8178 73.7622 60.5658C74.8983 62.1389 75.4227 63.5372 75.4227 64.7608C75.4227 65.2851 75.2479 65.7221 75.0731 66.0717C74.8109 66.4213 74.374 66.5961 73.937 66.5961C73.5874 66.5961 73.1504 66.4213 72.8882 66.1591C72.626 65.8969 72.4513 65.6347 72.4513 65.2851C72.4513 64.8482 72.7134 64.6734 73.063 64.6734C73.2378 64.6734 73.4126 64.7608 73.5874 64.9356C73.7622 65.1103 73.8496 65.1977 73.8496 65.4599C73.7622 65.8095 73.6748 65.9843 73.3252 65.9843C73.3252 65.9843 73.1504 65.8969 73.063 65.8969V65.5473L72.9756 65.6347C72.9756 65.7221 73.1504 65.8095 73.4126 65.9843C73.5874 66.1591 73.8496 66.1591 74.0244 66.1591C74.4614 66.1591 74.7235 65.9843 74.9857 65.8095C75.2479 65.5473 75.4227 65.1103 75.4227 64.586C75.4227 63.5372 74.9857 62.3137 74.1118 61.0901C72.8008 59.08 71.4025 58.0313 69.9168 58.0313C69.2176 58.0313 68.6058 58.2935 68.1688 58.7304C67.7319 59.2548 67.5571 59.8666 67.5571 60.6531C67.4697 62.5759 68.3436 64.4986 70.0042 66.4213C71.5773 68.344 73.2378 69.3054 74.9857 69.3054C75.7723 69.3054 76.4715 69.0432 76.9084 68.5188C77.3454 67.907 77.6076 67.2078 77.6076 66.1591C77.6076 64.7608 77.0832 62.9254 75.8597 60.5658C74.7235 58.2061 73.5 56.4581 72.2765 55.2346L72.1017 55.0598L72.1891 54.9724C72.3639 54.9724 72.8882 55.4094 73.937 56.196C75.7723 57.6817 77.8698 60.1288 80.4043 63.5372C81.9774 65.6347 83.0262 66.9457 83.3757 67.47L83.6379 67.8196L83.7253 67.907L83.9001 67.9944C83.9001 67.907 83.8127 67.8196 83.7253 67.7322C83.201 67.0331 82.764 66.2465 82.327 65.1977C81.8026 64.2364 81.2782 62.5759 80.4917 60.391C79.6177 57.9439 78.8312 56.2834 77.9572 55.4094C77.7824 55.2346 77.695 55.1472 77.695 55.1472V55.0598C77.7824 55.0598 78.0446 55.2346 78.4816 55.5842C79.8799 56.6329 81.7152 58.643 84.1623 61.5271C86.1724 63.9742 87.5707 65.7221 88.3573 66.5961C89.2313 67.3826 90.1926 68.1692 91.4162 68.9558C93.5137 70.3541 95.349 70.9659 96.8347 70.9659C97.0969 70.9659 97.3591 70.9659 97.6213 70.9659H97.7961C97.9709 70.9659 98.0583 71.0533 98.0583 71.2281C97.8835 71.3155 97.6213 71.4028 97.1843 71.4028Z" fill="white"/>
<path d="M123.577 51.5632L117.459 55.2338L119.994 49.0287L116.061 46.232L115.187 47.1934C115.624 47.543 115.799 47.8052 115.886 48.0674C115.973 48.2421 115.799 48.5043 115.624 48.7665L111.866 53.1363C111.516 53.4859 111.079 53.6607 110.555 53.3985C110.467 53.3111 110.293 53.3111 110.031 53.1363L109.244 54.0977L110.555 55.059L112.74 56.5448L113.526 55.5834C113.089 55.3212 112.827 54.9716 112.74 54.7094C112.652 54.4473 112.827 54.2725 113.002 53.9229L116.76 49.6405L113.614 57.2439L115.099 58.2927L122.441 53.8355L118.77 58.0305C118.508 58.2927 118.246 58.4675 117.984 58.4675C117.721 58.4675 117.284 58.2927 116.847 57.9431L115.973 58.9045L120.693 62.1381L121.479 61.1768C121.042 60.9146 120.78 60.6524 120.78 60.3902C120.693 60.128 120.78 59.8658 121.042 59.6036L124.8 55.2338C125.063 54.8842 125.325 54.7968 125.587 54.7968C125.849 54.7968 126.199 54.9716 126.636 55.2338L127.51 54.2725L123.577 51.5632ZM110.555 45.1833C110.817 45.0959 111.079 45.1833 111.429 45.2707L111.953 44.1345L110.555 43.6976L107.758 42.7362L107.321 43.8724C108.195 44.1345 108.457 44.5715 108.195 45.2707L106.36 49.5531C105.836 50.7766 104.874 51.1262 103.388 50.6018C102.777 50.3397 102.427 50.0775 102.252 49.5531C102.077 49.1161 102.077 48.6791 102.34 48.2421L104.175 43.8724C104.262 43.5228 104.525 43.348 104.787 43.2606C105.049 43.1732 105.399 43.1732 105.836 43.348L106.36 42.2118L101.116 40.3765L100.679 41.5127C101.466 41.7748 101.815 42.2118 101.466 42.911L99.4556 47.7178C99.106 48.5043 99.1934 49.3783 99.7178 50.0775C100.242 50.864 101.116 51.4758 102.427 51.9128C105.224 52.8741 107.059 52.2624 107.846 50.2523L109.681 45.7951C109.856 45.4455 110.118 45.1833 110.555 45.1833ZM59.7778 49.6405C59.3409 49.8153 58.9913 49.8153 58.5543 49.8153C58.3795 49.8153 58.1173 49.7279 57.6803 49.5531L54.5341 48.2421C55.2332 47.7178 55.6702 47.1934 55.845 46.5816C56.0198 45.9699 55.9324 45.3581 55.6702 44.7463C55.1459 43.785 54.2719 43.348 53.0483 43.348C52.4366 43.4354 51.7374 43.5228 51.0382 43.785C50.9508 43.8723 50.7761 43.8724 50.6887 43.9597L44.4835 46.8438L44.3961 46.9312L44.4835 47.1934L44.9205 47.98C45.4449 47.8052 45.8819 47.7178 46.1441 47.8052C46.3189 47.8926 46.4937 47.98 46.6684 48.3295L49.4651 53.2237C49.6399 53.5733 49.7273 53.7481 49.6399 54.0103C49.5525 54.1851 49.2903 54.4473 48.7659 54.7094L49.3777 55.7582L51.1256 54.9716L54.7089 53.3111L54.0971 52.2624C53.5727 52.5246 53.1357 52.6119 52.7862 52.5245C52.524 52.4372 52.3492 52.2624 52.1744 52.0002L51.1256 50.1649V50.0775L51.8248 49.8153L57.156 52.175L59.7778 50.9514L60.477 50.6018L59.8652 49.5531C59.8652 49.6405 59.7778 49.6405 59.7778 49.6405ZM52.7862 47.3682C52.4366 47.8052 52.087 48.1548 51.5626 48.3295L51.1256 48.5917L50.2517 48.9413L49.2903 47.1934C49.0281 46.8438 49.0281 46.4942 49.0281 46.4068C49.1155 46.232 49.4651 46.0572 50.0769 45.7077C50.3391 45.6203 50.6013 45.5329 50.9508 45.4455C51.0382 45.4455 51.1256 45.4455 51.213 45.4455C51.9122 45.3581 52.4366 45.6203 52.7862 46.1446C53.1357 46.4942 53.0484 46.9312 52.7862 47.3682ZM68.6048 47.0186C67.9931 47.4556 67.2065 47.8052 66.3325 47.98C65.8082 48.0674 65.546 48.0674 65.2838 47.98C65.1964 47.8926 65.109 47.7178 65.0216 47.3682L64.4098 44.9211L65.0216 44.8337C65.546 44.7463 65.8956 44.7463 66.2451 45.0085C66.4199 45.1833 66.6821 45.5329 66.9443 46.0573L68.1679 45.7951L67.0317 41.3379L65.8082 41.6001C65.8956 42.2992 65.8956 42.7362 65.8956 42.911C65.8082 43.0858 65.3712 43.348 64.672 43.4354L64.1476 43.5228L63.7981 42.037C63.7107 41.6001 63.7107 41.3379 63.8854 41.1631C64.0602 40.9883 64.4098 40.8135 65.109 40.7261C65.983 40.5513 66.8569 40.6387 67.6435 40.8135C68.2552 41.0757 68.9544 41.4253 69.741 42.037L70.7023 41.3379L68.3426 38.716L59.8652 40.4639L59.0787 40.6387L59.3409 41.7748C59.5157 41.7748 59.603 41.6875 59.7778 41.6875C60.04 41.6875 60.3022 41.7748 60.477 41.7748C60.6518 41.8622 60.7392 42.037 60.8266 42.3866L62.2249 47.8052C62.3123 48.0674 62.3123 48.2422 62.1375 48.4169C62.0501 48.5917 61.7005 48.8539 61.1762 49.0287L61.4384 50.1649L70.8771 48.1548L71.7511 44.3967L70.5275 44.1345C70.0906 45.6203 69.3914 46.4942 68.6048 47.0186ZM81.1025 44.1345L79.005 37.7546L73.936 37.6672L73.8486 38.8908C74.373 38.9782 74.7226 38.9782 74.9847 39.153C75.1595 39.3278 75.2469 39.5026 75.2469 39.8521L75.1595 45.4455C75.1595 46.1446 74.7226 46.4942 73.7612 46.4942V47.7178L78.2184 47.8052V46.5816C77.694 46.5816 77.257 46.4942 77.0822 46.3194C76.82 46.232 76.8201 45.9699 76.8201 45.6203L76.9074 40.2017L79.5293 47.8926H81.3646L84.2487 40.3765L84.1613 45.7077C84.1613 46.0572 84.0739 46.3194 83.8117 46.4942C83.5495 46.5816 83.2 46.669 82.6756 46.669V47.8926L88.5311 47.98V46.7564C88.0067 46.7564 87.5698 46.669 87.395 46.4942C87.2202 46.4068 87.1328 46.0572 87.1328 45.7077L87.2202 40.2017C87.2202 39.8521 87.3076 39.5899 87.5698 39.4152C87.7445 39.2404 88.1815 39.2404 88.7059 39.2404V38.0168L83.4621 37.9294L81.1025 44.1345ZM92.1143 39.7647C93.0757 40.0269 93.4253 40.3765 93.2505 41.0757L91.8522 46.4942C91.7648 46.8438 91.59 47.106 91.3278 47.1934C91.0656 47.2808 90.716 47.2808 90.1042 47.1934L89.8421 48.4169L95.5228 49.5531L95.785 48.4169C95.2606 48.3295 94.911 48.1548 94.7362 47.98C94.5614 47.8052 94.474 47.543 94.6488 47.1934L96.0472 41.7748C96.1346 41.4253 96.3094 41.1631 96.5715 41.0757C96.8337 40.9883 97.2707 40.9883 97.7951 41.0757L98.0573 39.8521L92.3765 38.716L92.1143 39.7647ZM43.697 58.2927C42.9978 58.8171 42.4734 58.8171 41.9491 58.2927L40.6381 56.8943L41.8617 56.0204C44.2214 54.2725 44.6583 52.6119 43.26 51.1262C42.4734 50.2523 41.5121 49.9027 40.2885 50.1649C40.0263 50.2523 39.7642 50.3397 39.502 50.427C39.065 50.6018 38.628 50.864 38.191 51.1262L33.1221 54.9716L33.996 55.8456C34.6952 55.3212 35.307 55.3212 35.7439 55.8456L39.502 59.7784L39.7642 60.0406C40.0264 60.3028 40.1137 60.565 40.1137 60.8272C40.1137 61.002 39.8516 61.2641 39.502 61.6137L39.4146 61.7011L39.502 61.7885L40.2885 62.6625L44.3961 59.6036L44.5709 59.5162L44.3961 59.4288L43.697 58.2927ZM40.2885 55.496L39.7642 55.8456L39.5894 55.6708L38.0162 54.0103C37.7541 53.7481 37.7541 53.4859 37.8415 53.2237C37.8415 53.1363 38.1036 52.9615 38.3658 52.7867C38.7154 52.5246 39.065 52.3498 39.4146 52.3498C39.4146 52.3498 39.502 52.3498 39.5894 52.3498C40.1137 52.3498 40.5507 52.5245 40.9877 52.9615C41.3373 53.3985 41.5121 53.7481 41.4247 54.2725C41.1625 54.6221 40.8129 55.059 40.2885 55.496Z" fill="white"/>
<path d="M132.579 80.4039C132.404 80.1417 132.142 79.967 131.705 79.967C131.181 79.967 130.569 80.1417 129.87 80.4913C129.171 80.8409 128.384 81.4527 127.51 82.1518C126.287 83.2006 124.976 84.5989 123.577 86.2595C123.315 86.609 123.053 86.9586 122.703 87.3082C122.529 87.5704 122.266 87.8326 122.092 88.0948C122.354 87.046 122.616 85.9973 122.791 85.1233C122.791 84.9485 122.791 84.7737 122.878 84.5989C123.053 83.4628 123.14 82.5014 123.14 81.8023C123.14 81.4527 123.14 81.0157 123.14 80.7535C123.053 80.4039 123.053 80.1417 122.878 79.8796V79.7922L122.791 79.8796C122.703 79.967 122.616 79.967 122.616 79.967C122.616 80.0543 122.529 80.0543 122.529 80.0543L120.781 81.0157L118.945 81.8897C118.945 81.8897 118.858 81.9771 118.771 81.9771H118.683H118.596V82.0645L118.771 82.5888V82.6762H118.858C118.945 82.5888 119.033 82.5888 119.033 82.5888H119.12C119.295 82.5014 119.47 82.5014 119.557 82.414C119.732 82.414 119.819 82.3266 119.907 82.3266C120.344 82.3266 120.606 82.6762 120.606 83.4628C120.606 85.0359 120.256 87.3956 119.47 90.4545C119.382 91.0662 119.208 91.678 119.033 92.3772C118.858 92.9889 118.683 93.6881 118.508 94.4747L118.334 95.1738V95.2612H118.421H119.12H119.207L119.382 94.9117C119.819 93.9503 120.256 92.9889 120.781 92.115C121.48 90.8041 122.266 89.6679 123.053 88.4444C123.315 88.0074 123.577 87.6578 123.927 87.3082C124.189 86.9586 124.451 86.609 124.801 86.1721C125.675 85.1233 126.461 84.2493 127.161 83.6376C127.335 83.5502 127.423 83.4628 127.598 83.288C128.384 82.6762 129.083 82.414 129.608 82.414C129.957 82.414 130.132 82.5014 130.307 82.7636C130.482 83.0258 130.569 83.3754 130.569 83.8998V83.9872C130.569 84.5115 130.482 85.2107 130.219 86.0847C130.132 86.1721 130.132 86.3469 130.045 86.5216C130.045 86.609 129.957 86.7838 129.87 86.9586C129.695 87.5704 129.433 88.1822 129.083 88.7065C128.821 89.2309 128.471 89.7553 128.209 90.2797C127.598 91.0662 126.986 91.8528 126.287 92.552C125.587 93.2511 124.801 93.7755 124.014 94.3873C123.315 94.8243 122.441 95.1738 121.392 95.3486C121.13 95.3486 121.043 95.436 120.781 95.436C120.606 95.436 120.344 95.436 120.081 95.5234C118.683 95.6108 117.722 95.7856 116.935 95.9604C116.848 95.9604 116.673 96.0478 116.586 96.0478C116.498 96.0478 116.411 96.0478 116.236 96.1352C116.236 96.2226 116.149 96.2226 116.149 96.2226C115.886 96.31 115.624 96.4848 115.275 96.6596C114.925 96.9218 114.663 97.184 114.313 97.5335C113.702 98.2327 113.265 98.9319 112.915 99.5436C112.565 100.155 112.478 100.855 112.478 101.466C112.478 101.991 112.565 102.428 112.74 102.865C113.002 103.302 113.265 103.651 113.702 104.001C114.051 104.263 114.401 104.438 114.925 104.613C115.012 104.7 115.012 104.7 115.187 104.7C115.449 104.787 115.799 104.875 116.149 104.875C116.411 104.875 116.673 104.962 116.935 104.962C117.984 104.962 118.858 104.7 119.47 104.35C120.081 103.913 120.518 103.302 120.693 102.515V102.428L120.606 102.515C120.081 102.777 119.47 103.039 118.858 103.214C118.246 103.389 117.634 103.476 116.935 103.476C116.673 103.476 116.411 103.389 116.149 103.389C115.712 103.389 115.275 103.214 114.925 103.127C114.838 103.127 114.663 103.039 114.576 103.039C114.488 102.952 114.401 102.952 114.313 102.865C113.964 102.602 113.702 102.428 113.527 102.166C113.352 101.903 113.352 101.641 113.352 101.292C113.352 100.68 113.527 100.068 113.876 99.631C113.964 99.5436 114.051 99.4563 114.139 99.4563C114.226 99.3689 114.313 99.2815 114.401 99.2815C114.75 99.0193 115.187 98.8445 115.799 98.5823C115.886 98.4949 116.061 98.4949 116.149 98.4949C116.673 98.4075 117.197 98.2327 117.809 98.1453C118.858 97.9705 119.819 97.7083 120.781 97.4461C121.043 97.3587 121.305 97.2713 121.567 97.184C121.742 97.0966 122.004 97.0092 122.179 96.8344C122.354 96.747 122.616 96.6596 122.791 96.5722C123.49 96.1352 124.276 95.6108 125.063 94.9117C125.85 94.2999 126.636 93.5133 127.51 92.552C128.996 90.8914 130.219 89.3183 131.093 87.8326C131.268 87.5704 131.356 87.3082 131.53 86.9586C132.404 85.2107 132.929 83.5502 132.929 81.9771C132.841 81.1905 132.754 80.7535 132.579 80.4039ZM114.576 93.5133C114.663 93.4259 114.75 93.3385 114.925 93.2511C115.012 93.1637 115.1 93.1637 115.187 93.0763L115.275 92.9889V92.9016L114.925 92.3772H114.838C114.401 92.6394 113.964 92.9016 113.527 93.1637C113.439 93.2511 113.352 93.2511 113.265 93.2511C112.828 93.4259 112.478 93.5133 112.128 93.5133C111.866 93.5133 111.691 93.4259 111.517 93.3385C111.429 93.2511 111.342 92.9889 111.342 92.8142C111.342 92.4646 111.517 91.678 112.041 90.4545C112.128 90.1923 112.216 90.0175 112.303 89.7553C112.391 89.4931 112.478 89.2309 112.653 88.9687C113.002 88.0948 113.352 87.3082 113.702 86.609C113.964 85.9099 114.226 85.2981 114.488 84.7737C115.012 83.5502 115.449 82.5888 115.799 81.8023L115.886 81.5401C116.149 80.9283 116.323 80.5787 116.411 80.3165L116.586 80.0543H119.207L119.295 79.967L119.557 79.4426V79.3552H119.47H116.935L117.023 79.0056L117.634 77.6947C117.897 77.0829 118.071 76.5585 118.159 76.2089L118.246 76.0341L118.334 75.8593V75.7719H118.246C117.984 75.8593 117.809 75.8593 117.547 75.9467H117.372C117.11 76.0341 116.76 76.0341 116.498 76.0341H116.411C116.323 76.0341 116.323 76.0341 116.236 76.0341H116.149C116.061 76.1215 116.061 76.2963 115.974 76.3837C115.624 77.3451 115.275 78.0442 115.013 78.4812C114.925 78.5686 114.925 78.656 114.838 78.7434C114.838 78.8308 114.75 78.9182 114.75 78.9182C114.576 79.093 114.313 79.1804 113.964 79.2678C113.614 79.3552 113.177 79.3552 112.565 79.3552H112.391H112.303H112.216L111.954 79.967L111.866 80.0543H111.954H114.313L114.226 80.4039C114.051 80.6661 113.702 81.6275 113.09 82.9384L112.74 83.8124L112.303 84.7737L110.73 88.4444L110.381 89.3183C109.944 90.2797 109.594 91.1536 109.332 91.8528C109.244 91.9402 109.244 92.115 109.157 92.2898C108.895 93.0763 108.72 93.6007 108.72 93.8629C108.72 94.2125 108.807 94.5621 109.07 94.7369C109.157 94.8243 109.157 94.8243 109.332 94.9117C109.507 94.9991 109.856 95.0865 110.206 95.0865C110.381 95.0865 110.468 95.0865 110.73 95.0865C111.08 94.9991 111.517 94.9991 111.866 94.8243C111.954 94.7369 112.128 94.7369 112.216 94.6495C112.303 94.6495 112.478 94.5621 112.565 94.5621C113.352 94.2125 114.051 93.8629 114.576 93.5133ZM110.555 76.2963C110.555 76.2963 110.643 76.2963 110.73 76.2963C110.905 76.2963 111.08 76.2089 111.254 76.1215C111.342 76.1215 111.342 76.0341 111.342 76.0341C111.342 75.9467 111.429 75.9467 111.429 75.9467C111.517 75.7719 111.604 75.6846 111.691 75.5098C111.779 75.4224 111.779 75.2476 111.779 75.0728C111.779 74.8106 111.691 74.5484 111.604 74.3736C111.429 74.2862 111.167 74.1988 110.905 74.1988C110.817 74.1988 110.817 74.1988 110.73 74.1988C110.643 74.2862 110.555 74.2862 110.381 74.2862C110.293 74.3736 110.118 74.461 109.944 74.6358C109.856 74.7232 109.681 74.898 109.681 75.0728C109.594 75.2476 109.594 75.335 109.594 75.5098C109.594 75.8593 109.594 76.0341 109.856 76.2089C109.944 76.2963 110.206 76.2963 110.555 76.2963ZM105.836 90.1923C105.923 89.9301 106.011 89.7553 106.098 89.5805L106.186 89.4931L107.584 86.2595C108.37 84.5115 108.982 83.0258 109.332 81.8023C109.681 80.6661 109.856 79.7922 109.856 79.1804V79.0056V78.9182L109.769 79.0056L109.332 79.1804L109.244 79.2678C108.196 79.7048 107.147 80.1417 106.186 80.5787C106.011 80.6661 105.749 80.6661 105.574 80.7535C105.399 80.8409 105.224 80.9283 104.962 80.9283L104.612 81.0157L104.525 81.1031H104.438V81.1905L104.525 81.4527L104.612 81.8023V81.8897H104.7C104.787 81.8023 104.875 81.8023 104.875 81.8023C104.962 81.7149 104.962 81.7149 104.962 81.7149L105.749 81.4527C105.836 81.4527 105.923 81.3653 106.098 81.3653C106.186 81.3653 106.273 81.3653 106.36 81.3653C106.535 81.3653 106.622 81.3653 106.71 81.4527C106.797 81.5401 106.797 81.7149 106.797 81.8023C106.797 82.1518 106.448 83.1132 105.749 84.6863C105.574 85.0359 105.486 85.3855 105.312 85.7351C105.137 86.0847 104.962 86.5216 104.787 86.8712L104.7 86.9586C104.612 87.2208 104.438 87.3956 104.35 87.6578C103.913 88.5318 103.651 89.3183 103.301 89.9301C102.952 90.8041 102.69 91.4158 102.515 91.9402C102.34 92.4646 102.253 92.9889 102.165 93.5133C102.078 94.0377 102.078 94.6495 101.99 95.2612V95.3486L102.078 95.2612C102.69 95.0865 103.476 94.7369 104.35 94.3873C104.612 94.2999 104.962 94.1251 105.224 94.0377C105.486 93.9503 105.749 93.7755 106.011 93.6881C106.273 93.6007 106.535 93.4259 106.797 93.2511H106.885L106.797 93.1637L106.535 92.6394V92.6394L106.448 92.7268C106.186 92.8142 105.923 92.9016 105.749 92.9889C105.574 92.9889 105.399 93.0763 105.312 93.0763C105.137 93.0763 104.962 93.0763 104.875 92.9889C104.787 92.9016 104.787 92.7268 104.787 92.6394C104.787 92.3772 104.962 91.7654 105.399 90.8041C105.661 90.6293 105.749 90.4545 105.836 90.1923ZM101.291 92.0276L101.029 92.2024C100.417 92.7268 99.893 93.0763 99.5434 93.1637C99.456 93.1637 99.3686 93.2511 99.2812 93.2511C99.1938 93.3385 99.1938 93.3385 99.1064 93.3385C98.9316 93.3385 98.7568 93.2511 98.6695 93.1637C98.5821 93.0763 98.4947 92.9016 98.4947 92.552C98.5821 91.678 99.456 88.9687 101.291 84.5989C101.641 83.725 102.078 82.7636 102.515 81.8023C102.952 80.8409 103.389 79.7048 103.913 78.656V78.5686C104.175 77.9568 104.438 77.4325 104.612 76.9081C105.137 75.6845 105.574 74.461 105.923 73.4996C106.011 73.2375 106.098 72.9753 106.186 72.7131C106.71 71.14 106.972 70.0038 106.972 69.2172V69.1299L106.885 69.2172C106.36 69.4794 105.574 69.829 104.612 70.1786C104.35 70.266 104.175 70.4408 103.913 70.4408C103.651 70.5282 103.389 70.6156 103.127 70.703C102.864 70.8778 102.602 70.9652 102.253 71.0526L101.99 71.14L101.903 71.2274L102.078 71.7517V71.8391C102.165 71.7517 102.253 71.7517 102.253 71.7517C102.34 71.6643 102.34 71.6643 102.34 71.6643C102.602 71.5769 102.777 71.4895 102.952 71.4895C103.127 71.4021 103.301 71.4021 103.301 71.4021C103.476 71.4021 103.651 71.4895 103.738 71.4895C103.738 71.5769 103.826 71.6643 103.826 71.8391C103.826 72.0139 103.651 72.5383 103.476 73.3249C103.214 74.1114 102.777 75.0728 102.253 76.3837L100.417 80.7535C99.456 83.1132 98.6695 85.1233 97.9703 86.6964C97.7955 87.3082 97.5333 87.8326 97.3585 88.357C97.0963 89.1435 96.8341 89.7553 96.6593 90.1923C96.3972 90.8914 96.2224 91.5906 96.0476 92.2024C95.9602 92.8142 95.8728 93.2511 95.8728 93.6881C95.8728 94.2125 95.9602 94.6495 96.135 94.9117C96.3098 95.1738 96.6593 95.3486 97.0963 95.3486C97.1837 95.3486 97.2711 95.3486 97.3585 95.2612C98.0577 95.1738 98.9316 94.7369 99.9804 93.8629C100.243 93.6881 100.505 93.5133 100.767 93.2511C101.029 92.9889 101.291 92.8142 101.554 92.552L101.641 92.4646H101.554L101.291 92.0276ZM84.5987 87.3082C84.9483 86.7838 85.3853 86.1721 85.9096 85.6477C87.0458 84.4241 88.2693 83.3754 89.6677 82.6762C89.9299 82.5014 90.192 82.414 90.4542 82.3266C92.1148 81.5401 93.9501 81.1905 95.8728 81.1905C96.2224 81.1905 96.6593 81.1905 97.0963 81.2779C97.2711 81.2779 97.3585 81.2779 97.5333 81.2779C97.7955 81.2779 98.0577 81.3653 98.4073 81.3653H98.4947C98.5821 81.0157 98.7568 80.8409 98.8442 80.5787C98.8442 80.4913 98.8442 80.4913 98.8442 80.4913C98.9316 80.2291 99.019 80.0543 99.019 79.967C99.019 79.7922 98.9316 79.7048 98.8442 79.53C98.6695 79.53 98.5821 79.4426 98.3199 79.4426C98.0577 79.4426 97.7955 79.4426 97.5333 79.4426C94.9114 79.53 92.2895 80.4039 89.6677 81.8897C87.8324 82.9384 86.1718 84.162 84.7735 85.6477C84.5113 85.9099 84.2491 86.1721 83.9869 86.5216C83.7247 86.7838 83.4626 87.1334 83.2878 87.3956C82.676 88.1822 82.1516 88.9687 81.802 89.6679C81.6272 90.0175 81.5398 90.2797 81.365 90.6293C80.9281 91.678 80.6659 92.7268 80.6659 93.6007C80.6659 94.2125 80.7533 94.6495 81.0155 94.9117C81.1903 95.0864 81.4524 95.2612 81.802 95.3486C81.8894 95.3486 81.9768 95.3486 82.0642 95.3486C82.7634 95.3486 83.6373 95.0865 84.7735 94.3873C85.0357 94.2999 85.2105 94.1251 85.3853 93.9503C85.6474 93.8629 85.8222 93.6007 86.0844 93.5133C86.9584 92.9016 87.8324 92.115 88.6189 91.3284C89.3181 90.6293 90.1046 89.8427 90.8038 89.0561C89.8425 91.0662 89.3181 92.7268 88.9685 93.9503C88.8811 94.2125 88.7937 94.3873 88.7937 94.6495C88.7063 94.8243 88.7063 95.0865 88.7063 95.2612V95.3486L88.7937 95.2612C89.9299 94.9991 90.9786 94.6495 91.94 94.2999C92.8139 93.8629 93.6005 93.4259 94.2997 92.9016V92.8142V92.7268L93.9501 92.2898V92.2024L93.8627 92.2898C93.4257 92.552 93.0761 92.7268 92.8139 92.8142C92.5517 92.9015 92.2895 92.9889 92.2022 92.9889C92.0274 92.9889 91.94 92.989 91.8526 92.9016C91.7652 92.8142 91.7652 92.7268 91.7652 92.552C91.7652 92.2898 92.1148 91.3284 92.7265 89.8427C92.8139 89.5805 92.9887 89.2309 93.0761 88.8813C93.2509 88.6191 93.3383 88.1822 93.5131 87.8326L93.6879 87.5704V87.483L93.6005 87.5704C93.1635 87.6578 92.7265 87.8326 92.3769 87.92C92.1148 88.0074 91.7652 88.0074 91.503 88.0948C91.94 87.483 92.3769 86.8712 92.6391 86.2595C92.7265 86.1721 92.7265 85.9973 92.8139 85.9099C93.0761 85.2107 93.2509 84.5115 93.2509 83.8998C93.2509 83.2006 93.0761 82.6762 92.8139 82.3266C92.7265 82.2392 92.7265 82.2392 92.5517 82.1518C92.4643 82.0645 92.4643 82.0645 92.2895 81.9771L92.2022 81.8897V81.9771C91.94 83.0258 91.5904 84.0746 91.1534 85.1233C90.7164 86.1721 90.192 87.1334 89.4929 88.1822C88.8811 89.2309 88.0945 90.1923 87.308 90.9788C87.1332 91.1536 86.9584 91.3284 86.871 91.5032C86.6962 91.5906 86.5214 91.7654 86.3466 91.9402C85.8222 92.3772 85.3853 92.7268 85.0357 92.9889C84.9483 93.0763 84.8609 93.0763 84.7735 93.0763C84.3365 93.3385 83.9869 93.4259 83.6373 93.4259C83.2878 93.4259 83.113 93.3385 82.9382 93.0763C82.7634 92.8142 82.676 92.4646 82.676 92.0276C82.676 90.8914 82.9382 89.8427 83.3752 88.7939C83.8995 88.357 84.2491 87.8326 84.5987 87.3082ZM66.0708 91.241H65.9834C65.896 91.3284 65.896 91.3284 65.8086 91.3284L65.1968 91.9402C64.9346 92.2024 64.6724 92.3772 64.4976 92.4646C64.4102 92.4646 64.4102 92.4646 64.4102 92.4646C64.2354 92.552 64.148 92.552 64.0607 92.552H63.9733C63.7111 92.552 63.0119 92.115 61.9631 91.3284C61.7884 91.1536 61.5262 90.9788 61.3514 90.8041C61.0892 90.6293 60.827 90.4545 60.5648 90.1923L60.4774 90.1049L60.2152 89.9301C61.4388 88.7065 62.4001 87.483 63.0993 86.1721C63.1867 85.9099 63.3615 85.6477 63.4489 85.3855C64.148 83.8124 64.585 82.2392 64.585 80.6661C64.585 79.3552 64.3228 78.219 63.7985 77.3451C63.7111 77.1703 63.6237 76.9955 63.5363 76.8207C63.4489 76.6459 63.2741 76.5585 63.1867 76.3837C62.6623 75.8593 62.0505 75.335 61.264 74.898C60.5648 74.5484 59.6035 74.1114 58.6421 73.8492V73.7618C59.1665 72.6257 59.6035 71.4895 59.953 70.4408C60.0404 70.1786 60.0404 70.0912 60.2152 69.829C60.2152 69.6542 60.3026 69.392 60.39 69.2172V69.0425H60.3026C59.4287 68.9551 58.5547 68.8677 57.7681 68.7803C56.9816 68.6929 56.195 68.6929 55.4084 68.6929H55.2337C51.0387 68.6929 47.1932 69.3046 43.7848 70.6156C43.0856 70.8778 42.3864 71.14 41.7747 71.4895C41.1629 71.7517 40.4637 72.1013 39.9394 72.4509C38.6284 73.1501 37.4923 74.024 36.5309 74.898C35.5696 75.7719 34.783 76.8207 34.0838 77.8694C33.5595 78.7434 33.0351 79.7048 32.6855 80.5787C32.6855 80.7535 32.5107 81.0157 32.5107 81.1031C32.1611 82.2392 31.9863 83.4628 31.9863 84.6863C31.9863 87.1334 32.5981 89.2309 33.8216 90.8914C34.0838 91.241 34.346 91.5032 34.6082 91.8528C34.9578 92.115 35.22 92.3772 35.5696 92.7268C36.7931 93.6881 38.1914 94.3873 39.9394 94.9117C41.5999 95.3486 43.5226 95.6108 45.7075 95.6108C47.368 95.6108 48.9411 95.436 50.6017 95.0865C50.8639 94.9991 51.2134 94.9991 51.563 94.9117C51.8252 94.8243 52.1748 94.7369 52.5244 94.6495C53.4857 94.3873 54.4471 94.0377 55.3211 93.6007C55.4958 93.6007 55.4958 93.5133 55.6706 93.5133C56.632 92.9889 57.5059 92.4646 58.2925 91.8528C58.7295 92.2024 59.3413 92.6394 59.953 93.1637C60.5648 93.6881 61.3514 94.3873 62.2253 95.0865L62.8371 95.6108H62.9245L63.3615 95.2612C63.5363 95.0865 63.7111 94.9117 64.0607 94.6495C64.3228 94.3873 64.585 94.1251 64.9346 93.7755C65.5464 93.2511 66.0708 92.7268 66.4203 92.2898L66.6825 92.0276L66.8573 91.8528L66.9447 91.7654H66.8573L66.0708 91.241ZM55.1463 92.552C54.3597 92.9889 53.4857 93.4259 52.6992 93.6881C51.0386 94.2999 49.1159 94.5621 47.1058 94.5621C44.3092 94.5621 41.9495 94.1251 40.0268 93.1637C39.6772 92.9889 39.2402 92.8142 38.8906 92.6394C38.541 92.3772 38.2788 92.2024 37.9293 91.9402C36.7931 91.0662 36.0065 89.9301 35.4822 88.7939C34.9578 87.5704 34.6082 86.1721 34.6082 84.5115C34.6082 83.4628 34.6956 82.414 34.9578 81.3653C35.1326 80.3165 35.4822 79.3552 36.0065 78.3938C36.7057 76.9955 37.5797 75.7719 38.6284 74.8106C38.8032 74.6358 39.0654 74.3736 39.2402 74.1988C39.415 74.024 39.6772 73.8492 39.9394 73.6744C41.0755 72.8005 42.5612 72.1013 44.2218 71.4895C44.484 71.4021 44.8335 71.3148 45.1831 71.2274C47.2806 70.703 49.6403 70.4408 52.437 70.4408C53.3983 70.4408 54.3597 70.5282 55.1463 70.5282H55.3211C56.195 70.6156 57.069 70.703 57.8555 70.7904C57.7681 71.3148 57.6807 71.7517 57.5933 72.1887C57.506 72.6257 57.4186 73.0627 57.2438 73.4996C56.4572 73.4123 55.9328 73.4123 55.4084 73.3249C55.3211 73.3249 55.2337 73.3249 55.1463 73.3249C54.7967 73.3249 54.3597 73.3249 54.0101 73.3249C52.437 73.3249 50.9513 73.4123 49.6403 73.7618C48.242 74.024 47.1058 74.5484 46.0571 75.1602C44.9209 75.7719 44.1344 76.5585 43.61 77.3451C43.0856 78.1316 42.8234 79.0056 42.8234 79.967C42.8234 80.2291 42.8234 80.5787 42.9108 80.8409C42.9982 80.9283 42.9982 81.1031 43.0856 81.2779C43.173 81.3653 43.173 81.4527 43.2604 81.6275L43.3478 81.7149V81.5401C43.61 79.967 44.3966 78.5686 45.4453 77.4325C45.6201 77.2577 45.8823 76.9955 46.1445 76.8207C46.3193 76.5585 46.5815 76.3837 46.8436 76.2089C47.6302 75.6845 48.5042 75.1602 49.3781 74.8106C49.5529 74.7232 49.7277 74.7232 49.9025 74.6358C51.0386 74.2862 52.1748 74.1114 53.4857 74.1114C54.0101 74.1114 54.6219 74.1114 55.1463 74.1988V74.2862C55.6706 74.3736 56.195 74.3736 56.8068 74.461C56.3698 75.6845 55.8454 76.7333 55.1463 77.6947C54.2723 79.093 53.3109 80.1417 52.0874 81.0157C50.0773 82.5014 47.6302 83.288 44.8335 83.288C44.5713 83.288 44.1344 83.288 43.6974 83.288L43.4352 83.2006H43.173H42.9108H42.8234C42.6486 83.5502 42.3864 83.8998 42.0369 84.3367C41.7747 84.6863 41.3377 85.1233 40.9881 85.6477L41.0755 85.7351C41.4251 85.6477 41.6873 85.6477 42.0369 85.5603C42.1243 85.5603 42.1243 85.5603 42.2117 85.5603C42.5612 85.4729 42.9982 85.4729 43.5226 85.4729C44.484 85.4729 45.5327 85.5603 46.6689 85.9099C47.805 86.1721 48.9411 86.5216 50.2521 87.046C52 87.7452 53.6605 88.7065 55.3211 89.7553L55.4958 89.8427C55.8454 90.1049 56.195 90.2797 56.5446 90.5419C56.8068 90.7167 57.1564 90.9788 57.4186 91.241C56.5446 91.678 55.8454 92.2024 55.1463 92.552ZM59.6035 88.357C59.5161 88.5318 59.4287 88.6191 59.2539 88.7939C59.1665 88.8813 58.9917 89.0561 58.9043 89.2309C57.6807 88.2696 56.4572 87.483 55.0589 86.6964C53.9227 86.0847 52.6992 85.4729 51.3882 84.9485C50.8639 84.6863 50.3395 84.5115 49.7277 84.3367C49.2907 84.162 48.7664 83.9872 48.242 83.8998C49.2907 83.5502 50.1647 83.1132 51.0387 82.5888C52 82.0645 52.874 81.4527 53.5731 80.7535C54.0975 80.3165 54.5345 79.7922 54.9715 79.2678C55.5832 78.5686 56.1076 77.8694 56.632 76.9955C56.8068 76.7333 56.9816 76.3837 57.1564 76.0341C57.3312 75.7719 57.506 75.4224 57.6807 75.0728L57.8555 74.6358C58.7295 74.898 59.4287 75.335 60.0404 76.0341C60.1278 76.2089 60.2152 76.2963 60.39 76.3837C60.4774 76.4711 60.5648 76.6459 60.6522 76.8207C60.9144 77.2577 61.0892 77.782 61.264 78.3938C61.3514 78.4812 61.3514 78.5686 61.3514 78.656C61.5262 79.3552 61.6136 80.1417 61.6136 81.0157C61.6136 81.9771 61.4388 83.0258 61.264 84.0746C61.1766 84.2493 61.1766 84.4241 61.0892 84.6863C61.0018 84.8611 61.0018 85.0359 60.9144 85.2981C60.7396 86.5216 60.2152 87.483 59.6035 88.357ZM79.7919 92.2898C79.4423 92.3772 79.2675 92.4646 79.0054 92.4646H78.918C78.6558 92.552 78.481 92.552 78.3062 92.552C78.1314 92.552 77.9566 92.4646 77.8692 92.4646C77.7818 92.3772 77.6944 92.2898 77.6944 92.115C77.7818 91.8528 77.9566 91.3284 78.2188 90.3671C78.5684 89.4931 79.0054 88.2696 79.7045 86.6964C80.4911 84.7737 81.1903 83.2006 81.802 81.8023C81.8894 81.5401 81.9768 81.3653 82.1516 81.1031C82.239 80.8409 82.4138 80.5787 82.5012 80.3165C82.5886 80.0543 82.7634 79.7922 82.8508 79.53H82.676C82.3264 79.6174 81.9768 79.7922 81.6272 79.8796C81.3651 79.967 81.0155 80.0543 80.7533 80.1417C80.6659 80.1417 80.5785 80.1417 80.4037 80.1417C80.3163 80.2291 80.2289 80.2291 80.1415 80.2291V80.3165L79.8793 80.9283C79.0054 83.2006 77.9566 85.2981 76.6457 87.2208C76.3835 87.5704 76.1213 88.0074 75.8591 88.357C75.5969 88.7065 75.3347 89.1435 75.0725 89.4931C74.0238 90.8041 73.1498 91.7654 72.3633 92.3772C71.5767 92.9889 70.8775 93.3385 70.2658 93.3385C70.091 93.3385 69.9162 93.2511 69.7414 93.1637C69.654 93.0763 69.5666 92.9016 69.5666 92.6394C69.5666 92.3772 69.7414 91.8528 70.091 90.9788C70.3532 90.1923 70.8775 89.1435 71.4893 87.8326L73.0624 84.4241C73.4994 83.4628 73.9364 82.5888 74.1986 81.8897C74.286 81.8023 74.286 81.6275 74.3734 81.4527C74.6356 80.5787 74.8104 79.967 74.8104 79.4426V79.3552H74.723C74.1112 79.6174 73.4994 79.8796 72.7128 80.1417C72.0137 80.4039 71.2271 80.6661 70.3532 80.9283L70.0036 81.0157V81.1031L70.1784 81.7149H70.2658C70.528 81.6275 70.7027 81.6275 70.8775 81.5401C71.0523 81.4527 71.1397 81.4527 71.2271 81.4527C71.4019 81.4527 71.5767 81.4527 71.6641 81.6275C71.7515 81.7149 71.8389 81.8023 71.8389 81.9771C71.8389 82.1519 71.7515 82.5014 71.5767 82.851C71.4893 83.2006 71.3145 83.6376 71.0523 84.162L69.4792 87.3082C68.8674 88.7065 68.343 89.8427 67.9061 90.8041C67.8187 90.9788 67.8187 91.1536 67.7313 91.3284C67.3817 92.4646 67.2069 93.2511 67.2069 93.7755C67.2069 94.2125 67.2943 94.5621 67.4691 94.8243C67.7313 94.9991 67.9935 95.1738 68.4304 95.1738C69.1296 95.1738 70.0036 94.9117 70.8775 94.2999C71.0523 94.2125 71.2271 94.0377 71.4893 93.9503C71.6641 93.7755 71.8389 93.6881 72.1011 93.5133C72.8002 92.9016 73.5868 92.2024 74.3734 91.4158C75.0725 90.7167 75.7717 89.8427 76.4709 88.9687C76.1213 90.0175 75.7717 91.0662 75.4221 92.0276C75.1599 93.0763 74.8977 94.2125 74.723 95.1738V95.2612L74.8104 95.1738L75.3347 94.9991C76.8205 94.3873 78.044 93.8629 78.918 93.5133C79.0928 93.4259 79.2675 93.3385 79.4423 93.2511C79.6171 93.1637 79.7045 93.1637 79.8793 93.0763V92.9889L79.7919 92.2898Z" fill="white"/>
<path d="M81.9773 137.649C79.6176 134.765 75.4226 131.444 68.4309 130.308C68.1687 130.22 61.3518 128.647 58.5552 118.334L58.2056 114.489L55.2341 116.761H55.1467C55.1467 116.761 52.5249 117.81 49.3786 117.81C45.1836 117.81 42.0373 116.062 39.9398 112.566L39.6777 112.217C39.5903 112.042 37.9297 109.857 37.9297 105.574C37.9297 104.875 37.9297 104.176 38.1045 103.39L38.9785 99.4567L35.57 100.593H35.4826C35.3952 100.593 31.6372 100.593 29.8893 98.3206C29.2775 97.4466 29.1027 96.4853 29.1027 95.3491C29.1027 94.0382 29.4523 92.6399 29.8019 91.5037L30.4137 88.1827H26.9178C26.8304 88.1827 26.743 88.1827 26.6557 88.1827C26.4809 88.1827 26.1313 88.1827 25.7817 88.1827C21.8489 88.2701 16.6925 86.4347 15.469 78.7439L15.3816 78.3069C15.2942 78.0447 14.5076 76.0346 12.1479 73.7623L11.7983 73.4128L12.1479 73.0632C14.5076 70.7909 15.2942 68.7808 15.3816 68.5186L15.469 68.0816C16.7799 60.3908 21.9363 58.5554 25.7817 58.5554C26.3935 58.5554 26.8304 58.6428 26.9178 58.6428L30.9381 59.5168L29.7145 55.4092C29.3649 54.273 29.0153 52.8747 29.0153 51.5638C29.0153 50.515 29.1901 49.4663 29.8019 48.6797C31.5498 46.32 35.3079 46.4074 35.4826 46.4074L38.6289 46.8444L38.0171 43.5233C37.9297 42.7368 37.8423 42.0376 37.8423 41.4258C37.8423 37.1434 39.5029 34.9585 39.5903 34.8711L39.8524 34.5216C41.8625 30.9383 45.0962 29.1904 49.2912 29.1904C52.4375 29.1904 55.0593 30.2391 55.1467 30.2391L58.1182 31.6375L58.5552 28.4912C61.3518 18.1785 68.1687 16.6054 68.6057 16.518C75.51 15.3818 79.6176 12.0608 82.0647 9.17673L82.4143 8.73975L82.7639 9.17673C85.1235 12.0608 89.3185 15.3818 96.3102 16.518C96.5724 16.6054 103.389 18.1785 106.186 28.4912L106.71 31.5501L109.594 30.1518C109.682 30.1518 112.216 29.103 115.45 29.103C119.645 29.103 122.791 30.8509 124.801 34.3468L125.064 34.6963C125.151 34.8711 126.811 37.056 126.811 41.3384C126.811 42.0376 126.811 42.7368 126.637 43.5233L126.025 46.4948L129.258 46.32C129.346 46.32 133.104 46.32 134.852 48.5923C135.464 49.4663 135.638 50.515 135.638 51.4764C135.638 52.7873 135.289 54.1856 134.939 55.4092L133.628 59.2546L137.823 58.7302C137.911 58.7302 137.998 58.7302 138.085 58.7302C138.26 58.7302 138.61 58.7302 138.959 58.7302C142.892 58.6428 148.049 60.4782 149.272 68.169L149.36 68.606C149.447 68.8682 150.234 70.8783 152.593 73.1506L152.943 73.5001L152.593 73.8497C150.234 76.122 149.447 78.2195 149.36 78.3943L149.272 78.8313C147.961 86.5221 142.805 88.3575 138.959 88.3575C138.435 88.3575 138.085 88.3575 137.911 88.2701H137.823L133.628 87.3961L134.939 91.5037C135.289 92.6399 135.638 94.0382 135.638 95.4365C135.638 96.4853 135.464 97.534 134.852 98.408C133.104 100.768 129.346 100.68 129.258 100.68H129.171L126.462 99.8937L126.637 103.477C126.724 104.264 126.724 104.963 126.724 105.662C126.724 109.944 125.063 112.129 124.976 112.217L124.714 112.566C122.704 116.149 119.558 117.897 115.275 117.897C112.129 117.897 109.507 116.849 109.507 116.849H109.42L106.273 114.576L106.011 118.509C103.215 128.734 96.3976 130.395 96.048 130.395C89.1438 131.531 85.0361 134.852 82.5891 137.736L82.2395 138.173L81.9773 137.649ZM82.3269 137.387L82.6765 137.124L82.3269 137.387ZM59.5165 118.159C62.2258 128.035 68.6057 129.346 68.6931 129.434C75.5974 130.57 79.8798 133.803 82.4143 136.687C84.9488 133.803 89.2312 130.57 96.048 129.434C96.2228 129.346 102.603 128.035 105.312 118.247L105.662 112.654L110.031 115.8C110.468 115.975 112.741 116.761 115.45 116.761C119.383 116.761 122.179 115.188 124.102 111.867L124.364 111.517C124.452 111.43 125.937 109.507 125.937 105.487C125.937 104.875 125.937 104.176 125.85 103.39L125.588 98.4954L129.346 99.5441C129.783 99.5441 133.017 99.282 134.153 97.6214C134.59 97.0097 134.764 96.1357 134.764 95.2617C134.764 94.0382 134.415 92.7273 134.065 91.6785L132.23 86.0852L137.911 87.2213C138.085 87.2213 138.348 87.3087 138.959 87.3087C142.63 87.2213 147.087 85.9104 148.398 78.5691L148.486 78.0447C148.573 77.6952 149.36 75.685 151.632 73.4128C149.36 71.1405 148.66 69.1303 148.486 68.7808L148.398 68.2564C147.087 60.9151 142.63 59.6042 138.959 59.5168C138.26 59.5168 137.998 59.6042 137.911 59.6042L132.23 60.3034L134.065 55.0596C134.415 53.9235 134.764 52.6125 134.677 51.4764C134.677 50.515 134.502 49.7284 134.065 49.1167C132.842 47.2814 129.171 47.194 129.258 47.194L124.889 47.4562L125.763 43.3485C125.85 42.6494 125.85 41.9502 125.85 41.3384C125.85 37.3182 124.364 35.3081 124.277 35.2207L124.015 34.7837C122.092 31.4627 119.383 29.977 115.363 29.8896C113.877 29.8896 112.478 30.1518 111.517 30.4139C110.556 30.6761 109.944 30.9383 109.944 30.8509L106.011 32.861L105.312 28.5786C102.515 18.8777 96.1354 17.4793 96.048 17.4793C89.1438 16.3432 84.8614 13.1095 82.3269 10.2255C79.7924 13.1095 75.51 16.3432 68.6931 17.4793C68.5183 17.5667 62.1384 18.8777 59.4291 28.666L58.9048 32.9484L54.7971 31.0257C54.7971 31.0257 54.1854 30.7635 53.1366 30.5013C52.1753 30.2392 50.7769 29.977 49.2912 29.977C45.3584 29.977 42.5617 31.5501 40.639 34.8711L40.3768 35.3081C40.3768 35.3081 38.8037 37.3182 38.8037 41.3384C38.8037 41.9502 38.8911 42.6494 38.8911 43.3485L39.765 47.8931L35.3952 47.2814C35.3952 47.2814 31.812 47.3688 30.5011 49.2041C30.0641 49.8158 29.8893 50.6898 29.8893 51.5638C29.8893 52.7873 30.2389 54.0982 30.5885 55.147L32.249 60.7403L26.8304 59.6042C26.6557 59.6042 26.3935 59.5168 25.7817 59.5168C22.1111 59.6042 17.6539 60.9151 16.3429 68.2564L16.1681 68.7808C16.0807 69.1303 15.2942 71.1405 13.0219 73.4128C15.2942 75.685 15.9933 77.6952 16.1681 78.0447L16.2555 78.5691C17.5665 85.9104 22.0237 87.2213 25.6943 87.3087C26.3935 87.3087 26.6557 87.2213 26.8304 87.2213L31.375 87.3087L30.5011 91.7659C30.1515 92.902 29.8019 94.213 29.8019 95.3491C29.8019 96.3105 29.9767 97.0971 30.4137 97.7088C31.5498 99.3694 34.6961 99.6315 35.2205 99.6315L40.0272 97.971L38.7163 103.477C38.6289 104.176 38.6289 104.875 38.6289 105.487C38.6289 109.507 40.1146 111.517 40.202 111.517L40.4642 111.954C42.3869 115.275 45.0962 116.761 49.1164 116.849C51.8257 116.849 54.098 116.062 54.535 115.887L58.73 112.741L59.5165 118.159Z" fill="#989883"/>
</svg>
