<?xml version="1.0" encoding="utf-8"?>
<svg width="141" height="87" viewBox="0 0 141 87" fill="none" xmlns="http://www.w3.org/2000/svg">
<g filter="url(#filter0_d)">
<path d="M134.611 26.6762C132.474 18.3213 130.144 15.9897 127.619 7.63473C126.647 5.30313 126.259 2.58292 122.569 2.19432C120.432 2.00002 112.274 2.00002 111.303 3.16582C110.332 4.33162 109.166 10.1606 110.332 11.1321C111.497 12.2979 118.295 13.4637 121.986 11.9093C123.151 16.7669 121.209 18.7099 120.238 22.4016C119.461 26.0933 119.072 29.0078 119.072 29.0078C119.072 29.0078 115.965 26.0933 113.44 25.899C111.109 25.5104 109.361 26.0933 108.001 26.8705C109.166 29.5907 109.749 32.5052 109.749 35.8083C109.749 36.0026 109.749 36.1969 109.749 36.5855C109.749 36.7798 109.749 36.9741 109.749 37.1684C109.749 38.5285 109.555 39.8886 109.361 41.0544C109.166 43.1917 108.778 45.329 108.001 47.4663C109.166 47.8549 110.526 48.0492 112.08 48.0492C119.072 47.6606 124.122 44.5518 124.122 44.5518C124.122 44.5518 133.446 41.443 134.028 40.0829C134.417 38.7228 133.834 36.9741 133.834 36.9741C133.834 36.9741 135.582 32.5052 134.611 26.6762Z" fill="#F23849"/>
<path d="M31.2791 36.1969C31.2791 32.6995 32.056 29.3964 33.4157 26.4819C32.2503 25.899 30.5022 25.3161 28.3656 25.7047C25.8406 25.899 22.7328 28.8135 22.7328 28.8135C22.7328 28.8135 22.5386 25.899 21.5674 22.2073C20.7905 18.5156 18.6539 16.5726 19.8193 11.9094C23.5098 13.4638 30.5022 12.298 31.4733 11.1322C32.6387 9.96635 31.2791 4.13734 30.5022 3.16584C29.531 2.00003 21.5674 1.80573 19.2366 2.19433C15.5462 2.58293 15.3519 5.49744 14.1865 7.63475C11.6615 15.9897 9.3307 18.127 7.19413 26.6762C6.22296 32.3109 7.97106 36.5855 7.97106 36.5855C7.97106 36.5855 7.38836 38.3342 7.77683 39.6943C8.1653 41.0544 17.6827 44.1632 17.6827 44.1632C17.6827 44.1632 22.7328 47.2721 29.7252 47.6607C31.2791 47.855 32.833 47.4664 33.9984 47.0778C32.2503 43.7746 31.2791 40.0829 31.2791 36.1969Z" fill="#F23849"/>
<path d="M71.0969 26.6762C62.3564 10.7436 37.8829 16.7669 39.631 37.1684C39.631 40.2772 40.408 43.386 41.9618 46.4949H45.6523L48.9542 37.557C49.3427 36.5855 50.3139 36.0026 51.285 36.0026C52.2562 36.0026 53.2274 36.7798 53.4216 37.7513L55.1697 44.5518L55.5582 43.1917C55.7524 42.2202 56.7236 41.6373 57.5005 41.6373C58.4717 41.6373 59.2486 42.0259 59.8313 42.8031L60.414 43.9689L65.4641 31.3394C65.8526 30.3679 66.8237 29.785 67.7949 29.9793C68.7661 30.1736 69.7372 30.9508 69.7372 31.9223L72.4565 50.7695L74.7873 43.7746C75.1758 42.8031 75.9527 42.2202 76.9239 42.2202C77.8951 42.2202 78.8662 42.8031 79.0605 43.7746L80.4201 48.0493L84.8875 33.8653C85.2759 32.8938 86.0529 32.3109 87.024 32.3109C87.9952 32.3109 88.9664 32.8938 89.1606 33.8653L92.2683 42.2202H101.203C101.592 40.6658 101.786 39.1114 101.786 37.3627C104.311 16.7669 79.6432 10.7436 71.0969 26.6762Z" fill="#F23849"/>
<path d="M89.1611 45.1348L87.8014 41.443L83.1398 56.0156C82.7513 56.9871 81.9744 57.57 81.0032 57.57C80.0321 57.57 79.0609 56.9871 78.8667 56.0156L77.3128 51.741L74.2051 61.6503C73.8166 62.6218 73.0397 63.2047 72.0685 63.2047H71.8743C70.7089 63.2047 69.9319 62.2332 69.7377 61.2617L66.6299 40.8601L62.9395 50.1866C62.551 50.9638 61.7741 51.5467 60.9972 51.5467C60.026 51.5467 59.2491 51.1581 58.8606 50.3809L58.4721 49.6037L57.3067 53.4897C56.9183 54.4612 56.1413 55.0441 54.9759 55.0441C54.0048 55.0441 53.0336 54.2669 52.8394 53.2954L50.897 45.912L49.5374 49.4094C49.1489 50.3809 48.372 50.9638 47.4008 50.9638H44.4873C53.2278 65.1477 71.0973 77 71.0973 77C71.0973 77 92.8515 62.4275 100.232 46.6892H91.2976C90.3265 46.4949 89.3553 45.912 89.1611 45.1348Z" fill="#F23849"/>
</g>
<defs>
<filter id="filter0_d" x="0.900391" y="0.0124512" width="140.004" height="86.9876" filterUnits="userSpaceOnUse" color-interpolation-filters="sRGB">
<feFlood flood-opacity="0" result="BackgroundImageFix"/>
<feColorMatrix in="SourceAlpha" type="matrix" values="0 0 0 0 0 0 0 0 0 0 0 0 0 0 0 0 0 0 127 0"/>
<feOffset dy="4"/>
<feGaussianBlur stdDeviation="3"/>
<feColorMatrix type="matrix" values="0 0 0 0 0.94902 0 0 0 0 0.219608 0 0 0 0 0.286275 0 0 0 0.2 0"/>
<feBlend mode="normal" in2="BackgroundImageFix" result="effect1_dropShadow"/>
<feBlend mode="normal" in="SourceGraphic" in2="effect1_dropShadow" result="shape"/>
</filter>
</defs>
</svg>
