<?xml version="1.0" encoding="utf-8"?>
<svg width="141" height="74" viewBox="0 0 51 74" fill="none" xmlns="http://www.w3.org/2000/svg">
<path d="M9.40777 30.1575C7.92233 27.4966 7.05582 24.3288 7.05582 21.0342C7.05582 8.99658 18.568 7.2226 25.5 7.2226C32.432 7.2226 43.9442 8.99658 43.9442 21.0342C43.9442 24.0753 43.2015 26.9897 41.8398 29.6507C43.8204 31.0445 45.6772 32.6918 47.2864 34.4658C49.6383 30.5377 51 25.976 51 21.0342C51 8.10959 41.2209 0 25.5 0C9.77913 0 0 8.10959 0 21.0342C0 26.2295 1.60922 31.1712 4.20874 35.226C5.69417 33.3253 7.55097 31.6781 9.40777 30.1575Z" fill="#F23849"/>
<path d="M26.1188 29.3972C12.7499 29.3972 1.98047 39.4075 1.98047 51.6986C1.98047 63.9897 12.7499 74 26.1188 74C39.4878 74 50.2572 63.9897 50.2572 51.6986C50.2572 39.4075 39.4878 29.3972 26.1188 29.3972ZM11.1407 62.976C-2.10448 44.0958 16.4635 35.9863 16.4635 35.9863C5.07513 49.4178 11.1407 62.976 11.1407 62.976Z" fill="#F23849"/>
</svg>
